<?xml version="1.0" encoding="iso-8859-1"?>
<!-- Generator: Adobe Illustrator 16.0.0, SVG Export Plug-In . SVG Version: 6.00 Build 0)  -->
<!DOCTYPE svg PUBLIC "-//W3C//DTD SVG 1.1//EN" "http://www.w3.org/Graphics/SVG/1.1/DTD/svg11.dtd">
<svg version="1.1" id="Layer_1" xmlns="http://www.w3.org/2000/svg" xmlns:xlink="http://www.w3.org/1999/xlink" x="0px" y="0px"
	 width="148.524px" height="34.667px" viewBox="0 0 148.524 34.667" style="enable-background:new 0 0 148.524 34.667;"
	 xml:space="preserve">
<g>
	<g>
		<path style="fill:#FFFFFF;" d="M146.017,9.254c-0.144-0.207-0.321-0.238-0.416-0.238c-0.226,0-0.383,0.164-0.419,0.206
			l-1.361,1.668c-0.125,0.169-0.286,0.548-0.085,0.903c0.994,1.762,1.519,3.785,1.519,5.85c0,6.646-5.408,12.056-12.054,12.056
			c-6.649,0-12.059-5.409-12.059-12.056c0-6.647,5.41-12.055,12.059-12.055c1.778,0,3.565,0.427,5.459,1.309
			c0.108,0.05,0.22,0.076,0.331,0.076c0.312,0,0.507-0.201,0.541-0.238l1.313-1.619c0.031-0.035,0.175-0.225,0.131-0.463
			c-0.019-0.107-0.084-0.256-0.278-0.367c-2.287-1.288-4.88-1.968-7.498-1.968c-8.452,0-15.329,6.875-15.329,15.326
			c0,8.451,6.877,15.328,15.329,15.328c8.449,0,15.324-6.876,15.324-15.328C148.524,14.658,147.659,11.759,146.017,9.254z"/>
		<path style="fill:#FFFFFF;" d="M128.166,11.865c-0.282-0.265-0.767-0.245-1.03,0.034l-1.237,1.325
			c-0.137,0.146-0.207,0.332-0.197,0.521c0.006,0.19,0.088,0.376,0.238,0.517l6.853,5.957c0.136,0.126,0.312,0.197,0.497,0.197
			l0.044-0.001c0.2-0.013,0.387-0.108,0.51-0.257L147.144,4.68c0.127-0.149,0.187-0.339,0.169-0.534
			c-0.017-0.188-0.11-0.37-0.258-0.494l-1.393-1.167c-0.299-0.247-0.778-0.203-1.023,0.09l-11.578,13.434L128.166,11.865z"/>
	</g>
	<g>
		<g>
			<path style="fill:#E08695;" d="M146.017,8.254c-0.144-0.207-0.321-0.238-0.416-0.238c-0.226,0-0.383,0.164-0.419,0.206
				l-1.361,1.668c-0.125,0.169-0.286,0.548-0.085,0.903c0.994,1.762,1.519,3.785,1.519,5.85c0,6.646-5.408,12.056-12.054,12.056
				c-6.649,0-12.059-5.409-12.059-12.056c0-6.647,5.41-12.055,12.059-12.055c1.778,0,3.565,0.427,5.459,1.309
				c0.108,0.05,0.22,0.076,0.331,0.076c0.312,0,0.507-0.201,0.541-0.238l1.313-1.619c0.031-0.035,0.175-0.225,0.131-0.463
				c-0.019-0.107-0.084-0.256-0.278-0.367c-2.287-1.288-4.88-1.968-7.498-1.968c-8.452,0-15.329,6.875-15.329,15.326
				c0,8.451,6.877,15.328,15.329,15.328c8.449,0,15.324-6.876,15.324-15.328C148.524,13.658,147.659,10.759,146.017,8.254z"/>
			<path style="fill:#E08695;" d="M128.166,10.865c-0.282-0.265-0.767-0.245-1.03,0.034l-1.237,1.325
				c-0.137,0.146-0.207,0.332-0.197,0.521c0.006,0.19,0.088,0.376,0.238,0.517l6.853,5.957c0.136,0.126,0.312,0.197,0.497,0.197
				l0.044-0.001c0.2-0.013,0.387-0.108,0.51-0.257L147.144,3.68c0.127-0.149,0.187-0.339,0.169-0.534
				c-0.017-0.188-0.11-0.37-0.258-0.494l-1.393-1.167c-0.299-0.247-0.778-0.203-1.023,0.09l-11.578,13.434L128.166,10.865z"/>
		</g>
	</g>
</g>
<g>
	<g>
		<path style="fill:#FFFFFF;" d="M9.607,20.655c-2.93-1.013-4.709-1.754-4.709-3.516c0-2.082,2.039-2.519,3.749-2.519
			c1.936,0,3.26,0.534,4.569,1.842c0.419,0.422,0.849,0.422,0.99,0.422c0.767,0,1.414-0.647,1.414-1.414
			c0-0.408-0.137-0.669-0.358-0.958l-0.013-0.018l-0.016-0.017c-1.587-1.78-3.802-2.683-6.586-2.683
			c-4.09,0-6.733,2.097-6.733,5.345c0,3.929,3.719,5.24,6.708,6.293c2.894,1.019,4.65,1.759,4.65,3.436
			c0,2.475-2.428,2.994-4.466,2.994c-2.439,0-3.998-0.63-5.377-2.176l-0.012-0.012l-0.011-0.012c-0.276-0.275-0.62-0.42-0.993-0.42
			C1.73,27.242,1,27.81,1,28.655c0,0.444,0.173,0.713,0.335,0.93c1.12,1.542,3.868,3.104,7.471,3.104
			c4.595,0,7.449-2.23,7.449-5.821C16.255,22.957,12.569,21.68,9.607,20.655z"/>
		<path style="fill:#FFFFFF;" d="M31.995,27.798c-0.365,0-0.616,0.137-0.835,0.284l-0.015,0.011l-0.014,0.01
			c-0.965,0.743-2.287,1.76-4.735,1.76c-4.131,0-5.973-2.355-5.973-7.641c0-5.185,1.898-7.601,5.973-7.601
			c2.695,0,3.686,1.152,4.339,1.921c0.295,0.386,0.679,0.58,1.141,0.58c0.767,0,1.414-0.646,1.414-1.412
			c0-0.304-0.092-0.593-0.273-0.86l-0.055-0.074c-1.513-1.98-3.721-2.981-6.564-2.981c-7.863,0-9.036,6.534-9.036,10.427
			c0,3.909,1.173,10.468,9.036,10.468c3.516,0,5.564-1.642,6.438-2.342c0.37-0.295,0.574-0.7,0.574-1.137
			C33.407,28.444,32.76,27.798,31.995,27.798z"/>
		<path style="fill:#FFFFFF;" d="M43.986,11.794c-2.584,0-4.277,0.923-5.337,1.88V3.598c0-0.81-0.684-1.492-1.492-1.492
			c-0.81,0-1.493,0.682-1.493,1.492v27.4c0,0.808,0.684,1.492,1.493,1.492c0.809,0,1.492-0.684,1.492-1.492V20.116
			c0-4.056,2.854-5.496,5.297-5.496c3.593,0,5.06,1.478,5.06,5.1v11.278c0,0.808,0.684,1.492,1.493,1.492
			c0.809,0,1.492-0.684,1.492-1.492V19.72C51.991,14.535,49.222,11.794,43.986,11.794z"/>
		<path style="fill:#FFFFFF;" d="M63.166,11.794c-5.635,0-8.999,3.898-8.999,10.427c0,6.75,3.351,10.468,9.434,10.468
			c3.49,0,5.633-1.325,6.817-2.436c0.176-0.176,0.513-0.514,0.513-1.082c0-0.767-0.647-1.414-1.414-1.414
			c-0.415,0-0.694,0.19-0.845,0.292l-0.023,0.017l-0.022,0.018c-1.132,0.938-2.37,1.779-5.027,1.779
			c-4.048,0-6.142-2.156-6.386-6.585h12.462c0.943,0,1.599-0.515,1.756-1.376c0.094-0.559,0.094-1.149,0.094-1.625
			C71.526,18.286,70.924,11.794,63.166,11.794z M63.166,14.62c3.645,0,5.416,1.85,5.416,5.655c0,0.059,0,0.132-0.003,0.215H57.251
			C57.642,16.595,59.628,14.62,63.166,14.62z"/>
		<path style="fill:#FFFFFF;" d="M88.736,2.106c-0.81,0-1.493,0.682-1.493,1.492v10.245c-1.134-1.025-2.93-2.049-5.576-2.049
			c-7.863,0-9.037,6.534-9.037,10.427c0,3.909,1.174,10.468,9.037,10.468c5.281,0,8.561-3.296,8.561-8.602V3.598
			C90.228,2.788,89.546,2.106,88.736,2.106z M81.667,29.862c-4.131,0-5.973-2.355-5.973-7.641c0-5.185,1.898-7.601,5.973-7.601
			c3.829,0,5.303,3.216,5.576,3.909v5.558C87.243,27.865,85.315,29.862,81.667,29.862z"/>
	</g>
	<g>
		<g>
			<path style="fill:#00ABDD;" d="M9.607,19.655c-2.93-1.013-4.709-1.754-4.709-3.516c0-2.082,2.039-2.519,3.749-2.519
				c1.936,0,3.26,0.534,4.569,1.842c0.419,0.422,0.849,0.422,0.99,0.422c0.767,0,1.414-0.647,1.414-1.414
				c0-0.408-0.137-0.669-0.358-0.958l-0.013-0.018l-0.016-0.017c-1.587-1.78-3.802-2.683-6.586-2.683
				c-4.09,0-6.733,2.097-6.733,5.345c0,3.929,3.719,5.24,6.708,6.293c2.894,1.019,4.65,1.759,4.65,3.436
				c0,2.475-2.428,2.994-4.466,2.994c-2.439,0-3.998-0.63-5.377-2.176l-0.012-0.012l-0.011-0.012c-0.276-0.275-0.62-0.42-0.993-0.42
				C1.73,26.242,1,26.81,1,27.655c0,0.444,0.173,0.713,0.335,0.93c1.12,1.542,3.868,3.104,7.471,3.104
				c4.595,0,7.449-2.23,7.449-5.821C16.255,21.957,12.569,20.68,9.607,19.655z"/>
			<path style="fill:#00ABDD;" d="M31.995,26.798c-0.365,0-0.616,0.137-0.835,0.284l-0.015,0.011l-0.014,0.01
				c-0.965,0.743-2.287,1.76-4.735,1.76c-4.131,0-5.973-2.355-5.973-7.641c0-5.185,1.898-7.601,5.973-7.601
				c2.695,0,3.686,1.152,4.339,1.921c0.295,0.386,0.679,0.58,1.141,0.58c0.767,0,1.414-0.646,1.414-1.412
				c0-0.304-0.092-0.593-0.273-0.86l-0.055-0.074c-1.513-1.98-3.721-2.981-6.564-2.981c-7.863,0-9.036,6.534-9.036,10.427
				c0,3.909,1.173,10.468,9.036,10.468c3.516,0,5.564-1.642,6.438-2.342c0.37-0.295,0.574-0.7,0.574-1.137
				C33.407,27.444,32.76,26.798,31.995,26.798z"/>
			<path style="fill:#00ABDD;" d="M43.986,10.794c-2.584,0-4.277,0.923-5.337,1.88V2.598c0-0.81-0.684-1.492-1.492-1.492
				c-0.81,0-1.493,0.682-1.493,1.492v27.4c0,0.808,0.684,1.492,1.493,1.492c0.809,0,1.492-0.684,1.492-1.492V19.116
				c0-4.056,2.854-5.496,5.297-5.496c3.593,0,5.06,1.478,5.06,5.1v11.278c0,0.808,0.684,1.492,1.493,1.492
				c0.809,0,1.492-0.684,1.492-1.492V18.72C51.991,13.535,49.222,10.794,43.986,10.794z"/>
			<path style="fill:#00ABDD;" d="M63.166,10.794c-5.635,0-8.999,3.898-8.999,10.427c0,6.75,3.351,10.468,9.434,10.468
				c3.49,0,5.633-1.325,6.817-2.436c0.176-0.176,0.513-0.514,0.513-1.082c0-0.767-0.647-1.414-1.414-1.414
				c-0.415,0-0.694,0.19-0.845,0.292l-0.023,0.017l-0.022,0.018c-1.132,0.938-2.37,1.779-5.027,1.779
				c-4.048,0-6.142-2.156-6.386-6.585h12.462c0.943,0,1.599-0.515,1.756-1.376c0.094-0.559,0.094-1.149,0.094-1.625
				C71.526,17.286,70.924,10.794,63.166,10.794z M63.166,13.62c3.645,0,5.416,1.85,5.416,5.655c0,0.059,0,0.132-0.003,0.215H57.251
				C57.642,15.595,59.628,13.62,63.166,13.62z"/>
			<path style="fill:#00ABDD;" d="M88.736,1.106c-0.81,0-1.493,0.682-1.493,1.492v10.245c-1.134-1.025-2.93-2.049-5.576-2.049
				c-7.863,0-9.037,6.534-9.037,10.427c0,3.909,1.174,10.468,9.037,10.468c5.281,0,8.561-3.296,8.561-8.602V2.598
				C90.228,1.788,89.546,1.106,88.736,1.106z M81.667,28.862c-4.131,0-5.973-2.355-5.973-7.641c0-5.185,1.898-7.601,5.973-7.601
				c3.829,0,5.303,3.216,5.576,3.909v5.558C87.243,26.865,85.315,28.862,81.667,28.862z"/>
		</g>
	</g>
</g>
<g>
	<g>
		<path style="fill:#FFFFFF;" d="M106.201,32.689c-4.124,0-9.038-1.816-9.038-10.468c0-8.618,4.914-10.427,9.038-10.427
			c2.644,0,4.439,1.021,5.575,2.049V3.598c0-0.81,0.685-1.492,1.494-1.492c0.809,0,1.492,0.682,1.492,1.492v20.49
			C114.762,29.474,111.562,32.689,106.201,32.689z M106.201,14.62c-4.076,0-5.974,2.416-5.974,7.601
			c0,5.356,1.787,7.641,5.974,7.641c3.647,0,5.575-1.997,5.575-5.775v-5.558C111.477,17.769,110.007,14.62,106.201,14.62z"/>
	</g>
	<g>
		<path style="fill:#E08695;" d="M106.201,31.689c-4.124,0-9.038-1.816-9.038-10.468c0-8.618,4.914-10.427,9.038-10.427
			c2.644,0,4.439,1.021,5.575,2.049V2.598c0-0.81,0.685-1.492,1.494-1.492c0.809,0,1.492,0.682,1.492,1.492v20.49
			C114.762,28.474,111.562,31.689,106.201,31.689z M106.201,13.62c-4.076,0-5.974,2.416-5.974,7.601
			c0,5.356,1.787,7.641,5.974,7.641c3.647,0,5.575-1.997,5.575-5.775v-5.558C111.477,16.769,110.007,13.62,106.201,13.62z"/>
	</g>
</g>
<circle style="fill:#CE6776;" cx="93.813" cy="29.279" r="1.417"/>
</svg>
