<?xml version="1.0" encoding="utf-8"?>
<!-- Generator: Adobe Illustrator 16.0.0, SVG Export Plug-In . SVG Version: 6.00 Build 0)  -->
<!DOCTYPE svg PUBLIC "-//W3C//DTD SVG 1.1//EN" "http://www.w3.org/Graphics/SVG/1.1/DTD/svg11.dtd">
<svg version="1.1" id="Layer_1" xmlns="http://www.w3.org/2000/svg" xmlns:xlink="http://www.w3.org/1999/xlink" x="0px" y="0px"
	 width="148.523px" height="34.667px" viewBox="0 0 148.523 34.667" enable-background="new 0 0 148.523 34.667"
	 xml:space="preserve">
<g>
	<path fill="#FFFFFF" d="M146.017,9.254c-0.144-0.207-0.321-0.238-0.416-0.238c-0.226,0-0.383,0.164-0.419,0.206l-1.361,1.668
		c-0.125,0.169-0.285,0.548-0.085,0.903c0.994,1.762,1.52,3.785,1.52,5.85c0,6.646-5.408,12.056-12.054,12.056
		c-6.649,0-12.06-5.408-12.06-12.056c0-6.647,5.41-12.055,12.06-12.055c1.777,0,3.564,0.427,5.459,1.309
		c0.107,0.05,0.22,0.076,0.331,0.076c0.312,0,0.507-0.201,0.541-0.238l1.312-1.619c0.031-0.035,0.175-0.225,0.131-0.463
		c-0.019-0.107-0.084-0.256-0.278-0.367c-2.286-1.288-4.88-1.968-7.497-1.968c-8.452,0-15.329,6.875-15.329,15.326
		s6.877,15.328,15.329,15.328c8.448,0,15.323-6.876,15.323-15.328C148.524,14.658,147.659,11.759,146.017,9.254z"/>
	<path fill="#FFFFFF" d="M128.166,11.865c-0.282-0.265-0.768-0.245-1.03,0.034l-1.237,1.325c-0.137,0.146-0.207,0.332-0.196,0.521
		c0.006,0.19,0.088,0.376,0.237,0.517l6.854,5.956c0.136,0.127,0.312,0.197,0.497,0.197h0.044c0.2-0.014,0.387-0.108,0.51-0.258
		l13.3-15.478c0.127-0.149,0.188-0.339,0.169-0.534c-0.017-0.188-0.109-0.37-0.258-0.494l-1.393-1.167
		c-0.3-0.247-0.778-0.203-1.023,0.09l-11.578,13.434L128.166,11.865z"/>
</g>
<g>
	<g>
		<path fill="#40C9FF" d="M145.434,8.254c-0.144-0.207-0.321-0.238-0.416-0.238c-0.226,0-0.383,0.164-0.419,0.206l-1.361,1.668
			c-0.125,0.169-0.285,0.548-0.085,0.903c0.994,1.762,1.52,3.785,1.52,5.85c0,6.646-5.408,12.056-12.054,12.056
			c-6.649,0-12.06-5.408-12.06-12.056c0-6.647,5.41-12.055,12.06-12.055c1.777,0,3.564,0.427,5.459,1.309
			c0.107,0.05,0.22,0.076,0.331,0.076c0.312,0,0.507-0.201,0.541-0.238l1.312-1.619c0.031-0.035,0.175-0.225,0.131-0.463
			c-0.019-0.107-0.084-0.256-0.278-0.367c-2.286-1.288-4.88-1.968-7.497-1.968c-8.452,0-15.329,6.875-15.329,15.326
			s6.877,15.328,15.329,15.328c8.448,0,15.323-6.876,15.323-15.328C147.941,13.658,147.076,10.759,145.434,8.254z"/>
		<path fill="#40C9FF" d="M127.583,10.865c-0.282-0.265-0.768-0.245-1.03,0.034l-1.237,1.325c-0.137,0.146-0.207,0.332-0.196,0.521
			c0.006,0.19,0.088,0.376,0.237,0.517l6.854,5.956c0.136,0.127,0.312,0.197,0.497,0.197h0.044c0.2-0.014,0.387-0.108,0.51-0.258
			l13.3-15.478c0.127-0.149,0.188-0.339,0.169-0.534c-0.017-0.188-0.109-0.37-0.258-0.494l-1.393-1.167
			c-0.3-0.247-0.778-0.203-1.023,0.09l-11.578,13.434L127.583,10.865z"/>
	</g>
</g>
<g>
	<path fill="#FFFFFF" d="M9.607,20.655c-2.93-1.013-4.709-1.754-4.709-3.516c0-2.082,2.039-2.519,3.749-2.519
		c1.937,0,3.261,0.534,4.569,1.842c0.419,0.422,0.849,0.422,0.99,0.422c0.767,0,1.414-0.647,1.414-1.414
		c0-0.408-0.138-0.669-0.358-0.958l-0.013-0.018l-0.017-0.017c-1.587-1.78-3.802-2.683-6.586-2.683c-4.09,0-6.732,2.097-6.732,5.345
		c0,3.929,3.719,5.239,6.708,6.293c2.894,1.019,4.649,1.759,4.649,3.437c0,2.475-2.428,2.993-4.466,2.993
		c-2.438,0-3.998-0.63-5.377-2.176l-0.012-0.013l-0.012-0.012c-0.275-0.274-0.619-0.42-0.992-0.42C1.73,27.242,1,27.81,1,28.655
		c0,0.444,0.173,0.714,0.335,0.931c1.12,1.541,3.868,3.104,7.471,3.104c4.595,0,7.449-2.23,7.449-5.82
		C16.255,22.957,12.569,21.68,9.607,20.655z"/>
	<path fill="#FFFFFF" d="M31.995,27.798c-0.365,0-0.616,0.137-0.835,0.283l-0.016,0.012l-0.014,0.01
		c-0.965,0.743-2.287,1.76-4.735,1.76c-4.131,0-5.973-2.355-5.973-7.641c0-5.185,1.897-7.601,5.973-7.601
		c2.695,0,3.687,1.152,4.339,1.921c0.295,0.386,0.68,0.58,1.142,0.58c0.767,0,1.414-0.646,1.414-1.412
		c0-0.304-0.092-0.593-0.273-0.86l-0.055-0.074c-1.513-1.98-3.721-2.981-6.564-2.981c-7.862,0-9.036,6.535-9.036,10.427
		c0,3.908,1.174,10.468,9.036,10.468c3.517,0,5.564-1.642,6.438-2.342c0.37-0.295,0.574-0.7,0.574-1.138
		C33.407,28.444,32.76,27.798,31.995,27.798z"/>
	<path fill="#FFFFFF" d="M43.986,11.794c-2.584,0-4.276,0.923-5.337,1.88V3.598c0-0.81-0.684-1.492-1.491-1.492
		c-0.811,0-1.493,0.682-1.493,1.492v27.399c0,0.809,0.684,1.492,1.493,1.492c0.809,0,1.491-0.684,1.491-1.492V20.117
		c0-4.057,2.854-5.497,5.297-5.497c3.594,0,5.061,1.478,5.061,5.1v11.277c0,0.809,0.684,1.492,1.493,1.492
		c0.809,0,1.492-0.684,1.492-1.492V19.72C51.991,14.535,49.222,11.794,43.986,11.794z"/>
	<path fill="#FFFFFF" d="M63.166,11.794c-5.636,0-8.999,3.898-8.999,10.427c0,6.75,3.351,10.468,9.434,10.468
		c3.49,0,5.633-1.324,6.817-2.436c0.176-0.176,0.513-0.514,0.513-1.082c0-0.768-0.646-1.414-1.414-1.414
		c-0.415,0-0.693,0.189-0.845,0.291l-0.023,0.018l-0.021,0.018c-1.132,0.938-2.37,1.779-5.027,1.779
		c-4.048,0-6.142-2.156-6.386-6.585h12.462c0.943,0,1.599-0.515,1.756-1.376c0.094-0.559,0.094-1.148,0.094-1.625
		C71.526,18.287,70.924,11.794,63.166,11.794z M63.166,14.62c3.645,0,5.416,1.85,5.416,5.655c0,0.059,0,0.133-0.003,0.215H57.251
		C57.642,16.595,59.628,14.62,63.166,14.62z"/>
	<path fill="#FFFFFF" d="M88.736,2.106c-0.81,0-1.492,0.682-1.492,1.492v10.245c-1.135-1.025-2.931-2.049-5.576-2.049
		c-7.863,0-9.037,6.534-9.037,10.427c0,3.909,1.174,10.468,9.037,10.468c5.28,0,8.561-3.296,8.561-8.602V3.598
		C90.228,2.788,89.546,2.106,88.736,2.106z M81.667,29.862c-4.131,0-5.974-2.354-5.974-7.641c0-5.185,1.898-7.601,5.974-7.601
		c3.829,0,5.303,3.215,5.576,3.909v5.559C87.243,27.865,85.315,29.862,81.667,29.862z"/>
</g>
<g>
	<g>
		<path fill="#EC6E4D" d="M9.607,19.655c-2.93-1.013-4.709-1.754-4.709-3.516c0-2.082,2.039-2.519,3.749-2.519
			c1.937,0,3.261,0.534,4.569,1.842c0.419,0.422,0.849,0.422,0.99,0.422c0.767,0,1.414-0.647,1.414-1.414
			c0-0.408-0.138-0.669-0.358-0.958l-0.013-0.018l-0.017-0.017c-1.587-1.78-3.802-2.683-6.586-2.683
			c-4.09,0-6.732,2.097-6.732,5.345c0,3.929,3.719,5.239,6.708,6.293c2.894,1.019,4.649,1.759,4.649,3.437
			c0,2.475-2.428,2.993-4.466,2.993c-2.438,0-3.998-0.63-5.377-2.176l-0.012-0.013l-0.012-0.012c-0.275-0.274-0.619-0.42-0.992-0.42
			C1.73,26.242,1,26.81,1,27.655c0,0.444,0.173,0.714,0.335,0.931c1.12,1.541,3.868,3.104,7.471,3.104
			c4.595,0,7.449-2.23,7.449-5.82C16.255,21.957,12.569,20.68,9.607,19.655z"/>
		<path fill="#EC6E4D" d="M31.995,26.798c-0.365,0-0.616,0.137-0.835,0.283l-0.016,0.012l-0.014,0.01
			c-0.965,0.743-2.287,1.76-4.735,1.76c-4.131,0-5.973-2.355-5.973-7.641c0-5.185,1.897-7.601,5.973-7.601
			c2.695,0,3.687,1.152,4.339,1.921c0.295,0.386,0.68,0.58,1.142,0.58c0.767,0,1.414-0.646,1.414-1.412
			c0-0.304-0.092-0.593-0.273-0.86l-0.055-0.074c-1.513-1.98-3.721-2.981-6.564-2.981c-7.862,0-9.036,6.534-9.036,10.427
			c0,3.908,1.174,10.468,9.036,10.468c3.517,0,5.564-1.642,6.438-2.342c0.37-0.295,0.574-0.7,0.574-1.138
			C33.407,27.444,32.76,26.798,31.995,26.798z"/>
		<path fill="#EC6E4D" d="M43.986,10.794c-2.584,0-4.276,0.923-5.337,1.88V2.598c0-0.81-0.684-1.492-1.491-1.492
			c-0.811,0-1.493,0.682-1.493,1.492v27.399c0,0.809,0.684,1.492,1.493,1.492c0.809,0,1.491-0.684,1.491-1.492V19.117
			c0-4.057,2.854-5.497,5.297-5.497c3.594,0,5.061,1.478,5.061,5.1v11.277c0,0.809,0.684,1.492,1.493,1.492
			c0.809,0,1.492-0.684,1.492-1.492V18.72C51.991,13.535,49.222,10.794,43.986,10.794z"/>
		<path fill="#EC6E4D" d="M63.166,10.794c-5.636,0-8.999,3.898-8.999,10.427c0,6.75,3.351,10.468,9.434,10.468
			c3.49,0,5.633-1.324,6.817-2.436c0.176-0.176,0.513-0.514,0.513-1.082c0-0.768-0.646-1.414-1.414-1.414
			c-0.415,0-0.693,0.189-0.845,0.291l-0.023,0.018l-0.021,0.018c-1.132,0.938-2.37,1.779-5.027,1.779
			c-4.048,0-6.142-2.156-6.386-6.585h12.462c0.943,0,1.599-0.515,1.756-1.376c0.094-0.559,0.094-1.148,0.094-1.625
			C71.526,17.286,70.924,10.794,63.166,10.794z M63.166,13.62c3.645,0,5.416,1.85,5.416,5.655c0,0.059,0,0.133-0.003,0.215H57.251
			C57.642,15.595,59.628,13.62,63.166,13.62z"/>
		<path fill="#EC6E4D" d="M88.736,1.106c-0.81,0-1.492,0.682-1.492,1.492v10.245c-1.135-1.025-2.931-2.049-5.576-2.049
			c-7.863,0-9.037,6.534-9.037,10.427c0,3.909,1.174,10.468,9.037,10.468c5.28,0,8.561-3.296,8.561-8.602V2.598
			C90.228,1.788,89.546,1.106,88.736,1.106z M81.667,28.862c-4.131,0-5.974-2.354-5.974-7.641c0-5.185,1.898-7.601,5.974-7.601
			c3.829,0,5.303,3.216,5.576,3.909v5.559C87.243,26.865,85.315,28.862,81.667,28.862z"/>
	</g>
</g>
<g>
	<path fill="#FFFFFF" d="M106.201,32.689c-4.124,0-9.038-1.816-9.038-10.468c0-8.618,4.914-10.427,9.038-10.427
		c2.644,0,4.438,1.021,5.574,2.049V3.598c0-0.81,0.686-1.492,1.494-1.492c0.81,0,1.492,0.682,1.492,1.492v20.489
		C114.762,29.474,111.562,32.689,106.201,32.689z M106.201,14.62c-4.076,0-5.975,2.416-5.975,7.601c0,5.356,1.787,7.641,5.975,7.641
		c3.646,0,5.574-1.997,5.574-5.774v-5.559C111.477,17.769,110.007,14.62,106.201,14.62z"/>
</g>
<g>
	<path fill="#40C9FF" d="M106.201,31.689c-4.124,0-9.038-1.816-9.038-10.468c0-8.618,4.914-10.427,9.038-10.427
		c2.644,0,4.438,1.021,5.574,2.049V2.598c0-0.81,0.686-1.492,1.494-1.492c0.81,0,1.492,0.682,1.492,1.492v20.489
		C114.762,28.474,111.562,31.689,106.201,31.689z M106.201,13.62c-4.076,0-5.975,2.416-5.975,7.601c0,5.356,1.787,7.641,5.975,7.641
		c3.646,0,5.574-1.997,5.574-5.774v-5.559C111.477,16.769,110.007,13.62,106.201,13.62z"/>
</g>
<circle fill="#40C9FF" cx="93.813" cy="29.279" r="1.417"/>
</svg>
