<?xml version="1.0" encoding="iso-8859-1"?>
<!-- Generator: Adobe Illustrator 16.0.0, SVG Export Plug-In . SVG Version: 6.00 Build 0)  -->
<!DOCTYPE svg PUBLIC "-//W3C//DTD SVG 1.1//EN" "http://www.w3.org/Graphics/SVG/1.1/DTD/svg11.dtd">
<svg version="1.1" id="Layer_1" xmlns="http://www.w3.org/2000/svg" xmlns:xlink="http://www.w3.org/1999/xlink" x="0px" y="0px"
	 width="800px" height="200px" viewBox="0 0 800 200" style="enable-background:new 0 0 800 200;" xml:space="preserve">
<g>
	<g>
		<path style="fill:#F28955;" d="M51.016,121.012c-15.639-5.406-25.135-9.369-25.135-18.772c0-11.109,10.883-13.44,20.012-13.44
			c10.335,0,17.401,2.848,24.385,9.827c2.241,2.254,4.535,2.254,5.288,2.254c4.09,0,7.543-3.453,7.543-7.542
			c0-2.178-0.729-3.573-1.909-5.12l-0.071-0.096l-0.083-0.089c-8.468-9.502-20.294-14.32-35.152-14.32
			c-21.832,0-35.939,11.196-35.939,28.526c0,20.974,19.852,27.974,35.805,33.593c15.445,5.443,24.817,9.393,24.817,18.336
			c0,13.211-12.961,15.984-23.831,15.984c-13.021,0-21.343-3.363-28.71-11.611l-0.062-0.068l-0.062-0.061
			c-1.47-1.471-3.303-2.248-5.298-2.248c-3.641,0-7.54,3.031-7.54,7.543c0,2.371,0.926,3.807,1.793,4.967
			c5.978,8.229,20.645,16.564,39.878,16.564c24.522,0,39.756-11.906,39.756-31.07C86.5,133.293,66.824,126.482,51.016,121.012z"/>
		<path style="fill:#F28955;" d="M170.51,159.131c-1.943,0-3.29,0.732-4.455,1.52l-0.08,0.055l-0.073,0.057
			c-5.154,3.963-12.208,9.391-25.273,9.391c-22.05,0-31.884-12.576-31.884-40.783c0-27.677,10.132-40.57,31.884-40.57
			c14.382,0,19.667,6.146,23.157,10.255c1.577,2.054,3.629,3.097,6.092,3.097c4.086,0,7.539-3.453,7.539-7.54
			c0-1.623-0.491-3.167-1.46-4.594l-0.292-0.396c-8.078-10.565-19.861-15.907-35.036-15.907c-41.97,0-48.236,34.869-48.236,55.656
			c0,20.867,6.267,55.869,48.236,55.869c18.764,0,29.694-8.762,34.359-12.5c1.974-1.574,3.062-3.73,3.062-6.066
			C178.05,162.584,174.597,159.131,170.51,159.131z"/>
		<path style="fill:#F28955;" d="M234.512,73.713c-13.791,0-22.828,4.93-28.489,10.031V29.963c0-4.316-3.646-7.964-7.964-7.964
			s-7.964,3.647-7.964,7.964v146.246c0,4.318,3.646,7.965,7.964,7.965s7.964-3.646,7.964-7.965v-58.076
			c0-21.649,15.233-29.334,28.277-29.334c19.181,0,27.007,7.884,27.007,27.217v60.193c0,4.318,3.649,7.965,7.967,7.965
			s7.968-3.646,7.968-7.965v-60.193C277.241,88.341,262.466,73.713,234.512,73.713z"/>
		<path style="fill:#F28955;" d="M336.882,73.713c-30.076,0-48.03,20.806-48.03,55.656c0,36.025,17.884,55.869,50.358,55.869
			c18.624,0,30.066-7.07,36.385-13.002c0.938-0.938,2.74-2.738,2.74-5.773c0-4.09-3.456-7.547-7.546-7.547
			c-2.217,0-3.708,1.016-4.511,1.559l-0.123,0.084l-0.114,0.096c-6.045,5.006-12.649,9.498-26.831,9.498
			c-21.614,0-32.788-11.506-34.089-35.15h66.52c5.03,0,8.533-2.746,9.372-7.342c0.499-2.982,0.499-6.141,0.499-8.678
			C381.512,108.361,378.292,73.713,336.882,73.713z M336.882,88.799c19.455,0,28.91,9.874,28.91,30.184
			c0,0.311-0.006,0.707-0.019,1.15h-60.456C307.399,99.337,318.005,88.799,336.882,88.799z"/>
		<path style="fill:#F28955;" d="M473.368,21.999c-4.316,0-7.967,3.647-7.967,7.964v54.685c-6.055-5.47-15.643-10.935-29.762-10.935
			c-41.969,0-48.236,34.869-48.236,55.656c0,20.867,6.267,55.869,48.236,55.869c28.184,0,45.693-17.592,45.693-45.91V29.963
			C481.332,25.646,477.686,21.999,473.368,21.999z M435.639,170.152c-22.051,0-31.885-12.576-31.885-40.783
			c0-27.677,10.133-40.57,31.885-40.57c20.436,0,28.305,17.164,29.762,20.863v29.666
			C465.401,159.494,455.11,170.152,435.639,170.152z"/>
	</g>
</g>
<g>
	<g>
		<path style="fill:#29ABE2;" d="M780.934,58.213c-0.562-0.818-1.221-0.987-1.674-0.987c-0.949,0-1.645,0.75-1.74,0.861l-7.4,9.083
			c-0.064,0.086-1.574,2.122-0.434,4.148c5.492,9.741,8.395,20.906,8.395,32.292c0,36.687-29.846,66.536-66.531,66.536
			c-36.697,0-66.551-29.85-66.551-66.536c0-36.689,29.854-66.538,66.551-66.538c9.814,0,19.664,2.361,30.111,7.22
			c0.492,0.231,0.996,0.348,1.498,0.348c1.404,0,2.277-0.897,2.408-1.039l7.174-8.844c0.076-0.095,0.752-0.94,0.568-1.952
			c-0.08-0.431-0.348-1.043-1.176-1.51c-12.385-6.968-26.418-10.651-40.584-10.651c-45.752,0-82.975,37.219-82.975,82.967
			c0,45.749,37.223,82.972,82.975,82.972c45.738,0,82.951-37.223,82.951-82.972C794.5,87.431,789.811,71.736,780.934,58.213z"/>
		<path style="fill:#29ABE2;" d="M683.576,72.579c-1.262-1.178-3.43-1.11-4.619,0.15l-6.76,7.235
			c-0.605,0.658-0.916,1.491-0.873,2.334c0.025,0.852,0.4,1.682,1.053,2.3l37.438,32.542c0.607,0.566,1.4,0.877,2.225,0.877
			l0.197-0.008c0.883-0.051,1.719-0.473,2.295-1.148l72.607-84.5c0.562-0.667,0.826-1.513,0.75-2.373
			c-0.074-0.867-0.482-1.658-1.158-2.224l-7.605-6.358c-1.33-1.116-3.484-0.92-4.584,0.394l-63.686,73.89L683.576,72.579z"/>
	</g>
</g>
<g>
	<path style="fill:#29ABE2;" d="M566.586,185.238c-22.006,0-48.238-9.693-48.238-55.869c0-46.001,26.232-55.656,48.238-55.656
		c14.115,0,23.695,5.455,29.758,10.932V29.963c0-4.316,3.648-7.964,7.973-7.964c4.314,0,7.961,3.647,7.961,7.964v109.365
		C612.277,168.076,595.195,185.238,566.586,185.238z M566.586,88.799c-21.758,0-31.889,12.89-31.889,40.57
		c0,28.584,9.537,40.783,31.889,40.783c19.469,0,29.758-10.658,29.758-30.824v-29.666C594.744,105.6,586.9,88.799,566.586,88.799z"
		/>
</g>
<g>
	<circle style="fill:#29ABE2;" cx="500.463" cy="172.381" r="7.564"/>
</g>
</svg>
