<?xml version="1.0" encoding="iso-8859-1"?>
<!-- Generator: Adobe Illustrator 16.0.0, SVG Export Plug-In . SVG Version: 6.00 Build 0)  -->
<!DOCTYPE svg PUBLIC "-//W3C//DTD SVG 1.1//EN" "http://www.w3.org/Graphics/SVG/1.1/DTD/svg11.dtd">
<svg version="1.1" id="Layer_1" xmlns="http://www.w3.org/2000/svg" xmlns:xlink="http://www.w3.org/1999/xlink" x="0px" y="0px"
	 width="45px" height="38px" viewBox="0 0 45 38" style="enable-background:new 0 0 45 38;" xml:space="preserve">
<g>
	<path style="fill-rule:evenodd;clip-rule:evenodd;fill:#F6FAFA;" d="M14.457,18.647c-0.324,0.85-0.66,1.709-1.025,2.655
		c-0.69-0.887-4.804-11.831-6.609-16.427C6.45,3.929,6.056,2.99,5.7,2.037C5.187,0.66,3.905-0.005,2.634,0.472
		C1.296,0.974,0.655,2.341,1.187,3.669c1.025,2.563,2.094,5.109,3.121,7.672c1.141,2.846,2.418,5.635,3.468,8.521
		c0.855,2.353,1.896,4.639,2.868,6.95c0.103,0.245,0.159,0.49,0.052,0.713c-0.563,1.171-0.954,2.426-1.67,3.525
		c-0.652,1-1.512,1.67-2.736,1.846c-0.796,0.115-1.586,0.028-2.378,0.047c-1.082,0.025-1.909,0.786-1.982,1.832
		c-0.071,1.011,0.617,1.87,1.642,2.073c0.935,0.185,1.878,0.163,2.82,0.127c2.665-0.103,4.779-1.206,6.191-3.509
		c1.371-2.234,2.116-4.753,3.176-7.128c0.784-1.757,1.46-3.563,2.179-5.349c0.771-1.911,1.544-3.819,2.299-5.736
		c0.681-1.729,1.275-3.495,2.021-5.195c0.941-2.144,1.853-4.299,2.691-6.482c0.4-1.042-0.11-2.166-1.07-2.653
		c-1.102-0.56-2.036-0.315-2.812,0.627c-0.348,0.421-0.51,0.889-0.691,1.374c-1.914,5.105-3.837,10.208-5.761,15.31
		C14.562,18.371,14.51,18.509,14.457,18.647L14.457,18.647z"/>
	<path style="fill-rule:evenodd;clip-rule:evenodd;fill:#F6FAFA;" d="M39.304,31.387c-0.058,0.675-0.319,1.395-1.112,1.793
		c-0.708,0.355-1.427,0.392-2.118-0.059c-3.033-1.98-5.974-4.087-8.709-6.467c-0.428-0.372-0.808-0.803-1.176-1.235
		c-0.131-0.153-0.278-0.375-0.128-0.61c0.126-0.196,0.343-0.183,0.538-0.175c0.622,0.024,1.23,0.155,1.814,0.347
		c3.476,1.147,6.743,2.759,9.928,4.544C39.037,29.915,39.298,30.46,39.304,31.387z"/>
	<path style="fill-rule:evenodd;clip-rule:evenodd;fill:#F6FAFA;" d="M37.191,4.875c1,0.038,1.769,0.626,2.056,1.526
		c0.278,0.874-0.039,1.931-0.827,2.428c-1.617,1.02-3.361,1.807-5.096,2.599c-1.938,0.884-3.883,1.768-5.989,2.204
		c-0.459,0.095-1.073,0.305-1.291-0.169c-0.208-0.453,0.271-0.854,0.642-1.202c2.801-2.621,5.958-4.767,9.124-6.903
		C36.247,5.062,36.699,4.807,37.191,4.875z"/>
	<path style="fill-rule:evenodd;clip-rule:evenodd;fill:#F6FAFA;" d="M40.898,21.19c-3.389-0.182-6.794-0.201-10.113-1.027
		c-0.548-0.136-1.408-0.159-1.385-0.857c0.02-0.606,0.87-0.634,1.392-0.768c3.3-0.847,6.675-1.224,10.058-1.541
		c0.37-0.035,0.739-0.081,1.11-0.11c1.226-0.096,2.236,0.786,2.305,2.005c0.069,1.255-0.857,2.271-2.101,2.297
		C41.742,21.198,41.32,21.19,40.898,21.19z"/>
</g>
</svg>
