<?xml version="1.0" encoding="iso-8859-1"?>
<!-- Generator: Adobe Illustrator 16.0.0, SVG Export Plug-In . SVG Version: 6.00 Build 0)  -->
<!DOCTYPE svg PUBLIC "-//W3C//DTD SVG 1.1//EN" "http://www.w3.org/Graphics/SVG/1.1/DTD/svg11.dtd">
<svg version="1.1" xmlns="http://www.w3.org/2000/svg" xmlns:xlink="http://www.w3.org/1999/xlink" x="0px" y="0px" width="652px"
	 height="320px" viewBox="0 0 652 320" style="enable-background:new 0 0 652 320;" xml:space="preserve">
<g id="Background">
</g>
<g id="Objects">
	<rect x="12" y="92" style="opacity:0.5;fill:#FFFFFF;" width="60" height="61"/>
	<rect x="82" y="92" style="opacity:0.5;fill:#FFFFFF;" width="60" height="61"/>
	<rect x="152" y="92" style="opacity:0.5;fill:#FFFFFF;" width="60" height="62"/>
	<rect x="11" y="163" style="opacity:0.5;fill:#FFFFFF;" width="60" height="62"/>
	<rect x="81" y="166" style="opacity:0.5;fill:#FFFFFF;" width="62" height="62"/>
	<rect x="153" y="164" style="opacity:0.5;fill:#FFFFFF;" width="61" height="62"/>
	<g>
		<g>
			<path style="fill:#EC6E4D;" d="M490.044,307.739c-49.79-5.127-100.217-14.496-146.319-34.625
				c-31.073-13.567-61.556-33.139-80.042-62.29c-32.361-51.031-10.708-122.655,35.765-157.436
				c24.911-18.644,55.317-29.129,85.57-35.141c33.472-6.651,68.154-7.563,102.03-3.783c32.054,3.576,64.255,11.753,92.935,26.771
				c23.998,12.566,46.271,31.144,56.961,56.638c12.025,28.679,7.292,63.419-7.304,90.225
				c-16.221,29.792-44.757,50.856-74.399,66.029c-31.997,16.378-67.083,26.616-102.301,33.273
				c-29.65,5.604-60.201,8.82-90.401,7.549c-0.933-0.039-1.864-0.089-2.796-0.139c-2.396-0.131-2.383,3.586,0,3.715
				c29.394,1.596,59.117-1.414,88.06-6.433c34.95-6.06,69.526-15.897,101.677-31.012c29.945-14.076,58.454-33.713,77.369-61.326
				c17.557-25.63,24.987-59.245,17.93-89.716c-13.339-57.589-78.352-84.605-130.354-95.052
				c-33.134-6.656-67.409-8.044-101.013-4.672c-31.697,3.182-63.395,10.824-91.949,25.203
				c-25.425,12.803-46.976,31.53-60.075,57.033c-13.648,26.573-21.035,56.909-14.742,86.582
				c6.178,29.126,25.576,52.925,48.823,70.599c32.596,24.781,72.847,38.726,112.249,48.2c27.06,6.507,54.658,10.674,82.327,13.522
				C492.427,311.7,492.403,307.981,490.044,307.739L490.044,307.739z"/>
		</g>
	</g>
	<g>
		<g>
			<path style="fill:#7AC943;" d="M93.244,121.235c3.394,3.351,7.231,6.349,9.789,10.436c1.023,1.636,3.619,0.131,2.59-1.514
				c-2.704-4.322-6.67-7.501-10.258-11.043C93.988,117.754,91.865,119.875,93.244,121.235L93.244,121.235z"/>
		</g>
	</g>
	<g>
		<g>
			<path style="fill:#7AC943;" d="M106.333,133.807c7.403-6.614,14.576-13.183,23.781-17.207c1.769-0.773,0.24-3.357-1.514-2.591
				c-9.444,4.129-16.794,10.891-24.389,17.676C102.767,132.977,104.896,135.091,106.333,133.807L106.333,133.807z"/>
		</g>
	</g>
	<g>
		<g>
			<g>
				<path style="fill:#30AADE;" d="M80.301,92.475c2.516,19.501,0.854,39.262,0.807,58.851c-0.005,1.935,2.995,1.935,3,0
					c0.047-19.588,1.709-39.349-0.807-58.851C83.057,90.583,80.054,90.56,80.301,92.475L80.301,92.475z"/>
			</g>
		</g>
		<g>
			<g>
				<path style="fill:#30AADE;" d="M143.131,151.724c3.857-19.646,0.772-39.479,0.666-59.283c-0.011-1.934-3.011-1.935-3,0
					c0.105,19.51,3.241,39.132-0.559,58.485C139.867,152.816,142.759,153.621,143.131,151.724L143.131,151.724z"/>
			</g>
		</g>
		<g>
			<g>
				<path style="fill:#30AADE;" d="M142.297,89.328c-20.438,0.049-40.887,1.531-61.304,0c-1.931-0.145-1.917,2.856,0,3
					c20.417,1.531,40.865,0.049,61.304,0C144.231,92.323,144.231,89.323,142.297,89.328L142.297,89.328z"/>
			</g>
		</g>
		<g>
			<g>
				<path style="fill:#30AADE;" d="M81.881,155.487c20.41,0,40.821,0,61.231,0c1.935,0,1.935-3,0-3c-20.41,0-40.821,0-61.231,0
					C79.946,152.487,79.946,155.487,81.881,155.487L81.881,155.487z"/>
			</g>
		</g>
	</g>
	<g>
		<g>
			<path style="fill:#7AC943;" d="M24.913,119.551c3.628,3.679,6.832,7.71,9.527,12.12c1.007,1.648,3.602,0.142,2.59-1.514
				c-2.823-4.62-6.195-8.874-9.996-12.728C25.674,116.051,23.554,118.173,24.913,119.551L24.913,119.551z"/>
		</g>
	</g>
	<g>
		<g>
			<path style="fill:#7AC943;" d="M35.908,131.088c7.916-7.071,15.585-14.108,25.432-18.401c1.77-0.772,0.241-3.356-1.514-2.591
				c-10.086,4.398-17.934,11.63-26.039,18.871C32.342,130.258,34.471,132.372,35.908,131.088L35.908,131.088z"/>
		</g>
	</g>
	<g>
		<g>
			<g>
				<path style="fill:#30AADE;" d="M11.082,96.475c-0.053,18.288,0.776,36.563,0.807,54.851c0.003,1.935,3.003,1.935,3,0
					c-0.03-18.287-0.859-36.563-0.807-54.851C14.088,94.54,11.088,94.54,11.082,96.475L11.082,96.475z"/>
			</g>
		</g>
		<g>
			<g>
				<path style="fill:#30AADE;" d="M72.912,151.724c3.878-19.598,1.741-39.48,1.666-59.283c-0.008-1.934-3.008-1.935-3,0
					c0.074,19.515,2.264,39.171-1.559,58.485C69.646,152.816,72.537,153.621,72.912,151.724L72.912,151.724z"/>
			</g>
		</g>
		<g>
			<g>
				<path style="fill:#30AADE;" d="M73.078,89.328c-20.438,0.049-40.886,1.531-61.303,0c-1.931-0.145-1.917,2.856,0,3
					c20.417,1.531,40.865,0.049,61.303,0C75.013,92.323,75.013,89.323,73.078,89.328L73.078,89.328z"/>
			</g>
		</g>
		<g>
			<g>
				<path style="fill:#30AADE;" d="M12.662,155.487c20.411,0,40.821,0,61.232,0c1.935,0,1.935-3,0-3c-20.411,0-40.821,0-61.232,0
					C10.728,152.487,10.728,155.487,12.662,155.487L12.662,155.487z"/>
			</g>
		</g>
	</g>
	<g>
		<g>
			<path style="fill:#7AC943;" d="M163.244,121.235c3.394,3.351,7.231,6.349,9.789,10.436c1.023,1.636,3.619,0.131,2.59-1.514
				c-2.704-4.322-6.67-7.501-10.258-11.043C163.988,117.754,161.865,119.875,163.244,121.235L163.244,121.235z"/>
		</g>
	</g>
	<g>
		<g>
			<path style="fill:#7AC943;" d="M176.333,133.807c7.403-6.614,14.576-13.183,23.781-17.207c1.769-0.773,0.24-3.357-1.514-2.591
				c-9.444,4.129-16.794,10.891-24.389,17.676C172.767,132.977,174.896,135.091,176.333,133.807L176.333,133.807z"/>
		</g>
	</g>
	<g>
		<g>
			<g>
				<path style="fill:#30AADE;" d="M150.301,96.475c2.34,18.21,0.859,36.562,0.807,54.851c-0.006,1.935,2.994,1.935,3,0
					c0.053-18.288,1.533-36.64-0.807-54.851C153.058,94.583,150.055,94.56,150.301,96.475L150.301,96.475z"/>
			</g>
		</g>
		<g>
			<g>
				<path style="fill:#30AADE;" d="M215,152c-0.943-19.84-1.195-39.699-1.203-59.559c-0.001-1.935-3.001-1.935-3,0
					c0.008,19.86,0.26,39.719,1.203,59.559C212.092,153.926,215.092,153.935,215,152L215,152z"/>
			</g>
		</g>
		<g>
			<g>
				<path style="fill:#30AADE;" d="M212.297,89.328c-20.462,0.111-40.828,3.474-61.304,2c-1.932-0.139-1.918,2.862,0,3
					c20.476,1.474,40.842-1.889,61.304-2C214.23,92.317,214.232,89.317,212.297,89.328L212.297,89.328z"/>
			</g>
		</g>
		<g>
			<g>
				<path style="fill:#30AADE;" d="M151.881,155.487c20.41,0,40.821,0,61.231,0c1.935,0,1.935-3,0-3c-20.41,0-40.821,0-61.231,0
					C149.946,152.487,149.946,155.487,151.881,155.487L151.881,155.487z"/>
			</g>
		</g>
	</g>
	<g>
		<g>
			<path style="fill:#7AC943;" d="M165.02,191.432c3.627,3.679,6.831,7.71,9.526,12.12c1.007,1.647,3.602,0.142,2.59-1.514
				c-2.823-4.62-6.194-8.874-9.995-12.728C165.781,187.932,163.66,190.054,165.02,191.432L165.02,191.432z"/>
		</g>
	</g>
	<g>
		<g>
			<path style="fill:#7AC943;" d="M177.785,205.021c6.59-8.299,12.914-16.617,21.89-22.506c1.61-1.056,0.108-3.655-1.514-2.59
				c-9.202,6.036-15.734,14.458-22.497,22.975C174.475,204.397,176.582,206.535,177.785,205.021L177.785,205.021z"/>
		</g>
	</g>
	<g>
		<g>
			<g>
				<path style="fill:#30AADE;" d="M151.188,164.355c2.516,19.502,0.854,39.263,0.807,58.851c-0.005,1.935,2.995,1.935,3,0
					c0.047-19.588,1.709-39.349-0.807-58.851C153.943,162.464,150.94,162.44,151.188,164.355L151.188,164.355z"/>
			</g>
		</g>
		<g>
			<g>
				<path style="fill:#30AADE;" d="M216.072,223.206c-1.439-19.604-1.393-39.241-1.388-58.885c0.001-1.935-2.999-1.935-3,0
					c-0.005,19.644-0.052,39.281,1.388,58.885C213.213,225.123,216.214,225.137,216.072,223.206L216.072,223.206z"/>
			</g>
		</g>
		<g>
			<g>
				<path style="fill:#30AADE;" d="M213.185,161.209c-20.462,0.111-40.828,3.473-61.304,2c-1.932-0.139-1.918,2.862,0,3
					c20.476,1.473,40.842-1.889,61.304-2C215.119,164.198,215.119,161.198,213.185,161.209L213.185,161.209z"/>
			</g>
		</g>
		<g>
			<g>
				<path style="fill:#30AADE;" d="M152.769,227.368c20.41,0,40.821,0,61.231,0c1.935,0,1.935-3,0-3c-20.41,0-40.821,0-61.231,0
					C150.834,224.368,150.834,227.368,152.769,227.368L152.769,227.368z"/>
			</g>
		</g>
	</g>
	<g>
		<g>
			<g>
				<path style="fill:#30AADE;" d="M9.307,166.355c0.721,18.939,0.803,37.899,0.807,56.851c0,1.935,3,1.935,3,0
					c-0.004-18.951-0.086-37.911-0.807-56.851C12.233,164.427,9.232,164.42,9.307,166.355L9.307,166.355z"/>
			</g>
		</g>
		<g>
			<g>
				<path style="fill:#30AADE;" d="M72.191,223.206c0.322-19.627,0.603-39.255,0.612-58.885c0.001-1.935-2.999-1.935-3,0
					c-0.01,19.63-0.29,39.258-0.612,58.885C69.16,225.142,72.16,225.139,72.191,223.206L72.191,223.206z"/>
			</g>
		</g>
		<g>
			<g>
				<path style="fill:#30AADE;" d="M71.304,161.209c-20.437-0.006-40.894-0.217-61.304,1c-1.922,0.115-1.934,3.115,0,3
					c20.41-1.217,40.867-1.006,61.304-1C73.238,164.209,73.238,161.209,71.304,161.209L71.304,161.209z"/>
			</g>
		</g>
		<g>
			<g>
				<path style="fill:#30AADE;" d="M10.888,227.368c19.744,0,39.487,0,59.231,0c1.935,0,1.935-3,0-3c-19.744,0-39.487,0-59.231,0
					C8.953,224.368,8.953,227.368,10.888,227.368L10.888,227.368z"/>
			</g>
		</g>
	</g>
	<g>
		<g>
			<g>
				<path style="fill:#EC6E4D;" d="M28.218,209.476c9.558-8.566,18.428-17.864,27.806-26.622c1.417-1.323-0.709-3.439-2.121-2.121
					c-9.379,8.758-18.248,18.056-27.806,26.622C24.653,208.648,26.782,210.763,28.218,209.476L28.218,209.476z"/>
			</g>
		</g>
		<g>
			<g>
				<path style="fill:#EC6E4D;" d="M26.688,182.262c7.966,9.19,15.552,18.712,23.96,27.51c1.339,1.401,3.457-0.724,2.121-2.121
					c-8.408-8.798-15.994-18.32-23.96-27.51C27.54,178.676,25.428,180.808,26.688,182.262L26.688,182.262z"/>
			</g>
		</g>
	</g>
	<g>
		<g>
			<g>
				<path style="fill:#30AADE;" d="M79.307,168.355c-0.83,18.945,0.758,37.903,0.807,56.851c0.005,1.935,3.005,1.935,3,0
					c-0.049-18.947-1.637-37.905-0.807-56.851C82.392,166.42,79.391,166.429,79.307,168.355L79.307,168.355z"/>
			</g>
		</g>
		<g>
			<g>
				<path style="fill:#30AADE;" d="M143.138,224.604c3.878-19.598,1.741-39.48,1.666-59.283c-0.007-1.934-3.007-1.935-3,0
					c0.074,19.516,2.264,39.172-1.559,58.486C139.871,225.696,142.763,226.502,143.138,224.604L143.138,224.604z"/>
			</g>
		</g>
		<g>
			<g>
				<path style="fill:#30AADE;" d="M141.304,163.209c-20.438,0.049-40.887,1.53-61.304,0c-1.931-0.145-1.917,2.856,0,3
					c20.417,1.53,40.865,0.049,61.304,0C143.238,166.204,143.238,163.204,141.304,163.209L141.304,163.209z"/>
			</g>
		</g>
		<g>
			<g>
				<path style="fill:#30AADE;" d="M81.888,229.368c20.077,0,40.154,0,60.231,0c1.935,0,1.935-3,0-3c-20.077,0-40.154,0-60.231,0
					C79.953,226.368,79.953,229.368,81.888,229.368L81.888,229.368z"/>
			</g>
		</g>
	</g>
	<g>
		<g>
			<g>
				<path style="fill:#EC6E4D;" d="M126.024,209.354c-9.558-8.566-18.427-17.864-27.806-26.622
					c-1.412-1.318-3.538,0.798-2.121,2.121c9.378,8.758,18.248,18.056,27.806,26.622
					C125.339,212.763,127.468,210.648,126.024,209.354L126.024,209.354z"/>
			</g>
		</g>
		<g>
			<g>
				<path style="fill:#EC6E4D;" d="M123.312,182.141c-7.966,9.189-15.552,18.712-23.96,27.51c-1.336,1.397,0.782,3.522,2.121,2.121
					c8.408-8.798,15.994-18.319,23.96-27.51C126.693,182.808,124.581,180.676,123.312,182.141L123.312,182.141z"/>
			</g>
		</g>
	</g>
	<g>
		<g>
			<g>
				<path style="fill:#30AADE;" d="M317.33,86.41c4.141,46.487,2.146,93.183,4.302,139.753c0.089,1.926,3.09,1.935,3,0
					c-2.155-46.57-0.161-93.266-4.302-139.753C320.16,84.499,317.158,84.482,317.33,86.41L317.33,86.41z"/>
			</g>
		</g>
		<g>
			<g>
				<path style="fill:#30AADE;" d="M505.313,163.997c0.075,20.684,0.479,41.516-0.929,62.166c0.367-0.482,0.734-0.964,1.102-1.446
					c-59.75,13.518-121.9,2.201-182.354,2.096c-1.935-0.003-1.935,2.997,0,3c60.753,0.105,123.103,11.382,183.151-2.203
					c0.68-0.153,1.058-0.799,1.102-1.446c1.408-20.65,1.004-41.482,0.929-62.166C508.307,162.063,505.307,162.062,505.313,163.997
					L505.313,163.997z"/>
			</g>
		</g>
		<g>
			<g>
				<path style="fill:#30AADE;" d="M318.83,87.91c53.275-0.03,106.578-1.774,159.84-2.877c1.932-0.04,1.936-3.04,0-3
					c-53.262,1.103-106.564,2.847-159.84,2.877C316.896,84.911,316.896,87.911,318.83,87.91L318.83,87.91z"/>
			</g>
		</g>
		<g>
			<g>
				<path style="fill:#30AADE;" d="M320.981,126.609c50.979-0.019,101.924-2.131,152.903-2.149c1.935,0,1.935-3,0-3
					c-50.979,0.019-101.924,2.131-152.903,2.149C319.047,123.61,319.047,126.61,320.981,126.609L320.981,126.609z"/>
			</g>
		</g>
		<g>
			<g>
				<path style="fill:#30AADE;" d="M370.415,173.472c6.328-7.367,12.788-15.124,21.197-20.19c-0.734-0.299-1.469-0.598-2.203-0.896
					c3.038,16.215,1.099,32.691,1.021,49.052c-0.009,1.935,2.991,1.935,3,0c0.078-16.651,1.964-33.348-1.129-49.85
					c-0.179-0.957-1.424-1.366-2.203-0.896c-8.647,5.209-15.298,13.084-21.805,20.66
					C367.041,172.81,369.152,174.942,370.415,173.472L370.415,173.472z"/>
			</g>
		</g>
		<g>
			<g>
				<path style="fill:#30AADE;" d="M414.728,159.192c3.696-5.608,9.767-9.642,16.327-6.073c6.035,3.283,6.338,11.271,4.76,17.075
					c-2.902,10.667-12.871,17.733-14.208,29.092c-0.089,0.753,0.752,1.582,1.5,1.5c11.342-1.24,22.562-4.018,34.004-2.203
					c1.892,0.3,2.704-2.591,0.797-2.893c-11.781-1.868-23.124,0.818-34.801,2.096c0.5,0.5,1,1,1.5,1.5
					c1.753-14.895,18.845-23.999,14.312-40.472c-1.45-5.27-6.038-9.201-11.37-10.008c-6.64-1.005-12.02,3.727-15.41,8.873
					C411.069,159.299,413.668,160.8,414.728,159.192L414.728,159.192z"/>
			</g>
		</g>
	</g>
	<g>
		<g>
			<path style="fill:#30AADE;" d="M520.712,164.501c-16.942-5.429-31.741-16.325-38.581-33.161c-5.715-14.063-4.729-30,0.8-43.935
				c5.778-14.565,17.249-26.511,31.509-32.929c18.428-8.295,40.484-5.604,57.461,4.75c24.605,15.005,35.651,46.841,22.931,73.233
				c-11.668,24.208-41.87,38.983-68.076,33.625c-1.888-0.386-2.692,2.505-0.797,2.893c20.464,4.184,41.535-3.01,57.074-16.508
				c16.087-13.974,23.015-35.227,18.986-56.069c-7.762-40.165-56.146-60.679-91.624-43.326
				c-21.632,10.581-35.057,34.29-35.12,58.054c-0.073,27.553,19.358,48.165,44.641,56.266
				C521.763,167.986,522.547,165.089,520.712,164.501L520.712,164.501z"/>
		</g>
	</g>
	<g>
		<g>
			<path style="fill:#30AADE;" d="M508.972,87.476c9.54,8.246,18.452,17.157,26.697,26.697c1.267,1.466,3.38-0.666,2.121-2.121
				c-8.245-9.541-17.156-18.452-26.697-26.697C509.637,84.096,507.506,86.208,508.972,87.476L508.972,87.476z"/>
		</g>
	</g>
	<g>
		<g>
			<path style="fill:#30AADE;" d="M538.564,113.112c1.389-15.961,1.334-32.045,1.335-48.055c0-1.935-3-1.935-3,0
				c-0.001,16.01,0.054,32.093-1.335,48.055C535.396,115.041,538.398,115.024,538.564,113.112L538.564,113.112z"/>
		</g>
	</g>
</g>
</svg>
