<?xml version="1.0" encoding="iso-8859-1"?>
<!-- Generator: Adobe Illustrator 16.0.0, SVG Export Plug-In . SVG Version: 6.00 Build 0)  -->
<!DOCTYPE svg PUBLIC "-//W3C//DTD SVG 1.1//EN" "http://www.w3.org/Graphics/SVG/1.1/DTD/svg11.dtd">
<svg version="1.1" xmlns="http://www.w3.org/2000/svg" xmlns:xlink="http://www.w3.org/1999/xlink" x="0px" y="0px" width="652px"
	 height="320px" viewBox="0 0 652 320" style="enable-background:new 0 0 652 320;" xml:space="preserve">
<g id="Background">
</g>
<g id="Objects">
	<g>
		<g>
			<path style="fill:#E59788;" d="M570.089,137.536c0.125-11.184,2.955-22.608,1.067-33.761c-0.718-4.242-1.937-8.456-5.166-11.458
				c-3.567-3.316-8.636-4.903-12.986-6.876c-22.395-10.155-3.903-37.033-3.367-54.091c0.52-16.526-15.961-28.847-31.605-26.324
				c-16.944,2.733-23.158,20.413-20.287,35.474c1.571,8.24,5.907,14.705,10.049,21.791c2.158,3.692,3.074,7.348,1.878,11.531
				c-1.928,6.744-7.448,9.838-13.6,11.878c-16.491,5.472-18.957,25.472-20.115,40.321c-0.15,1.93,2.851,1.916,3,0
				c1.02-13.069,2.751-24.854,12.229-34.641c3.595-3.712,10.485-3.867,14.783-6.907c3.633-2.57,6.76-8.151,7.211-12.586
				c1.001-9.855-8.061-17.969-11.1-26.811c-3.315-9.646-3.372-20.973,3.213-29.263c12.311-15.498,37.656-7.091,41.091,11.503
				c3.437,18.599-15.204,36.362-3.553,54.43c5.811,9.01,20.222,7.048,24.262,17.866c4.373,11.712,0.133,25.828-0.003,37.925
				C567.067,139.472,570.067,139.469,570.089,137.536L570.089,137.536z"/>
		</g>
	</g>
	<g>
		<g>
			<g>
				<path style="fill:#E59788;" d="M561.073,221.841c-1.39-8.849-6.052-16.87-6.982-25.824
					c-1.471-14.144,12.616-19.227,24.06-21.708c0.494-0.107,0.927-0.565,1.048-1.047c0.364-1.446,2.219-5.35,1.255-6.75
					c-3.071-4.465-5.735-9.137-7.65-14.218c-2.704-7.177-3.395-15-1.149-22.38c3.513-11.549,15.05-19.884,26.978-20.344
					c13.75-0.531,19.684,11.083,18.64,23.414c-0.531,6.275-4.641,11.302-7.63,16.598c-2.643,4.682-2.867,8.55-0.828,13.505
					c2.005,4.87,5.76,8.904,9.639,12.352c4.764,4.234,10.773,6.535,15.593,10.607c13.327,11.26,8.854,32.298,1.223,45.358
					c-0.979,1.674,1.614,3.183,2.59,1.514c9.615-16.452,12.295-40.804-6.135-52.227c-5.683-3.522-11.005-6.714-15.568-11.731
					c-2.438-2.681-4.268-5.85-5.421-9.274c-1.361-4.04,0.91-7.668,2.902-11.006c4.857-8.141,7.779-15.025,6.41-24.611
					c-1.528-10.711-10.249-17.405-20.792-17.507c-10.955-0.106-21.446,6.451-27.249,15.509c-5,7.804-5.621,17.371-3.562,26.212
					c1.366,5.868,4.12,11.391,7.261,16.49c0.499,0.811,1.985,2.194,1.832,2.804c-0.351,1.394-0.7,2.788-1.052,4.182
					c-0.026,0.106-8.921,2.37-10.573,3.026c-9.362,3.718-15.601,10.869-14.818,21.232c0.698,9.255,5.661,17.523,7.09,26.622
					C558.48,224.546,561.37,223.733,561.073,221.841L561.073,221.841z"/>
			</g>
		</g>
	</g>
	<g>
		<g>
			<path style="fill:#30AADE;" d="M195.277,209.559c-16.586-3.718-22.35-21.606-24.863-36.437
				c-2.863-16.897-2.127-34.532-0.22-51.494c1.798-15.987,5.929-31.079,13.532-45.354c6.519-12.238,22.218-35.112,37.83-21.559
				c12.578,10.92,16.204,31.248,17.259,46.982c1.179,17.596-0.995,35.431-4.957,52.564c-3.394,14.672-8.285,29.553-16.357,42.361
				c-2.657,4.217-5.91,8.408-10.205,11.058c-3.671,2.265-8.288,1.699-12.417,1.824c-1.93,0.059-1.936,3.059,0,3
				c4.861-0.147,9.582,0.248,13.932-2.234c5.048-2.88,8.721-8.071,11.751-12.879c9.796-15.542,14.922-34.356,18.258-52.241
				c3.686-19.763,4.825-40.543,0.774-60.337c-2.824-13.796-11.422-38.152-29.061-37.33c-15.526,0.724-26.236,20.464-32.04,32.486
				c-6.52,13.504-9.729,27.705-11.395,42.508c-1.877,16.692-2.25,33.765,0.258,50.408c2.098,13.92,7.093,30.133,20.406,37.196
				c2.104,1.116,4.401,1.85,6.718,2.369C196.364,212.874,197.165,209.981,195.277,209.559z"/>
		</g>
	</g>
	<g>
		<g>
			<path style="fill:#30AADE;" d="M201.025,50.864c-13.297,11.362-27.031,22.869-43.07,30.177
				c-13.545,6.172-28.633,8.072-43.245,9.987c-1.89,0.248-1.914,3.251,0,3c14.905-1.954,29.837-4.019,43.764-9.958
				c16.698-7.121,31.015-19.415,44.673-31.085C204.619,51.727,202.487,49.615,201.025,50.864L201.025,50.864z"/>
		</g>
	</g>
	<g>
		<g>
			<path style="fill:#30AADE;" d="M181.63,202.653c-13.156-10.081-25.181-21.533-38.344-31.596
				c-5.5-4.205-11.333-7.931-17.551-10.979c-6.192-3.036-12.842-4.481-19.262-6.869c-14.182-5.274-18.356-19.14-17.231-33.211
				c1.139-14.265,11.582-23.307,25.055-26.022c1.896-0.382,1.092-3.273-0.797-2.893c-12.617,2.542-22.565,10.018-26.169,22.66
				c-3.406,11.947-1.148,28.152,8.404,36.684c4.484,4.005,10.452,6.085,16.142,7.67c8.575,2.391,16.401,6.283,23.804,11.188
				c15.857,10.506,29.354,24.405,44.436,35.96C181.652,206.42,183.144,203.812,181.63,202.653L181.63,202.653z"/>
		</g>
	</g>
	<g>
		<g>
			<path style="fill:#30AADE;" d="M113.843,89.61c-16.91-7.902-36.416-5.804-51.458,5.205c-12.678,9.279-19.91,25.085-15.014,40.495
				c4.264,13.417,16.988,22.642,29.738,27.163c10.259,3.637,24.956,5.017,32.979-3.951c1.286-1.437-0.829-3.566-2.121-2.121
				c-7.156,7.998-19.938,6.363-29.101,3.499c-12.066-3.772-23.571-12.412-28.262-24.425c-5.497-14.076,1.591-28.533,12.597-37.53
				c13.677-11.182,33.294-13.143,49.127-5.744C114.07,93.014,115.595,90.429,113.843,89.61L113.843,89.61z"/>
		</g>
	</g>
	<g>
		<g>
			<path style="fill:#30AADE;" d="M92.797,163.696c-0.548,15.376,8.995,31,17.371,43.222c0.078-0.605,0.156-1.211,0.234-1.817
				c-19.221,21.608-31.409-32.194-31.529-44.393c-0.02-1.934-3.02-1.936-3,0c0.141,14.324,14.296,71.645,36.65,46.514
				c0.427-0.479,0.629-1.243,0.234-1.817c-8.099-11.818-17.49-26.857-16.961-41.708C95.865,161.761,92.865,161.768,92.797,163.696
				L92.797,163.696z"/>
		</g>
	</g>
	<g>
		<g>
			<path style="fill:#30AADE;" d="M110.402,205.101c-7.369,7.906-21.086,17.272-32.578,13.826
				c-8.125-2.437-13.366-14.413-16.458-21.365c-4.396-9.885-7.2-20.572-8.978-31.22c-1.258-7.533-2.635-16.779,0.041-24.172
				c0.66-1.824-2.24-2.602-2.893-0.798c-2.885,7.973-1.324,17.642-0.041,25.768c1.902,12.053,5.469,23.99,10.695,35.021
				c3.624,7.649,9.532,18.137,18.57,20.106c12.058,2.628,26.055-6.777,33.762-15.045
				C113.841,205.809,111.724,203.683,110.402,205.101L110.402,205.101z"/>
		</g>
	</g>
	<g>
		<g>
			<path style="fill:#E59788;" d="M33.75,23.482c4.729,6.984,10.058,13.57,13.697,21.23c1.217,2.563,3.895,9.157,0.594,11.057
				c-2.955,1.7-6.557,2.32-9.852,2.983c-4.767,0.959-10.654,2.011-12.645,7.055c-2.148,5.445,4.675,14.042,6.51,18.76
				c0.675,1.734,1.047,3.525,1.066,5.384c0.03,2.869-4.087,3.225-6.022,3.756c-3.62,0.993-5.532,3.064-7.883,5.912
				c-4.419,5.353-8.749,11.905-9.645,18.958c-0.615,4.851,0.463,9.342,3.157,13.411c1.174,1.774,2.654,3.346,4.177,4.821
				c5.816,5.64-0.973,9.266-6.054,10.994c-1.821,0.619-1.039,3.518,0.797,2.893c4.079-1.387,12.195-4.856,10.867-10.585
				c-1.274-5.502-7.556-8.574-9.459-14.135c-2.963-8.654,3.207-17.795,8.28-24.236c1.917-2.434,3.552-4.191,6.56-5.141
				c1.466-0.463,3.006-0.697,4.421-1.32c2.507-1.103,3.495-2.657,3.804-5.329c0.401-3.465-1.505-7.203-2.902-10.244
				c-1.716-3.735-5.639-8.812-4.781-13.102c0.722-3.608,7.717-4.379,10.55-4.96c3.354-0.688,6.612-1.433,9.737-2.896
				c13.002-6.09-8.245-30.668-12.385-36.78C35.262,20.376,32.661,21.876,33.75,23.482L33.75,23.482z"/>
		</g>
	</g>
	<g>
		<g>
			<path style="fill:#30AADE;" d="M214.772,132.126c-1.37,8.175-6.251,16.59-14.283,19.773
				c-10.361,4.106-11.464-13.647-11.194-19.67c0.295-6.606,4.297-25.846,14.355-23.784c3.984,0.817,6.798,5.391,8.541,8.655
				c2.517,4.714,3.088,10.192,2.527,15.425c-0.206,1.922,2.796,1.903,3,0c1.023-9.549-2.984-24.864-14.095-27.142
				c-10.849-2.224-16.097,16.009-16.976,23.349c-0.986,8.235-0.832,25.84,10.83,26.736c10.833,0.832,18.729-13.852,20.187-22.544
				C217.982,131.032,215.092,130.222,214.772,132.126z"/>
		</g>
	</g>
	<g style="opacity:0.5;">
		<g>
			<path style="fill:#7AC943;" d="M276.03,88.981c15.072-11.423,23.74-29.441,39.567-39.936c-0.684-0.18-1.368-0.359-2.052-0.539
				c3.845,7.313,3.239,15.682,3.475,23.689c0.031,1.049,1.284,1.985,2.257,1.295c12.218-8.665,26.351-13.437,39.659-20.061
				c1.732-0.862,0.212-3.45-1.514-2.591c-13.309,6.624-27.442,11.396-39.659,20.061c0.752,0.432,1.504,0.864,2.257,1.295
				c-0.253-8.598,0.237-17.365-3.885-25.203c-0.364-0.694-1.393-0.976-2.052-0.539c-15.881,10.53-24.488,28.507-39.567,39.936
				C272.996,87.543,274.487,90.15,276.03,88.981L276.03,88.981z"/>
		</g>
	</g>
	<g style="opacity:0.5;">
		<g>
			<path style="fill:#7AC943;" d="M256.146,195.034c10.226,13.413,20.417,26.829,29.238,41.226c0.551,0.9,2.077,1.049,2.59,0
				c2.662-5.444,6.479-10.172,9.519-15.392c-0.684,0.18-1.368,0.359-2.052,0.539c15.049,7.067,28.826,16.822,40.523,28.634
				c1.362,1.376,3.483-0.746,2.121-2.121c-11.862-11.979-25.868-21.936-41.131-29.104c-0.738-0.347-1.613-0.214-2.052,0.539
				c-3.04,5.219-6.857,9.947-9.519,15.392c0.863,0,1.727,0,2.59,0c-8.82-14.397-19.012-27.813-29.238-41.226
				C257.58,192.003,254.973,193.495,256.146,195.034L256.146,195.034z"/>
		</g>
	</g>
	<g style="opacity:0.5;">
		<g>
			<path style="fill:#7AC943;" d="M267.348,146.902c23.243-0.032,46.738-1.366,69.765,2.545c-0.12-0.914-0.239-1.828-0.358-2.742
				c-6.248,3.127-12.519,6.283-18.189,10.394c-0.822,0.596-1.115,2.062,0,2.591c15.391,7.289,33.603,5.417,50.131,6.702
				c1.93,0.15,1.916-2.851,0-3c-15.929-1.238-33.796,0.728-48.617-6.292c0,0.864,0,1.727,0,2.591
				c5.672-4.111,11.942-7.267,18.189-10.394c1.11-0.556,0.914-2.526-0.358-2.742c-23.31-3.959-47.032-2.685-70.562-2.652
				C265.413,143.905,265.413,146.905,267.348,146.902L267.348,146.902z"/>
		</g>
	</g>
	<g>
		<path style="fill:none;stroke:#30AADE;stroke-width:2;stroke-miterlimit:10;" d="M515.566,109.479
			c2.947,4.055,8.002,10.583,9.476,15.374"/>
		<path style="fill:none;stroke:#30AADE;stroke-width:2;stroke-miterlimit:10;" d="M530.308,109.479
			c-0.368,5.897-6.266,20.998-13.536,22.164"/>
		<path style="fill:none;stroke:#30AADE;stroke-width:2;stroke-miterlimit:10;" d="M536.573,115.744
			c3.316-1.843,6.265-3.686,9.582-5.528"/>
		<path style="fill:none;stroke:#30AADE;stroke-width:2;stroke-miterlimit:10;" d="M537.31,124.59
			c3.686-0.369,7.371-0.369,11.057-0.369"/>
		<path style="fill:none;stroke:#30AADE;stroke-width:2;stroke-miterlimit:10;" d="M536.204,133.803
			c2.948,1.475,5.528,3.317,8.477,4.423"/>
	</g>
	<g>
		<g>
			<path style="fill:#E59788;" d="M450.991,249.536c-0.104-11.786-2.523-23.873,0.218-35.517
				c2.751-11.688,15.621-11.546,23.43-18.409c6.263-5.503,6.174-15.572,4.747-22.983c-1.902-9.878-6.622-19.094-6.942-29.279
				c-0.638-20.271,25.16-30.821,39.502-17.525c7.477,6.93,8.289,17.8,6.207,27.19c-1.27,5.72-3.863,10.795-6.967,15.709
				c-2.265,3.585-4.986,7.517-5.326,11.888c-0.384,4.936,1.661,9.44,4.727,13.239c3.868,4.791,9.438,5.642,14.837,7.939
				c5.254,2.236,9.2,9.316,11.025,14.464c2.098,5.921,2.169,12.52,2.641,18.717c0.146,1.917,3.147,1.931,3,0
				c-0.758-9.953-1.255-19.678-7.201-28.088c-2.458-3.475-5.363-6.804-9.435-8.314c-2.85-1.057-5.76-1.876-8.506-3.201
				c-4.028-1.943-6.686-6.566-7.877-10.732c-1.49-5.213,2.072-10.243,4.706-14.399c3.041-4.799,5.38-9.613,6.932-15.093
				c2.375-8.387,2.093-17.505-1.967-25.305c-6.862-13.186-23.918-16.62-36.206-9.269c-7.377,4.414-12.269,12.035-13.033,20.551
				c-0.847,9.431,3.414,18.89,5.896,27.777c2.233,7.999,2.571,14.931-1.179,22.463c-3.251,6.53-14.357,8.071-19.957,12.022
				c-5.673,4.002-6.7,11.823-7.171,18.238c-0.684,9.3,0.817,18.618,0.899,27.914C448.008,251.47,451.008,251.471,450.991,249.536
				L450.991,249.536z"/>
		</g>
	</g>
	<path style="fill:none;stroke:#7AC943;stroke-width:2;stroke-miterlimit:10;" d="M507,226.084c-1.5-9.25-17.136-2.634-11.424,5.935
		c4.284,4.998,16.422,0.714,11.424-6.427c1.25,8.825,15.833,2.575,5.712-7.854c-4.219-4.348-12.852-4.998-17.85-1.429
		c-15.708,11.425-2.237,31.807,13.471,22.524"/>
	<g>
		<circle style="fill:none;stroke:#30AADE;stroke-width:3;stroke-miterlimit:10;" cx="574.566" cy="265.226" r="45.5"/>
		<g>
			<g>
				<path style="fill:none;stroke:#30AADE;stroke-width:2;stroke-miterlimit:10;" d="M549.615,267.435
					c2.002,2.754,4.755,6.508,5.757,9.761"/>
				<path style="fill:none;stroke:#30AADE;stroke-width:2;stroke-miterlimit:10;" d="M559.627,267.435
					c-0.251,4.005-5.757,19.772-11.513,18.771"/>
				<path style="fill:none;stroke:#30AADE;stroke-width:2;stroke-miterlimit:10;" d="M563.882,271.689
					c2.252-1.252,4.254-2.503,6.506-3.753"/>
				<path style="fill:none;stroke:#30AADE;stroke-width:2;stroke-miterlimit:10;" d="M564.382,277.697
					c2.503-0.251,5.005-0.251,7.508-0.251"/>
				<path style="fill:none;stroke:#30AADE;stroke-width:2;stroke-miterlimit:10;" d="M563.631,283.953
					c2.002,1.002,3.754,2.253,5.756,3.003"/>
			</g>
			<g>
				<path style="fill:none;stroke:#30AADE;stroke-width:2;stroke-miterlimit:10;" d="M582.57,267.435
					c2.002,2.754,4.755,6.508,5.757,9.761"/>
				<path style="fill:none;stroke:#30AADE;stroke-width:2;stroke-miterlimit:10;" d="M592.582,267.435
					c-0.251,4.005-5.757,19.772-11.513,18.771"/>
				<path style="fill:none;stroke:#30AADE;stroke-width:2;stroke-miterlimit:10;" d="M596.837,271.689
					c2.252-1.252,4.254-2.503,6.506-3.753"/>
				<path style="fill:none;stroke:#30AADE;stroke-width:2;stroke-miterlimit:10;" d="M597.337,277.697
					c2.503-0.251,5.004-0.251,7.507-0.251"/>
				<path style="fill:none;stroke:#30AADE;stroke-width:2;stroke-miterlimit:10;" d="M596.586,283.953
					c2.002,1.002,3.754,2.253,5.755,3.003"/>
			</g>
			<g>
				<path style="fill:none;stroke:#30AADE;stroke-width:2;stroke-miterlimit:10;" d="M564.914,237.555
					c2.001,2.753,4.755,6.507,5.756,9.761"/>
				<path style="fill:none;stroke:#30AADE;stroke-width:2;stroke-miterlimit:10;" d="M574.925,237.555
					c-0.25,4.004-5.756,19.772-11.513,18.771"/>
				<path style="fill:none;stroke:#30AADE;stroke-width:2;stroke-miterlimit:10;" d="M579.181,241.81
					c2.252-1.252,4.253-2.503,6.506-3.754"/>
				<path style="fill:none;stroke:#30AADE;stroke-width:2;stroke-miterlimit:10;" d="M579.681,247.816
					c2.502-0.251,5.004-0.251,7.507-0.251"/>
				<path style="fill:none;stroke:#30AADE;stroke-width:2;stroke-miterlimit:10;" d="M578.93,254.073
					c2.001,1.001,3.754,2.252,5.755,3.003"/>
			</g>
		</g>
	</g>
</g>
</svg>
