<?xml version="1.0" encoding="iso-8859-1"?>
<!-- Generator: Adobe Illustrator 16.0.0, SVG Export Plug-In . SVG Version: 6.00 Build 0)  -->
<!DOCTYPE svg PUBLIC "-//W3C//DTD SVG 1.1//EN" "http://www.w3.org/Graphics/SVG/1.1/DTD/svg11.dtd">
<svg version="1.1" xmlns="http://www.w3.org/2000/svg" xmlns:xlink="http://www.w3.org/1999/xlink" x="0px" y="0px" width="652px"
	 height="320px" viewBox="0 0 652 320" style="enable-background:new 0 0 652 320;" xml:space="preserve">
<g id="Background">
</g>
<g id="Objects">
	<g>
		<g>
			<g>
				<path style="fill:#30AADE;" d="M143.633,247.983c1.154-9.26,1.026-18.232-4.208-26.257
					c-5.797-8.887-14.085-16.183-20.376-24.758c-17.035-23.215-29.74-52.036-20.783-80.935
					c14.106-45.517,78.399-54.565,112.129-26.142c16.237,13.684,23.073,35.142,22.96,55.828c-0.059,10.67-1.884,22.08-6.098,31.934
					c-3.882,9.078-10.994,16.303-18.042,22.998c-13.519,12.843-27.511,25.247-28.376,45.199c-0.143,3.288-0.063,6.881-4.454,7.066
					c-3.063,0.129-6.143,0.026-9.207,0.03c-7.194,0.008-14.733-0.049-21.731,1.834c-3.702,0.997-7.961,4.07-5.193,8.258
					c2.853,4.316,11.572,2.574,15.666,2.143c7.462-0.785,15.944-2.916,23.359-0.941c1.939,0.517,5.071,3.346,2.46,5.056
					c-2.39,1.565-6.264,1.236-8.972,1.22c-7.646-0.047-15.251-1.137-22.904-0.996c-4.161,0.077-10.337,0.434-11.91,5.127
					c-1.594,4.755,7.013,5.839,9.58,5.864c7.393,0.073,14.726-1.738,22.11-2.03c5.557-0.22,12.345,0.362,13.417,6.942
					c0.349-0.615,0.698-1.23,1.048-1.845c-8.502,1.605-46.866-7.497-41.266,11.233c2.358,7.886,12.244,10.896,19.494,11.288
					c8.885,0.479,17.884-3.718,20.61-12.611c0.568-1.855-2.327-2.642-2.893-0.798c-2.503,8.165-10.851,10.779-18.646,10.359
					c-6.403-0.345-17.233-4.431-16.106-12.618c0.83-6.029,15.643-4.538,19.569-4.4c6.495,0.227,13.585,1.657,20.033,0.439
					c0.864-0.163,1.17-1.093,1.048-1.845c-2.323-14.257-24.271-8.308-33.618-7.384c-2.931,0.29-6.03,0.55-8.919-0.155
					c-3.514-0.858-2.268-2.996,0.407-3.829c6.652-2.072,14.918-0.493,21.721-0.058c5.508,0.353,12.609,1.412,17.709-1.314
					c3.989-2.131,2.412-7.19-0.553-9.373c-5.041-3.712-14.201-1.786-19.832-1.144c-3.851,0.439-7.692,0.957-11.562,1.221
					c-2.238,0.152-7.213,0.823-8.698-1.424c-2.695-4.079,15.358-5.029,17.086-5.097c5.993-0.234,12.199,0.453,18.157-0.26
					c7.858-0.941,5.761-11.619,6.796-16.943c1.921-9.88,8.198-17.979,15.058-25.015c6.684-6.856,14.11-12.934,20.478-20.106
					c6.305-7.102,10.431-15.045,12.904-24.185c5.058-18.686,4.639-39.754-3.134-57.65c-16.874-38.853-65.982-51.02-102.607-33.224
					c-19.241,9.349-31.604,27.492-34.683,48.468c-3.934,26.818,10.232,53.18,25.727,73.935c5.566,7.458,12.429,13.862,17.901,21.363
					c5.538,7.59,5.46,16.567,4.343,25.529C140.395,249.9,143.396,249.877,143.633,247.983L143.633,247.983z"/>
			</g>
		</g>
		<g>
			<g>
				<path style="fill:#30AADE;" d="M47.94,100.076c5.653,1.739,11.16,4.009,16.995,5.094c1.891,0.352,2.697-2.54,0.797-2.893
					c-5.834-1.085-11.341-3.355-16.995-5.094C46.884,96.613,46.097,99.509,47.94,100.076L47.94,100.076z"/>
			</g>
		</g>
		<g>
			<g>
				<path style="fill:#30AADE;" d="M68.588,50.05c7.074,6.667,13.135,14.25,19.174,21.841c1.204,1.514,3.312-0.624,2.121-2.121
					c-6.038-7.592-12.1-15.175-19.174-21.841C69.303,46.603,67.178,48.721,68.588,50.05L68.588,50.05z"/>
			</g>
		</g>
		<g>
			<g>
				<path style="fill:#30AADE;" d="M162.345,10.146c1.268,8.466,0.425,16.981,0.179,25.487c-0.057,1.936,2.944,1.93,3,0
					c0.255-8.801,1.025-17.529-0.286-26.285C164.951,7.44,162.062,8.254,162.345,10.146L162.345,10.146z"/>
			</g>
		</g>
		<g>
			<g>
				<path style="fill:#30AADE;" d="M107.06,21.201c1.955,9.117,8.237,16.056,12.454,24.142c0.895,1.716,3.483,0.199,2.59-1.514
					c-4.089-7.843-10.256-14.585-12.151-23.426C109.547,18.512,106.654,19.314,107.06,21.201L107.06,21.201z"/>
			</g>
		</g>
		<g>
			<g>
				<path style="fill:#30AADE;" d="M221.062,29.424c-2.534,7.895-7.288,14.63-11.331,21.786c-0.953,1.687,1.639,3.198,2.59,1.515
					c4.176-7.39,9.018-14.352,11.634-22.502C224.547,28.375,221.65,27.59,221.062,29.424L221.062,29.424z"/>
			</g>
		</g>
		<g>
			<g>
				<path style="fill:#30AADE;" d="M259.509,69.487c-5.364,4.401-11.672,7.429-17.254,11.53c-1.542,1.133-0.048,3.738,1.514,2.591
					c5.793-4.257,12.291-7.429,17.861-12C263.127,70.38,260.991,68.271,259.509,69.487L259.509,69.487z"/>
			</g>
		</g>
		<g>
			<g>
				<path style="fill:#30AADE;" d="M280.457,110.979c-5.478,0.067-11.371,0.768-16.521,2.694c-1.795,0.671-1.019,3.572,0.797,2.893
					c4.934-1.846,10.479-2.523,15.724-2.587C282.391,113.955,282.393,110.955,280.457,110.979L280.457,110.979z"/>
			</g>
		</g>
		<g>
			<g>
				<path style="fill:#30AADE;" d="M276.573,148.049c-3.994-1.417-8.303-1.723-12.298-3.14c-1.828-0.648-2.607,2.25-0.797,2.893
					c3.994,1.417,8.303,1.723,12.298,3.14C277.604,151.59,278.384,148.691,276.573,148.049L276.573,148.049z"/>
			</g>
		</g>
		<g>
			<g>
				<path style="fill:#30AADE;" d="M45.354,146.145c5.116-0.06,10.194-0.76,15.31-0.82c1.934-0.022,1.936-3.022,0-3
					c-5.115,0.06-10.193,0.76-15.31,0.82C43.421,143.167,43.419,146.167,45.354,146.145L45.354,146.145z"/>
			</g>
		</g>
		<g>
			<g>
				<path style="fill:#EC6E4D;" d="M133.819,130.874c10.628,9.428,16.983,22.472,25.438,33.686c0.92,1.219,3.005,0.026,2.072-1.211
					c-8.577-11.375-15.03-24.606-25.813-34.172C134.363,128.153,132.659,129.844,133.819,130.874L133.819,130.874z"/>
			</g>
		</g>
		<g>
			<g>
				<path style="fill:#EC6E4D;" d="M159.816,165.397c1.078,9.171,1.789,18.192,1.805,27.431c0.003,1.547,2.402,1.548,2.4,0
					c-0.016-9.239-0.727-18.26-1.805-27.431C162.038,163.879,159.636,163.862,159.816,165.397L159.816,165.397z"/>
			</g>
		</g>
		<g>
			<g>
				<path style="fill:#EC6E4D;" d="M161.78,192.394c-0.868,0.218-1.733,0.468-2.616,0.618c-0.801,0.135-1.672,0.061-2.479,0.061
					c-1.548,0-1.548,2.4,0,2.4c2.025,0,3.771-0.272,5.733-0.765C163.919,194.332,163.282,192.017,161.78,192.394L161.78,192.394z"/>
			</g>
		</g>
		<g>
			<g>
				<path style="fill:#EC6E4D;" d="M194.631,129.059c-8.696,11.381-16.598,23.349-24.905,35.011c-0.9,1.263,1.183,2.46,2.072,1.211
					c8.308-11.662,16.209-23.63,24.905-35.011C197.644,129.04,195.557,127.846,194.631,129.059L194.631,129.059z"/>
			</g>
		</g>
		<g>
			<g>
				<path style="fill:#EC6E4D;" d="M169.201,165.397c-0.553,9.068-2.114,17.966-2.166,27.071c-0.009,1.548,2.392,1.547,2.4,0
					c0.052-9.104,1.613-18.002,2.166-27.071C171.695,163.851,169.295,163.86,169.201,165.397L169.201,165.397z"/>
			</g>
		</g>
		<g>
			<g>
				<path style="fill:#EC6E4D;" d="M168.235,194.39c2.363,0.034,4.478,1.048,6.858,1.083c1.549,0.022,1.546-2.377,0-2.4
					c-2.363-0.034-4.478-1.048-6.858-1.083C166.688,191.967,166.689,194.367,168.235,194.39L168.235,194.39z"/>
			</g>
		</g>
		<g>
			<g>
				<path style="fill:#EC6E4D;" d="M141.886,138.083c16.378,1.82,32.021,1.652,48.326-0.765c1.526-0.227,0.875-2.539-0.639-2.314
					c-16.101,2.386-31.526,2.475-47.688,0.679C140.349,135.512,140.365,137.914,141.886,138.083L141.886,138.083z"/>
			</g>
		</g>
		<g>
			<g>
				<path style="fill:#EC6E4D;" d="M173.725,158.858c3.753-16.572,7.223-33.206,10.828-49.811c0.327-1.509-1.986-2.15-2.314-0.638
					c-3.604,16.604-7.075,33.238-10.828,49.811C171.068,159.727,173.383,160.367,173.725,158.858L173.725,158.858z"/>
			</g>
		</g>
	</g>
	<g>
		<g>
			<g>
				<path style="fill:#EC6E4D;" d="M401.599,91.532c3.656,40.907,0.808,81.811,2.702,122.768c0.089,1.926,3.09,1.935,3,0
					c-1.895-40.957,0.954-81.861-2.702-122.768C404.428,89.621,401.426,89.604,401.599,91.532L401.599,91.532z"/>
			</g>
		</g>
		<g>
			<g>
				<path style="fill:#EC6E4D;" d="M403.099,93.032c61.47-0.032,123-2.494,184.441-4.154c6.678-0.181,13.354-0.362,20.032-0.547
					c-0.5-0.5-1-1-1.5-1.5c0.412,21.941,0.688,43.886,0.875,65.83c0.26,30.452,1.239,61.233-0.875,91.639c0.5-0.5,1-1,1.5-1.5
					c-57.904,6.061-115.721,2.392-173.771,2.35c-1.935-0.001-1.935,2.999,0,3c58.051,0.042,115.867,3.711,173.771-2.35
					c0.859-0.09,1.438-0.617,1.5-1.5c2.088-30.033,1.129-60.43,0.885-90.508c-0.182-22.321-0.465-44.643-0.885-66.961
					c-0.016-0.8-0.671-1.523-1.5-1.5c-55.574,1.543-111.152,3.036-166.737,4.154c-12.576,0.253-25.157,0.541-37.736,0.547
					C401.164,90.033,401.164,93.033,403.099,93.032L403.099,93.032z"/>
			</g>
		</g>
		<g>
			<g>
				<path style="fill:#EC6E4D;" d="M405.448,135.336c67.383-0.022,134.741-2.327,202.124-2.349c1.935,0,1.935-3,0-3
					c-67.383,0.022-134.741,2.327-202.124,2.349C403.514,132.336,403.514,135.336,405.448,135.336L405.448,135.336z"/>
			</g>
		</g>
		<g>
			<g>
				<path style="fill:#EC6E4D;" d="M459.394,186.602c6.919-8.06,13.992-16.56,23.196-22.093c-0.734-0.299-1.469-0.598-2.203-0.896
					c3.341,17.735,1.203,35.764,1.125,53.661c-0.009,1.935,2.991,1.934,3,0c0.08-18.187,2.162-36.436-1.232-54.458
					c-0.18-0.957-1.423-1.366-2.203-0.896c-9.442,5.677-16.706,14.295-23.804,22.563C456.02,185.94,458.132,188.072,459.394,186.602
					L459.394,186.602z"/>
			</g>
		</g>
		<g>
			<g>
				<path style="fill:#EC6E4D;" d="M507.807,171.022c3.854-5.884,10.233-10.397,17.312-7.094c6.956,3.247,7.79,11.985,6.189,18.538
					c-2.925,11.971-14.274,19.833-15.721,32.454c-0.087,0.753,0.75,1.581,1.5,1.5c12.406-1.345,24.69-4.413,37.206-2.405
					c1.892,0.304,2.703-2.587,0.797-2.893c-12.855-2.062-25.262,0.917-38.003,2.297c0.5,0.5,1,1,1.5,1.5
					c1.855-16.186,20.338-26.023,15.745-43.883c-1.43-5.559-6.404-10.448-12.191-11.132c-7.394-0.874-13.069,3.718-16.924,9.603
					C504.153,171.132,506.752,172.633,507.807,171.022L507.807,171.022z"/>
			</g>
		</g>
	</g>
	<g>
		<g>
			<path style="fill:#30AADE;" d="M365.585,293.333c-16.958-9.878-26.787-27.288-22.097-46.934
				c4.044-16.936,18.169-30.452,35.126-33.989c23.232-4.847,46.727,11.148,53.072,33.437c3.412,11.982,0.381,25.651-6.74,35.716
				c-6.758,9.552-18.403,14.034-29.461,16.169c-6.054,1.169-12.262,1.485-18.415,1.517c-1.934,0.01-1.936,3.01,0,3
				c20.113-0.102,42.643-4.557,53.243-23.586c11.054-19.843,5.116-43.84-11.638-58.297c-13.915-12.008-34.069-14.95-50.814-7.634
				c-14.429,6.304-24.906,20.39-27.876,35.69c-3.876,19.967,7.17,37.647,24.086,47.501
				C365.746,296.9,367.256,294.307,365.585,293.333L365.585,293.333z"/>
		</g>
	</g>
	<g>
		<g>
			<path style="fill:#30AADE;" d="M371.97,258.32c11.221,0,22.441,0,33.662,0c1.851,0,1.851-2.869,0-2.869
				c-11.221,0-22.441,0-33.662,0C370.119,255.451,370.119,258.32,371.97,258.32L371.97,258.32z"/>
		</g>
	</g>
	<g>
		<g>
			<path style="fill:#30AADE;" d="M385.824,239.943c1.956,11.666,1.014,23.541,0.967,35.304c-0.008,1.935,2.992,1.934,3,0
				c0.049-12.052,0.93-24.15-1.074-36.102C388.397,237.241,385.507,238.051,385.824,239.943L385.824,239.943z"/>
		</g>
	</g>
	<g>
		<path style="fill:none;stroke:#EC6E4D;stroke-width:2;stroke-linecap:round;stroke-linejoin:round;stroke-miterlimit:10;" d="
			M509.515,108.724c1.499-3.499,3.499-5.999,6.999-5.999"/>
		<g>
			<path style="fill:none;stroke:#EC6E4D;stroke-width:2;stroke-linecap:round;stroke-linejoin:round;stroke-miterlimit:10;" d="
				M479.021,103.224c0,9.498,0,13.996,1,23.494"/>
			<path style="fill:none;stroke:#EC6E4D;stroke-width:2;stroke-linecap:round;stroke-linejoin:round;stroke-miterlimit:10;" d="
				M479.522,104.225c10.832-2.499,11.743,10.501,2.999,9.998"/>
			<path style="fill:none;stroke:#EC6E4D;stroke-width:2;stroke-linecap:round;stroke-linejoin:round;stroke-miterlimit:10;" d="
				M500.017,104.225c-8.537-3.999-9.501,10.304-4.151,11.092c8.586,1.265,5.152-7.592,5.152-11.092
				c0.499,3.999,1.962,11.997,7.498,8.998"/>
			<path style="fill:none;stroke:#EC6E4D;stroke-width:2;stroke-linecap:round;stroke-linejoin:round;stroke-miterlimit:10;" d="
				M508.015,102.725c1,4.499,1,7.998,1,12.497"/>
			<path style="fill:none;stroke:#EC6E4D;stroke-width:2;stroke-linecap:round;stroke-linejoin:round;stroke-miterlimit:10;" d="
				M519.513,100.226c0,3.999-1,14.997,4,16.496c4.498,1,5.497-4.999,5.497-8.498c3,6.998,7.679,6.747,9.999-1.5
				c0.499,8.498-0.499,11.995-2.999,19.993"/>
			<path style="fill:none;stroke:#EC6E4D;stroke-width:2;stroke-linecap:round;stroke-linejoin:round;stroke-miterlimit:10;" d="
				M519.513,106.225c1.5,0.5,4.499,0.5,5.998,0"/>
		</g>
	</g>
</g>
</svg>
