<?xml version="1.0" encoding="iso-8859-1"?>
<!-- Generator: Adobe Illustrator 16.0.0, SVG Export Plug-In . SVG Version: 6.00 Build 0)  -->
<!DOCTYPE svg PUBLIC "-//W3C//DTD SVG 1.1//EN" "http://www.w3.org/Graphics/SVG/1.1/DTD/svg11.dtd">
<svg version="1.1" xmlns="http://www.w3.org/2000/svg" xmlns:xlink="http://www.w3.org/1999/xlink" x="0px" y="0px" width="60px"
	 height="60px" viewBox="0 0 60 60" style="enable-background:new 0 0 60 60;" xml:space="preserve">
<g id="Background">
</g>
<g id="Objects">
	<g>
		<g>
			<g>
				<path style="fill:#F6FBFC;" d="M24.101,19.124c3.87-2.773,8.981-1.786,8.039,3.903c-0.394,2.375-2.407,4.212-4.122,5.695
					c-2.872,2.484-6.038,4.293-7.829,7.786c-0.419,0.817-0.097,1.989,0.896,2.204c5.144,1.114,10.354,1.644,15.111,4.056
					c1.721,0.873,3.239-1.715,1.514-2.591c-5.01-2.541-10.404-3.184-15.828-4.358c0.299,0.734,0.598,1.469,0.896,2.204
					c2.999-5.846,12.532-8.184,12.512-15.827c-0.021-7.484-7.119-9.665-12.703-5.663C21.029,17.649,22.524,20.253,24.101,19.124
					L24.101,19.124z"/>
			</g>
		</g>
		<g>
			<g>
				<path style="fill:#F6FBFC;" d="M28.895,53.03C16.712,53.787,7.434,46.966,6.132,34.579C4.982,23.64,10.194,11.77,19.764,6.111
					c12.083-7.146,28.452-1.33,32.576,12.078c4.189,13.623-3.465,30.724-18.295,32.951c-1.908,0.287-1.095,3.177,0.797,2.893
					c15.869-2.383,23.396-19.272,21.029-33.889C53.363,4.652,37.288-3.008,22.933,1.447C-0.475,8.712-5.949,51.26,21.924,55.796
					c2.309,0.375,4.643,0.379,6.971,0.234C30.816,55.911,30.827,52.91,28.895,53.03L28.895,53.03z"/>
			</g>
		</g>
	</g>
</g>
</svg>
