<?xml version="1.0" encoding="iso-8859-1"?>
<!-- Generator: Adobe Illustrator 16.0.0, SVG Export Plug-In . SVG Version: 6.00 Build 0)  -->
<!DOCTYPE svg PUBLIC "-//W3C//DTD SVG 1.1//EN" "http://www.w3.org/Graphics/SVG/1.1/DTD/svg11.dtd">
<svg version="1.1" xmlns="http://www.w3.org/2000/svg" xmlns:xlink="http://www.w3.org/1999/xlink" x="0px" y="0px" width="60px"
	 height="60px" viewBox="0 0 60 60" style="enable-background:new 0 0 60 60;" xml:space="preserve">
<g id="Background">
</g>
<g id="Objects">
	<g>
		<g>
			<path style="fill:#30AADE;" d="M23.489,53.426C11.529,50.032,5.305,40.297,8.317,28.099C10.918,17.568,19.676,8.443,30.344,6.178
				c13.719-2.914,27.228,8.005,26.904,21.891C56.92,42.161,44.017,56.184,29.369,53.426c-1.891-0.356-2.697,2.535-0.797,2.893
				c16.1,3.032,29.369-10.618,31.459-25.835C62.197,14.712,48.722,2.409,33.393,2.82C20.119,3.176,9.343,14.438,5.646,26.5
				C1.383,40.413,9.098,52.46,22.692,56.318C24.557,56.848,25.348,53.953,23.489,53.426L23.489,53.426z"/>
		</g>
	</g>
	<g>
		<g>
			<path style="fill:#30AADE;" d="M34.06,17.469c-3.661,5.552-8.316,10.287-12.766,15.196c-0.718,0.792-0.495,2.249,0.662,2.507
				c7.023,1.569,14.235,1.033,21.297,0c1.909-0.279,1.095-3.169-0.797-2.893c-6.501,0.951-13.24,1.443-19.703,0
				c0.221,0.835,0.441,1.671,0.662,2.507c4.623-5.101,9.432-10.037,13.234-15.804C37.719,17.362,35.119,15.861,34.06,17.469
				L34.06,17.469z"/>
		</g>
	</g>
	<g>
		<g>
			<path style="fill:#30AADE;" d="M35.908,27.827c-1.447,3.645-1.551,7.526-1.554,11.399c-0.001,1.935,2.999,1.935,3,0
				c0.002-3.626,0.091-7.186,1.446-10.601C39.516,26.824,36.613,26.051,35.908,27.827L35.908,27.827z"/>
		</g>
	</g>
</g>
</svg>
