<?xml version="1.0" encoding="iso-8859-1"?>
<!-- Generator: Adobe Illustrator 16.0.0, SVG Export Plug-In . SVG Version: 6.00 Build 0)  -->
<!DOCTYPE svg PUBLIC "-//W3C//DTD SVG 1.1//EN" "http://www.w3.org/Graphics/SVG/1.1/DTD/svg11.dtd">
<svg version="1.1" xmlns="http://www.w3.org/2000/svg" xmlns:xlink="http://www.w3.org/1999/xlink" x="0px" y="0px" width="60px"
	 height="60px" viewBox="0 0 60 60" style="enable-background:new 0 0 60 60;" xml:space="preserve">
<g id="Background">
</g>
<g id="Objects">
	<g>
		<g>
			<path style="fill:#F6FBFC;" d="M24.565,53.72C13.013,50.449,5.682,41.328,6.33,29.17C6.898,18.522,14.22,8.425,24.691,5.781
				c13.681-3.454,30.676,7.383,30.85,21.835c0.177,14.687-14.478,28.57-29.172,25.81c-1.891-0.355-2.697,2.536-0.797,2.893
				c15.737,2.957,30.905-10.09,32.738-25.633C60.315,13.679,43.653,1.324,27.625,2.316C14.553,3.126,5.234,14.866,3.537,27.17
				c-1.949,14.136,6.852,25.654,20.231,29.442C25.634,57.141,26.424,54.246,24.565,53.72L24.565,53.72z"/>
		</g>
	</g>
	<g>
		<g>
			<path style="fill:#F6FBFC;" d="M26.082,20.287c5.641-6.633,11.521,4.999,3.207,6.826c-1.666,0.366-1.28,2.984,0.398,2.946
				c1.992-0.045,3.953,0.163,5.252,1.895c1.854,2.471-0.439,5.672-2.768,6.543c-2.742,1.027-6.106,0.224-8.752-0.717
				c-1.827-0.65-2.606,2.249-0.797,2.893c5.064,1.803,12.029,2.229,15.028-3.136c3.362-6.016-2.427-10.602-7.964-10.477
				c0.133,0.982,0.266,1.964,0.398,2.946c5.492-1.207,7.938-6.006,5.564-11.12c-2.457-5.292-8.389-4.602-11.689-0.72
				C22.716,19.63,24.827,21.763,26.082,20.287L26.082,20.287z"/>
		</g>
	</g>
</g>
</svg>
