<?xml version="1.0" encoding="iso-8859-1"?>
<!-- Generator: Adobe Illustrator 16.0.0, SVG Export Plug-In . SVG Version: 6.00 Build 0)  -->
<!DOCTYPE svg PUBLIC "-//W3C//DTD SVG 1.1//EN" "http://www.w3.org/Graphics/SVG/1.1/DTD/svg11.dtd">
<svg version="1.1" xmlns="http://www.w3.org/2000/svg" xmlns:xlink="http://www.w3.org/1999/xlink" x="0px" y="0px" width="60px"
	 height="60px" viewBox="0 0 60 60" style="enable-background:new 0 0 60 60;" xml:space="preserve">
<g id="Background">
</g>
<g id="Objects">
	<g>
		<g>
			<path style="fill:#EC6E4D;" d="M25.988,28.394c2.827-3.282,5.661-6.605,9.355-8.942c-0.734-0.299-1.469-0.598-2.203-0.896
				c1.273,7.228,0.494,14.532,0.431,21.819c-0.017,1.936,2.983,1.934,3,0c0.065-7.578,0.786-15.101-0.538-22.617
				c-0.166-0.946-1.438-1.381-2.203-0.896c-3.922,2.481-6.957,5.921-9.963,9.412C22.611,27.73,24.724,29.862,25.988,28.394
				L25.988,28.394z"/>
		</g>
	</g>
	<g>
		<g>
			<path style="fill:#EC6E4D;" d="M21.489,52.426C9.529,49.032,3.305,39.297,6.317,27.099C8.918,16.568,17.676,7.443,28.344,5.178
				c13.719-2.914,27.228,8.005,26.904,21.891C54.92,41.161,42.017,55.184,27.369,52.426c-1.891-0.356-2.697,2.535-0.797,2.893
				c16.1,3.032,29.369-10.618,31.459-25.835C60.197,13.712,46.722,1.409,31.393,1.82C18.119,2.176,7.343,13.438,3.646,25.501
				c-4.264,13.912,3.45,25.96,17.046,29.817C22.557,55.848,23.348,52.953,21.489,52.426L21.489,52.426z"/>
		</g>
	</g>
</g>
</svg>
