<?xml version="1.0" encoding="iso-8859-1"?>
<!-- Generator: Adobe Illustrator 16.0.0, SVG Export Plug-In . SVG Version: 6.00 Build 0)  -->
<!DOCTYPE svg PUBLIC "-//W3C//DTD SVG 1.1//EN" "http://www.w3.org/Graphics/SVG/1.1/DTD/svg11.dtd">
<svg version="1.1" xmlns="http://www.w3.org/2000/svg" xmlns:xlink="http://www.w3.org/1999/xlink" x="0px" y="0px" width="652px"
	 height="320px" viewBox="0 0 652 320" style="enable-background:new 0 0 652 320;" xml:space="preserve">
<g id="Background">
</g>
<g id="Objects">
	<g>
		<g>
			<g>
				<path style="fill:#FFFFFF;" d="M37.33,51.185c2.299,26.228,1.236,52.565,2.427,78.84c0.087,1.926,3.088,1.935,3,0
					c-1.19-26.275-0.128-52.612-2.427-78.84C40.162,49.273,37.161,49.257,37.33,51.185L37.33,51.185z"/>
			</g>
		</g>
		<g>
			<g>
				<path style="fill:#FFFFFF;" d="M38.83,52.685c35.168-0.034,70.371-1.45,105.524-2.426c-0.5-0.5-1-1-1.5-1.5
					c0.507,26.969,1.832,54.337,0,81.266c0.367-0.482,0.734-0.964,1.102-1.446c-33.681,7.507-68.632,1.262-102.699,1.159
					c-1.935-0.006-1.935,2.994,0,3c34.366,0.104,69.518,6.308,103.496-1.267c0.68-0.151,1.058-0.8,1.102-1.446
					c1.832-26.929,0.507-54.297,0-81.266c-0.015-0.8-0.671-1.523-1.5-1.5c-35.153,0.976-70.356,2.392-105.524,2.426
					C36.896,49.687,36.896,52.687,38.83,52.685L38.83,52.685z"/>
			</g>
		</g>
		<g>
			<g>
				<path style="fill:#FFFFFF;" d="M40.043,74.518c34.775-0.022,69.537-1.19,104.312-1.213c1.935-0.001,1.935-3.001,0-3
					c-34.774,0.022-69.536,1.19-104.312,1.213C38.108,71.519,38.108,74.519,40.043,74.518L40.043,74.518z"/>
			</g>
		</g>
		<g>
			<g>
				<path style="fill:#FFFFFF;" d="M68.394,100.763c3.565-4.142,7.15-8.359,11.825-11.288c-0.734-0.299-1.469-0.598-2.203-0.896
					c1.619,9.11,0.628,18.313,0.553,27.499c-0.016,1.935,2.984,1.934,3,0c0.077-9.475,1.01-18.901-0.66-28.296
					c-0.168-0.948-1.435-1.378-2.203-0.896c-4.902,3.072-8.689,7.409-12.433,11.758C65.018,100.1,67.129,102.231,68.394,100.763
					L68.394,100.763z"/>
			</g>
		</g>
		<g>
			<g>
				<path style="fill:#FFFFFF;" d="M93.493,92.575c2.327-3.361,6.077-5.416,9.51-2.209c3.172,2.962,1.37,8.17-0.335,11.326
					c-2.323,4.299-5.752,7.755-6.458,12.772c-0.12,0.854,0.372,2.022,1.446,1.899c6.348-0.731,12.598-2.179,19.009-1.267
					c1.892,0.269,2.706-2.621,0.797-2.893c-6.744-0.959-13.121,0.389-19.806,1.159c0.482,0.633,0.965,1.266,1.446,1.899
					c1.157-8.223,11.786-14.926,7.862-24.035c-3.395-7.877-11.839-6.267-16.062-0.167C89.799,92.656,92.4,94.154,93.493,92.575
					L93.493,92.575z"/>
			</g>
		</g>
	</g>
	<g>
		<g>
			<g>
				<path style="fill:#FFFFFF;" d="M37.33,193.185c2.299,26.228,1.236,52.565,2.427,78.84c0.087,1.926,3.088,1.935,3,0
					c-1.19-26.275-0.128-52.612-2.427-78.84C40.162,191.273,37.161,191.257,37.33,193.185L37.33,193.185z"/>
			</g>
		</g>
		<g>
			<g>
				<path style="fill:#FFFFFF;" d="M38.83,194.685c35.168-0.034,70.371-1.45,105.524-2.426c-0.5-0.5-1-1-1.5-1.5
					c0.507,26.969,1.832,54.337,0,81.266c0.367-0.482,0.734-0.964,1.102-1.446c-33.681,7.507-68.632,1.262-102.699,1.159
					c-1.935-0.006-1.935,2.994,0,3c34.366,0.104,69.518,6.308,103.496-1.267c0.68-0.151,1.058-0.8,1.102-1.446
					c1.832-26.929,0.507-54.297,0-81.266c-0.015-0.8-0.671-1.523-1.5-1.5c-35.153,0.976-70.356,2.392-105.524,2.426
					C36.896,191.687,36.896,194.687,38.83,194.685L38.83,194.685z"/>
			</g>
		</g>
		<g>
			<g>
				<path style="fill:#FFFFFF;" d="M40.043,216.518c34.775-0.022,69.537-1.19,104.312-1.213c1.935-0.001,1.935-3.001,0-3
					c-34.774,0.022-69.536,1.19-104.312,1.213C38.108,213.519,38.108,216.519,40.043,216.518L40.043,216.518z"/>
			</g>
		</g>
		<g>
			<g>
				<path style="fill:#FFFFFF;" d="M68.394,242.763c3.565-4.142,7.15-8.359,11.825-11.288c-0.734-0.299-1.469-0.598-2.203-0.896
					c1.619,9.11,0.628,18.313,0.553,27.499c-0.016,1.935,2.984,1.934,3,0c0.077-9.475,1.01-18.901-0.66-28.296
					c-0.168-0.948-1.435-1.378-2.203-0.896c-4.902,3.072-8.689,7.409-12.433,11.758C65.018,242.1,67.129,244.231,68.394,242.763
					L68.394,242.763z"/>
			</g>
		</g>
		<g>
			<g>
				<path style="fill:#F6FBFC;" d="M96.728,233.433c7.908-8.661,16.437,6.583,4.713,8.965c-1.675,0.34-1.274,2.987,0.398,2.946
					c2.87-0.07,5.78,0.251,7.563,2.821c2.214,3.188-0.901,6.993-3.754,8.103c-3.79,1.475-8.522,0.473-12.229-0.758
					c-1.841-0.612-2.624,2.286-0.797,2.893c6.361,2.113,15.456,2.926,19.357-3.751c4.373-7.484-3.698-12.463-10.142-12.307
					c0.133,0.982,0.266,1.964,0.398,2.946c6.484-1.317,10.08-6.554,7.233-12.853c-3.014-6.67-10.607-5.787-14.864-1.126
					C93.305,232.737,95.421,234.865,96.728,233.433L96.728,233.433z"/>
			</g>
		</g>
	</g>
	<g>
		<g>
			<path style="fill:#FFFFFF;" d="M217.585,129.333c-16.958-9.878-26.787-27.288-22.097-46.934
				c4.044-16.937,18.169-30.452,35.126-33.989c23.232-4.847,46.727,11.148,53.072,33.437c6.967,24.468-10.874,46.738-34.121,52.093
				c-11.145,2.567-22.871,0.611-32.808-4.902c-1.693-0.939-3.205,1.652-1.514,2.591c18.437,10.229,41.126,7.619,57.331-5.662
				c16.419-13.456,19.434-37.191,9.753-55.434c-9.252-17.435-29.87-28.164-49.45-25.505c-16.094,2.186-29.684,12.711-36.839,27.153
				c-4.783,9.654-6.056,20.794-3.422,31.237c3.161,12.531,12.558,22.159,23.454,28.506
				C217.746,132.9,219.256,130.307,217.585,129.333L217.585,129.333z"/>
		</g>
	</g>
	<g>
		<g>
			<path style="fill:#FFFFFF;" d="M216.939,76.061c7.146,6.179,13.82,12.854,20,20c1.268,1.466,3.38-0.666,2.121-2.121
				c-6.18-7.146-12.854-13.821-20-20C217.605,72.681,215.474,74.793,216.939,76.061L216.939,76.061z"/>
		</g>
	</g>
	<g>
		<g>
			<path style="fill:#FFFFFF;" d="M240.5,95c1.025-11.96,0.999-24.004,1-36c0-1.935-3-1.935-3,0c-0.001,11.996,0.025,24.04-1,36
				C237.335,96.929,240.336,96.913,240.5,95L240.5,95z"/>
		</g>
	</g>
	<g>
		<g>
			<path style="fill:#FFFFFF;" d="M346.051,135.217c-16.765-3.783-30.449-14.555-34.346-31.777
				c-3.338-14.753,1.858-30.79,12.198-41.58c13.269-13.846,34.599-16.375,51.666-8.558c23.202,10.626,32.727,39.126,19.112,60.964
				c-10.25,16.443-30.726,24.747-49.508,20.917c-1.888-0.385-2.692,2.506-0.797,2.893c21.826,4.451,44.23-6.15,54.885-25.703
				c10.349-18.992,3.665-42.53-12.622-55.699c-14.375-11.623-34.691-13.951-51.446-6.441c-13.097,5.87-22.324,18.296-25.906,31.975
				c-2.938,11.218-1.639,23.367,3.837,33.592c6.521,12.175,19.009,19.35,32.13,22.31
				C347.138,138.535,347.938,135.643,346.051,135.217L346.051,135.217z"/>
		</g>
	</g>
	<g>
		<g>
			<path style="fill:#FFFFFF;" d="M586.899,136.813c-16.847,4.463-34.124,0.983-45.498-12.816
				c-9.77-11.852-12.232-28.83-7.595-43.257c5.955-18.523,24.549-30.061,43.515-30.257c23.452-0.243,43.478,18.583,43.253,42.221
				c-0.193,20.473-15.029,38.943-34.469,44.485c-1.857,0.529-1.067,3.424,0.797,2.893c19.08-5.44,32.983-21.756,36.127-41.257
				c3.101-19.232-7.41-38.202-24.766-46.667c-17.551-8.562-38.869-4.941-53.623,7.358c-11.443,9.541-16.948,24.473-16.019,39.146
				c0.833,13.146,7.109,25.886,17.424,34.136c11.848,9.475,27.389,10.686,41.65,6.907
				C589.565,139.21,588.771,136.317,586.899,136.813L586.899,136.813z"/>
		</g>
	</g>
	<g>
		<g>
			<path style="fill:#FFFFFF;" d="M206.024,248.283c-9.285-17.125-8.683-36.944,5.298-51.292
				c12.029-12.347,30.896-16.725,47.153-11.299c21.763,7.263,33.978,31.62,29.465,53.552c-4.753,23.1-27.884,35.56-50.059,31.5
				c-13.697-2.509-25.56-11.083-32.41-23.143c-0.955-1.682-3.547-0.171-2.59,1.514c9.804,17.26,28.972,26.874,48.661,25.316
				c19.626-1.553,35.628-16.591,39.556-35.679c4.074-19.801-5.487-40.335-22.126-51.264c-13.514-8.876-30.808-9.039-45.312-2.631
				c-10.952,4.839-19.743,13.884-24.286,24.928c-5.434,13.206-2.544,27.834,4.06,40.013
				C204.356,251.498,206.947,249.984,206.024,248.283L206.024,248.283z"/>
		</g>
	</g>
	<g>
		<g>
			<path style="fill:#FFFFFF;" d="M354.426,271.977c-16.947-1.961-31.746-11.389-37.314-28c-4.705-14.039-1.524-29.944,7.104-41.765
				c10.949-15,30.923-20.328,48.434-15.636c23.916,6.408,38.465,31.892,29.912,55.442c-7.188,19.792-28.472,31.977-49.012,30.018
				c-1.926-0.184-1.908,2.818,0,3c21.763,2.076,42.67-10.649,51.287-30.685c8.2-19.069,0.631-40.83-15.492-52.963
				c-14.999-11.287-36.039-12.447-52.521-3.876c-12.627,6.566-21.1,19.29-23.897,33.048c-2.449,12.039-0.215,24.922,6.622,35.168
				c7.865,11.788,21.178,17.664,34.879,19.249C356.346,275.199,356.324,272.196,354.426,271.977L354.426,271.977z"/>
		</g>
	</g>
	<g>
		<g>
			<path style="fill:#FFFFFF;" d="M462.426,271.977c-16.947-1.961-31.746-11.389-37.314-28c-4.705-14.039-1.524-29.944,7.104-41.765
				c10.949-15,30.923-20.328,48.434-15.636c23.916,6.408,38.465,31.892,29.912,55.442c-7.188,19.792-28.472,31.977-49.012,30.018
				c-1.926-0.184-1.908,2.818,0,3c21.763,2.076,42.67-10.649,51.287-30.685c8.2-19.069,0.631-40.83-15.492-52.963
				c-14.999-11.287-36.039-12.447-52.521-3.876c-12.627,6.566-21.1,19.29-23.897,33.048c-2.449,12.039-0.215,24.922,6.622,35.168
				c7.865,11.788,21.178,17.664,34.879,19.249C464.346,275.199,464.324,272.196,462.426,271.977L462.426,271.977z"/>
		</g>
	</g>
	<g>
		<g>
			<path style="fill:#FFFFFF;" d="M422.175,101.582c-4.464-16.846-0.983-34.124,12.815-45.498
				c11.853-9.77,28.83-12.232,43.257-7.594c18.522,5.955,30.061,24.548,30.258,43.515c0.243,23.451-18.583,43.477-42.221,43.253
				c-20.472-0.194-38.942-15.03-44.485-34.469c-0.529-1.857-3.424-1.067-2.893,0.798c5.439,19.08,21.757,32.982,41.257,36.126
				c19.232,3.1,38.201-7.412,46.667-24.766c8.561-17.551,4.94-38.87-7.359-53.623c-9.54-11.444-24.473-16.948-39.146-16.019
				c-13.146,0.833-25.887,7.109-34.136,17.424c-9.475,11.847-10.687,27.388-6.907,41.651
				C419.777,104.248,422.671,103.455,422.175,101.582L422.175,101.582z"/>
		</g>
	</g>
	<g>
		<g>
			<path style="fill:#FFFFFF;" d="M334.939,73.061c7.146,6.179,13.82,12.854,20,20c1.268,1.466,3.38-0.666,2.121-2.121
				c-6.18-7.146-12.854-13.821-20-20C335.605,69.681,333.474,71.793,334.939,73.061L334.939,73.061z"/>
		</g>
	</g>
	<g>
		<g>
			<path style="fill:#FFFFFF;" d="M354.667,91.006c-1.137,11.95-1.223,23.994-1.335,35.989c-0.018,1.935,2.982,1.934,3,0
				c0.112-11.995,0.198-24.039,1.335-35.989C357.85,89.08,354.849,89.098,354.667,91.006L354.667,91.006z"/>
		</g>
	</g>
	<g>
		<g>
			<path style="fill:#FFFFFF;" d="M574.667,59.006c-1.137,11.95-1.223,23.994-1.335,35.989c-0.018,1.935,2.982,1.934,3,0
				c0.112-11.995,0.198-24.039,1.335-35.989C577.85,57.08,574.849,57.098,574.667,59.006L574.667,59.006z"/>
		</g>
	</g>
	<g>
		<g>
			<path style="fill:#FFFFFF;" d="M467.667,196.006c-1.137,11.95-1.223,23.994-1.335,35.989c-0.018,1.936,2.982,1.934,3,0
				c0.112-11.995,0.198-24.039,1.335-35.989C470.85,194.08,467.849,194.098,467.667,196.006L467.667,196.006z"/>
		</g>
	</g>
	<g>
		<g>
			<path style="fill:#FFFFFF;" d="M442.939,77.061c7.146,6.179,13.82,12.854,20,20c1.268,1.466,3.38-0.666,2.121-2.121
				c-6.18-7.146-12.854-13.821-20-20C443.605,73.681,441.474,75.793,442.939,77.061L442.939,77.061z"/>
		</g>
	</g>
	<g>
		<g>
			<path style="fill:#FFFFFF;" d="M466.832,94.908c5.922-10.443,10.922-21.4,15.926-32.302c0.801-1.745-1.784-3.271-2.59-1.515
				c-5.005,10.902-10.005,21.859-15.926,32.302C463.286,95.079,465.879,96.59,466.832,94.908L466.832,94.908z"/>
		</g>
	</g>
	<g>
		<g>
			<path style="fill:#FFFFFF;" d="M224.939,214.061c7.146,6.179,13.82,12.854,20,20c1.268,1.466,3.38-0.666,2.121-2.121
				c-6.18-7.146-12.854-13.821-20-20C225.605,210.681,223.474,212.793,224.939,214.061L224.939,214.061z"/>
		</g>
	</g>
	<g>
		<g>
			<path style="fill:#FFFFFF;" d="M248.5,233c1.025-11.96,0.999-24.004,1-36c0-1.935-3-1.935-3,0c-0.001,11.996,0.025,24.04-1,36
				C245.335,234.929,248.336,234.913,248.5,233L248.5,233z"/>
		</g>
	</g>
	<g>
		<g>
			<path style="fill:#FFFFFF;" d="M334.939,212.061c7.146,6.179,13.82,12.854,20,20c1.268,1.466,3.38-0.666,2.121-2.121
				c-6.18-7.146-12.854-13.821-20-20C335.605,208.681,333.474,210.793,334.939,212.061L334.939,212.061z"/>
		</g>
	</g>
	<g>
		<g>
			<path style="fill:#FFFFFF;" d="M355.494,232.68c11.99,0.573,24.024,0.093,36.012-0.36c1.928-0.073,1.936-3.073,0-3
				c-11.987,0.453-24.021,0.933-36.012,0.36C353.56,229.587,353.568,232.587,355.494,232.68L355.494,232.68z"/>
		</g>
	</g>
</g>
</svg>
