<?xml version="1.0" encoding="iso-8859-1"?>
<!-- Generator: Adobe Illustrator 16.0.0, SVG Export Plug-In . SVG Version: 6.00 Build 0)  -->
<!DOCTYPE svg PUBLIC "-//W3C//DTD SVG 1.1//EN" "http://www.w3.org/Graphics/SVG/1.1/DTD/svg11.dtd">
<svg version="1.1" xmlns="http://www.w3.org/2000/svg" xmlns:xlink="http://www.w3.org/1999/xlink" x="0px" y="0px" width="652px"
	 height="320px" viewBox="0 0 652 320" style="enable-background:new 0 0 652 320;" xml:space="preserve">
<g id="Background">
</g>
<g id="Objects">
	<g>
		<g>
			<g>
				<path style="fill:#FFFFFF;" d="M18.831,46.955c2.468,28.075,1.318,56.269,2.598,84.394c0.088,1.926,3.088,1.935,3,0
					c-1.279-28.125-0.13-56.319-2.598-84.394C21.663,45.043,18.662,45.027,18.831,46.955L18.831,46.955z"/>
			</g>
		</g>
		<g>
			<g>
				<path style="fill:#FFFFFF;" d="M20.331,48.455c37.646-0.035,75.329-1.552,112.958-2.596c-0.5-0.5-1-1-1.5-1.5
					c0.542,28.867,1.965,58.166,0,86.99c0.367-0.482,0.734-0.964,1.102-1.446c-36.058,8.055-73.488,1.348-109.962,1.245
					c-1.935-0.005-1.935,2.995,0,3c36.772,0.104,74.403,6.77,110.759-1.352c0.68-0.151,1.058-0.8,1.102-1.446
					c1.965-28.825,0.542-58.123,0-86.99c-0.016-0.8-0.671-1.523-1.5-1.5C95.66,43.903,57.977,45.42,20.331,45.455
					C18.396,45.457,18.396,48.457,20.331,48.455L20.331,48.455z"/>
			</g>
		</g>
		<g>
			<g>
				<path style="fill:#FFFFFF;" d="M21.629,71.826c37.225-0.022,74.436-1.276,111.66-1.299c1.935-0.001,1.935-3.001,0-3
					c-37.225,0.022-74.436,1.276-111.66,1.299C19.694,68.827,19.694,71.827,21.629,71.826L21.629,71.826z"/>
			</g>
		</g>
		<g>
			<g>
				<path style="fill:#FFFFFF;" d="M51.902,99.951c3.816-4.435,7.662-8.981,12.68-12.1c-0.734-0.299-1.469-0.598-2.203-0.896
					c1.746,9.759,0.672,19.624,0.596,29.463c-0.015,1.935,2.985,1.934,3,0c0.078-10.129,1.094-20.218-0.703-30.261
					c-0.17-0.95-1.434-1.375-2.203-0.896c-5.246,3.261-9.293,7.927-13.287,12.569C48.526,99.288,50.639,101.42,51.902,99.951
					L51.902,99.951z"/>
			</g>
		</g>
		<g>
			<g>
				<path style="fill:#FFFFFF;" d="M78.753,91.207c2.684-3.899,7.521-6.161,10.925-1.652c2.466,3.267,0.967,7.91-0.701,11.125
					c-2.468,4.76-6.361,8.523-7.122,14.04c-0.118,0.855,0.37,2.022,1.446,1.899c6.804-0.776,13.506-2.351,20.376-1.353
					c1.892,0.275,2.706-2.615,0.797-2.893c-7.2-1.047-14.038,0.431-21.173,1.245c0.482,0.633,0.965,1.266,1.446,1.899
					c1.296-9.4,12.466-15.788,8.199-26.191c-3.396-8.28-12.765-5.473-16.783,0.367C75.062,91.292,77.664,92.79,78.753,91.207
					L78.753,91.207z"/>
			</g>
		</g>
	</g>
	<g>
		<g>
			<g>
				<path style="fill:#FFFFFF;" d="M18.831,198.958c2.468,28.075,1.318,56.269,2.598,84.394c0.088,1.926,3.088,1.935,3,0
					c-1.279-28.125-0.13-56.319-2.598-84.394C21.663,197.046,18.662,197.03,18.831,198.958L18.831,198.958z"/>
			</g>
		</g>
		<g>
			<g>
				<path style="fill:#FFFFFF;" d="M20.331,200.458c37.646-0.035,75.329-1.552,112.958-2.597c-0.5-0.5-1-1-1.5-1.5
					c0.542,28.868,1.965,58.166,0,86.991c0.367-0.482,0.734-0.964,1.102-1.446c-36.058,8.054-73.488,1.348-109.962,1.245
					c-1.935-0.005-1.935,2.995,0,3c36.772,0.104,74.403,6.769,110.759-1.352c0.68-0.151,1.058-0.8,1.102-1.446
					c1.965-28.825,0.542-58.123,0-86.991c-0.016-0.8-0.671-1.523-1.5-1.5c-37.629,1.045-75.312,2.562-112.958,2.597
					C18.396,197.459,18.396,200.459,20.331,200.458L20.331,200.458z"/>
			</g>
		</g>
		<g>
			<g>
				<path style="fill:#FFFFFF;" d="M21.629,223.828c37.225-0.022,74.436-1.276,111.66-1.298c1.935-0.001,1.935-3.001,0-3
					c-37.225,0.022-74.436,1.276-111.66,1.298C19.694,220.829,19.694,223.829,21.629,223.828L21.629,223.828z"/>
			</g>
		</g>
		<g>
			<g>
				<path style="fill:#FFFFFF;" d="M51.902,251.953c3.816-4.435,7.663-8.981,12.68-12.1c-0.734-0.299-1.469-0.598-2.203-0.896
					c1.746,9.759,0.672,19.624,0.596,29.464c-0.015,1.935,2.985,1.934,3,0c0.078-10.129,1.094-20.218-0.703-30.262
					c-0.17-0.95-1.434-1.375-2.203-0.896c-5.246,3.261-9.293,7.928-13.287,12.569C48.526,251.29,50.639,253.421,51.902,251.953
					L51.902,251.953z"/>
			</g>
		</g>
		<g>
			<g>
				<path style="fill:#F6FBFC;" d="M82.231,241.966c8.562-9.411,17.898,7.207,5.147,9.773c-1.677,0.337-1.273,2.987,0.398,2.946
					c3.115-0.076,6.254,0.285,8.189,3.072c2.119,3.052-0.461,6.944-3.095,8.431c-4.036,2.279-10.035,0.953-14.135-0.414
					c-1.841-0.614-2.623,2.284-0.797,2.893c5.789,1.93,16.371,3.459,20.095-3.082c4.678-8.217-2.199-14.095-10.258-13.9
					c0.133,0.982,0.266,1.964,0.398,2.946c6.869-1.382,10.721-6.944,7.672-13.619c-3.215-7.042-11.226-6.127-15.737-1.167
					C78.812,241.272,80.928,243.4,82.231,241.966L82.231,241.966z"/>
			</g>
		</g>
	</g>
	<g>
		<g>
			<path style="fill:#FFFFFF;" d="M211.624,130.7c-16.83-9.787-27.562-26.671-24.499-46.508
				c2.609-16.903,14.793-31.736,30.596-38.03c20.418-8.133,44.077,0.297,56.994,17.453c14.967,19.878,11.09,48.442-8.991,63.141
				c-13.913,10.184-33.717,13.195-49.635,6.215c-1.754-0.769-3.282,1.815-1.514,2.591c17.802,7.805,39.904,4.27,54.951-7.941
				c16.031-13.009,21.955-35.717,13.784-54.843c-8.233-19.271-26.939-31.968-47.842-32.707c-15.988-0.565-31.544,7.592-41.098,20.24
				c-7.956,10.534-12.298,24.042-10.367,37.259c2.301,15.743,12.637,27.888,26.106,35.721
				C211.786,134.265,213.295,131.672,211.624,130.7L211.624,130.7z"/>
		</g>
	</g>
	<g>
		<g>
			<path style="fill:#FFFFFF;" d="M364.166,142.759c15.813-6.163,29.922-16.623,35.876-33.036
				c4.827-13.308,2.407-28.237-4.243-40.446c-6.768-12.424-18.5-21.972-32.103-25.856c-17.215-4.916-35.605,0.943-48.45,12.938
				c-17.015,15.89-19.931,40.602-9.219,60.833c10.188,19.243,33.206,27.648,53.962,25.777c1.911-0.172,1.928-3.174,0-3
				c-24.146,2.177-48.41-9.889-55.349-34.249c-7.236-25.405,7.646-51.453,32.956-59.07c31.563-9.5,62.947,17.909,61.935,49.875
				c-0.674,21.314-17.521,36.075-36.162,43.34C361.587,140.561,362.361,143.463,364.166,142.759L364.166,142.759z"/>
		</g>
	</g>
	<g>
		<g>
			<path style="fill:#FFFFFF;" d="M444.979,132.841c-16.83-9.787-27.562-26.671-24.499-46.509
				c2.609-16.903,14.793-31.735,30.597-38.03c20.418-8.133,44.077,0.296,56.993,17.453c14.941,19.845,11.301,49.382-9.661,63.371
				c-14.603,9.746-33.986,10.812-50.749,7.529c-1.889-0.37-2.695,2.521-0.797,2.893c20.634,4.042,44.329,1.506,60.203-13.499
				c15.531-14.682,16.659-39.338,6.59-57.231c-9.902-17.594-30.139-27.959-50.126-26.443c-15.947,1.209-30.035,10.809-38.582,24.052
				c-6.864,10.636-9.494,23.726-7.104,36.146c2.779,14.443,13.251,25.664,25.622,32.858
				C445.142,136.406,446.65,133.813,444.979,132.841L444.979,132.841z"/>
		</g>
	</g>
	<g>
		<g>
			<path style="fill:#FFFFFF;" d="M592.664,141.954c-17.319-0.241-35.006-5.557-45.85-19.849
				c-8.456-11.145-10.749-25.896-7.568-39.345c3.317-14.027,12.959-25.705,25.947-31.837c19.905-9.398,44.512-3.518,58.725,13.009
				c10.403,12.098,12.914,30.56,7.575,45.337c-5.399,14.943-19.323,25.608-33.896,30.71c-1.813,0.635-1.033,3.534,0.797,2.893
				c20.036-7.015,36.584-23.239,38.726-45.055c2.126-21.66-10.992-42.427-31.042-50.387c-30.256-12.011-64.342,5.415-70.389,37.664
				c-2.65,14.138,0.889,28.852,9.784,40.14c11.223,14.24,29.747,19.476,47.19,19.719C594.6,144.981,594.597,141.981,592.664,141.954
				L592.664,141.954z"/>
		</g>
	</g>
	<g>
		<g>
			<path style="fill:#FFFFFF;" d="M211.061,73.508c7.65,6.614,14.795,13.759,21.409,21.409c1.268,1.466,3.38-0.666,2.121-2.121
				c-6.614-7.65-13.759-14.794-21.409-21.409C211.727,70.128,209.595,72.241,211.061,73.508L211.061,73.508z"/>
		</g>
	</g>
	<g>
		<g>
			<path style="fill:#FFFFFF;" d="M236.101,93.856c1.103-12.802,1.07-25.696,1.071-38.536c0-1.935-3-1.935-3,0
				c-0.001,12.84,0.031,25.734-1.071,38.536C232.935,95.785,235.936,95.769,236.101,93.856L236.101,93.856z"/>
		</g>
	</g>
	<g>
		<g>
			<path style="fill:#FFFFFF;" d="M328.809,71.367c7.65,6.614,14.795,13.759,21.409,21.409c1.268,1.466,3.38-0.666,2.121-2.121
				c-6.614-7.65-13.759-14.795-21.409-21.409C329.475,67.987,327.343,70.1,328.809,71.367L328.809,71.367z"/>
		</g>
	</g>
	<g>
		<g>
			<path style="fill:#FFFFFF;" d="M349.957,90.651c-1.221,12.791-1.31,25.685-1.429,38.524c-0.019,1.935,2.981,1.934,3,0
				c0.119-12.839,0.208-25.733,1.429-38.524C353.141,88.726,350.139,88.743,349.957,90.651L349.957,90.651z"/>
		</g>
	</g>
	<g>
		<g>
			<path style="fill:#FFFFFF;" d="M585.454,56.397c-1.222,12.791-1.31,25.685-1.429,38.524c-0.018,1.935,2.982,1.934,3,0
				c0.119-12.839,0.207-25.733,1.429-38.524C588.638,54.472,585.637,54.489,585.454,56.397L585.454,56.397z"/>
		</g>
	</g>
	<g>
		<g>
			<path style="fill:#FFFFFF;" d="M470.917,201.978c-1.222,12.791-1.311,25.684-1.429,38.523c-0.018,1.936,2.982,1.934,3,0
				c0.118-12.839,0.207-25.732,1.429-38.523C474.102,200.052,471.1,200.069,470.917,201.978L470.917,201.978z"/>
		</g>
	</g>
	<g>
		<g>
			<path style="fill:#FFFFFF;" d="M444.416,75.649c7.65,6.614,14.795,13.759,21.41,21.409c1.268,1.466,3.38-0.666,2.121-2.121
				c-6.615-7.65-13.76-14.795-21.41-21.409C445.082,72.27,442.95,74.382,444.416,75.649L444.416,75.649z"/>
		</g>
	</g>
	<g>
		<g>
			<path style="fill:#FFFFFF;" d="M469.826,94.775c6.342-11.176,11.691-22.908,17.048-34.577c0.802-1.745-1.784-3.271-2.59-1.515
				c-5.356,11.67-10.706,23.402-17.048,34.577C466.279,94.946,468.872,96.457,469.826,94.775L469.826,94.775z"/>
		</g>
	</g>
	<g>
		<g>
			<path style="fill:#FFFFFF;" d="M448.191,278.42c-16.83-9.787-27.562-26.671-24.5-46.508c2.609-16.904,14.793-31.735,30.597-38.03
				c20.418-8.133,44.077,0.296,56.993,17.453c14.967,19.878,11.09,48.442-8.991,63.141c-13.913,10.184-33.716,13.195-49.633,6.215
				c-1.754-0.769-3.282,1.815-1.514,2.591c17.801,7.806,39.903,4.269,54.949-7.941c16.03-13.009,21.955-35.718,13.784-54.843
				c-8.233-19.271-26.939-31.968-47.842-32.707c-15.987-0.565-31.544,7.592-41.097,20.24c-7.957,10.534-12.299,24.042-10.367,37.259
				c2.3,15.743,12.637,27.888,26.106,35.721C448.354,281.985,449.863,279.393,448.191,278.42L448.191,278.42z"/>
		</g>
	</g>
	<g>
		<g>
			<path style="fill:#FFFFFF;" d="M246.418,285.128c15.812-6.163,29.922-16.624,35.875-33.036
				c4.828-13.308,2.408-28.237-4.243-40.446c-6.768-12.424-18.5-21.972-32.103-25.856c-17.215-4.916-35.605,0.943-48.449,12.938
				c-17.016,15.891-19.931,40.602-9.22,60.833c10.188,19.243,33.207,27.648,53.963,25.776c1.911-0.172,1.928-3.174,0-3
				c-24.146,2.177-48.411-9.889-55.349-34.249c-7.236-25.404,7.645-51.454,32.955-59.071c31.563-9.5,62.947,17.909,61.936,49.875
				c-0.675,21.314-17.521,36.075-36.162,43.341C243.839,282.93,244.613,285.832,246.418,285.128L246.418,285.128z"/>
		</g>
	</g>
	<g>
		<g>
			<path style="fill:#FFFFFF;" d="M330.442,278.42c-16.83-9.787-27.562-26.671-24.499-46.508
				c2.609-16.903,14.793-31.735,30.596-38.03c20.418-8.133,44.078,0.296,56.995,17.453c14.941,19.845,11.301,49.381-9.662,63.371
				c-14.603,9.745-33.986,10.812-50.749,7.529c-1.889-0.37-2.695,2.521-0.797,2.893c20.635,4.042,44.329,1.505,60.203-13.499
				c15.532-14.682,16.66-39.338,6.59-57.23c-9.902-17.594-30.139-27.959-50.127-26.443c-15.946,1.209-30.034,10.809-38.581,24.052
				c-6.864,10.636-9.494,23.726-7.104,36.146c2.779,14.443,13.251,25.664,25.622,32.858
				C330.604,281.985,332.113,279.393,330.442,278.42L330.442,278.42z"/>
		</g>
	</g>
	<g>
		<g>
			<path style="fill:#FFFFFF;" d="M211.061,221.229c7.65,6.614,14.795,13.759,21.409,21.409c1.268,1.466,3.38-0.666,2.121-2.121
				c-6.614-7.65-13.759-14.795-21.409-21.409C211.727,217.849,209.595,219.961,211.061,221.229L211.061,221.229z"/>
		</g>
	</g>
	<g>
		<g>
			<path style="fill:#FFFFFF;" d="M236.101,241.577c1.103-12.802,1.07-25.696,1.071-38.536c0-1.935-3-1.935-3,0
				c-0.001,12.84,0.031,25.734-1.071,38.536C232.935,243.505,235.936,243.489,236.101,241.577L236.101,241.577z"/>
		</g>
	</g>
	<g>
		<g>
			<path style="fill:#FFFFFF;" d="M328.809,219.088c7.65,6.614,14.794,13.759,21.409,21.409c1.268,1.466,3.38-0.666,2.121-2.121
				c-6.614-7.65-13.759-14.794-21.409-21.409C329.475,215.708,327.343,217.821,328.809,219.088L328.809,219.088z"/>
		</g>
	</g>
	<g>
		<g>
			<path style="fill:#FFFFFF;" d="M350.737,241.129c12.834,0.618,25.718,0.1,38.548-0.385c1.928-0.073,1.936-3.073,0-3
				c-12.83,0.485-25.714,1.003-38.548,0.385C348.803,238.036,348.812,241.036,350.737,241.129L350.737,241.129z"/>
		</g>
	</g>
</g>
</svg>
