<?xml version="1.0" encoding="utf-8"?>
<!-- Generator: Adobe Illustrator 15.1.0, SVG Export Plug-In . SVG Version: 6.00 Build 0)  -->
<!DOCTYPE svg PUBLIC "-//W3C//DTD SVG 1.1//EN" "http://www.w3.org/Graphics/SVG/1.1/DTD/svg11.dtd">
<svg version="1.1" id="Layer_1" xmlns="http://www.w3.org/2000/svg" xmlns:xlink="http://www.w3.org/1999/xlink" x="0px" y="0px"
	 width="40px" height="40px" viewBox="10 10 40 40" enable-background="new 10 10 40 40" xml:space="preserve">
<g>
	<path fill="#D1EEFC" d="M38.458,17.47c2.001,0,3.623,1.624,3.623,3.623v17.813c0,2.001-1.622,3.624-3.623,3.624H21.543
		c-2.001,0-3.624-1.624-3.624-3.624V21.093c0-2,1.621-3.623,3.624-3.623H38.458 M38.458,19.281H21.543
		c-0.999,0-1.812,0.812-1.812,1.812v17.813c0,0.999,0.812,1.812,1.812,1.812h16.915c0.998,0,1.812-0.812,1.812-1.812V21.093
		C40.271,20.094,39.456,19.281,38.458,19.281L38.458,19.281z"/>
</g>
<path display="none" fill="#FFFFFF" d="M40.245,38.907c0,0.998-0.815,1.812-1.812,1.812H21.518c-0.999,0-1.812-0.813-1.812-1.812
	V21.094c0-0.999,0.812-1.812,1.812-1.812h15.241c0.679-0.588,1.386-1.183,2.121-1.781c-0.146-0.018-0.294-0.031-0.447-0.031H21.518
	c-2.002,0-3.624,1.623-3.624,3.624v17.813c0,2.002,1.622,3.623,3.624,3.623h16.915c1.999,0,3.622-1.621,3.622-3.623V26.529
	c-0.613,0.804-1.219,1.624-1.811,2.455L40.245,38.907L40.245,38.907z M47.95,13.932c-8.495,5.209-14.659,11.781-17.429,15.08
	l-6.784-5.316l-2.996,2.416l11.722,11.922c2.018-5.169,8.405-15.268,16.207-22.443L47.95,13.932z"/>
<polygon id="x-mark-icon" display="none" fill="#FFFFFF" points="42.541,38.166 34.385,30.01 42.541,21.852 38.154,17.469 
	30,25.625 21.844,17.471 17.458,21.853 25.617,30.01 17.46,38.168 21.842,42.553 30.001,34.394 38.16,42.552 "/>
</svg>
