<?xml version="1.0" encoding="utf-8"?>
<!-- Generator: Adobe Illustrator 15.1.0, SVG Export Plug-In . SVG Version: 6.00 Build 0)  -->
<!DOCTYPE svg PUBLIC "-//W3C//DTD SVG 1.1//EN" "http://www.w3.org/Graphics/SVG/1.1/DTD/svg11.dtd">
<svg version="1.1" id="Layer_1" xmlns="http://www.w3.org/2000/svg" xmlns:xlink="http://www.w3.org/1999/xlink" x="0px" y="0px"
	 width="40px" height="40px" viewBox="10 10 40 40" enable-background="new 10 10 40 40" xml:space="preserve">
<g display="none">
	<path display="inline" fill="#D1EEFC" d="M43.121,10.561c3.104,0,5.621,2.519,5.621,5.621v27.634c0,3.104-2.518,5.623-5.621,5.623
		H16.879c-3.105,0-5.622-2.52-5.622-5.623V16.182c0-3.103,2.516-5.621,5.622-5.621H43.121 M43.121,13.372H16.879
		c-1.55,0-2.811,1.261-2.811,2.81v27.634c0,1.552,1.26,2.812,2.811,2.812h26.242c1.547,0,2.812-1.26,2.812-2.812V16.182
		C45.934,14.633,44.668,13.372,43.121,13.372L43.121,13.372z"/>
</g>
<g display="none">
	<g display="inline">
		<path fill="#EDF5F9" d="M7.571,18.075c0-3.828,3.101-6.929,6.927-6.929l0,0v2.721c-2.322,0.004-4.202,1.886-4.207,4.208l0,0l0,0
			H7.571L7.571,18.075z"/>
	</g>
	<g display="inline">
		<polygon fill="#EDF5F9" points="7.571,25.73 7.571,20.161 10.291,20.161 10.291,25.73 		"/>
	</g>
	<g display="inline">
		<polygon fill="#EDF5F9" points="7.57,32.998 7.57,27.432 10.291,27.432 10.291,32.998 		"/>
	</g>
	<g display="inline">
		<polygon fill="#EDF5F9" points="7.571,40.42 7.571,34.854 10.291,34.854 10.291,40.42 		"/>
	</g>
	<g display="inline">
		<polygon fill="#EDF5F9" points="43.139,25.73 43.139,20.161 45.861,20.161 45.861,25.73 		"/>
	</g>
	<g display="inline">
		<polygon fill="#EDF5F9" points="43.139,32.998 43.139,27.432 45.861,27.432 45.861,32.998 		"/>
	</g>
	<g display="inline">
		<polygon fill="#EDF5F9" points="43.139,40.42 43.139,34.854 45.861,34.854 45.861,40.42 		"/>
	</g>
	<g display="inline">
		<polygon fill="#EDF5F9" points="31.199,49.361 31.199,46.641 36.768,46.641 36.768,49.361 		"/>
	</g>
	<g display="inline">
		<polygon fill="#EDF5F9" points="23.931,49.361 23.931,46.641 29.498,46.641 29.498,49.361 		"/>
	</g>
	<g display="inline">
		<polygon fill="#EDF5F9" points="16.509,49.361 16.509,46.641 22.077,46.641 22.077,49.361 		"/>
	</g>
	<g display="inline">
		<polygon fill="#EDF5F9" points="31.199,13.866 31.199,11.146 36.768,11.146 36.768,13.866 		"/>
	</g>
	<g display="inline">
		<polygon fill="#EDF5F9" points="23.931,13.866 23.931,11.146 29.498,11.146 29.498,13.866 		"/>
	</g>
	<g display="inline">
		<polygon fill="#EDF5F9" points="16.509,13.866 16.509,11.146 22.077,11.146 22.077,13.866 		"/>
	</g>
	<g display="inline">
		<path fill="#EDF5F9" d="M7.57,42.344h2.721c0.003,2.322,1.884,4.201,4.207,4.205l0,0v0.004v2.717
			C10.672,49.27,7.571,46.168,7.57,42.344L7.57,42.344z"/>
	</g>
	<g display="inline">
		<path fill="#EDF5F9" d="M38.855,46.549c2.324-0.004,4.203-1.883,4.207-4.205l0,0h2.721c0,3.828-3.1,6.926-6.928,6.926l0,0V46.549
			L38.855,46.549z"/>
	</g>
	<g display="inline">
		<path fill="#EDF5F9" d="M43.062,18.075c-0.004-2.322-1.883-4.204-4.207-4.208l0,0v-2.721c3.828,0,6.928,3.102,6.928,6.929l0,0
			H43.062L43.062,18.075z"/>
	</g>
</g>
<path display="none" fill="#FFFFFF" d="M10.294,20.165H7.57v5.567h2.724V20.165z M10.291,27.434H7.57V33h2.721V27.434z
	 M10.291,34.854H7.573v5.568h2.718V34.854z M29.498,11.149h-5.564v2.721h5.564V11.149z M36.77,13.472V11.15h-5.567v2.721h5.104
	C36.461,13.738,36.615,13.606,36.77,13.472z M14.499,13.871V11.15c-3.827,0-6.925,3.102-6.928,6.929h2.724
	C10.298,15.753,12.176,13.874,14.499,13.871z M22.077,11.149h-5.565v2.721h5.565V11.149z M10.291,42.344H7.573
	c0,3.828,3.099,6.93,6.925,6.93v-2.721C12.176,46.549,10.298,44.666,10.291,42.344z M43.143,40.422h2.721v-5.568h-2.721V40.422z
	 M43.143,33h2.721v-5.566h-2.721V33z M43.449,25.732h2.414v-3.107C45.049,23.643,44.242,24.68,43.449,25.732z M23.934,49.361h5.564
	v-2.721h-5.564V49.361z M16.512,49.361h5.565v-2.721h-5.565V49.361z M31.201,49.361h5.568v-2.721h-5.568V49.361z M38.855,46.553
	v2.721c3.828,0,6.93-3.102,6.93-6.926h-2.721C43.061,44.672,41.18,46.549,38.855,46.553z M52.918,6
	C40.16,13.823,30.9,23.692,26.744,28.645l-10.19-7.981l-4.497,3.626l17.604,17.903C32.689,34.432,42.285,19.266,54,8.49L52.918,6z"
	/>
<polygon id="x-mark-icon" fill="#FFFFFF" points="42.541,38.155 34.385,29.999 42.541,21.841 38.154,17.458 30,25.614 21.844,17.46 
	17.459,21.842 25.617,29.999 17.461,38.157 21.842,42.542 30.002,34.383 38.16,42.541 "/>
</svg>
