<?xml version="1.0" encoding="utf-8"?>
<!-- Generator: Adobe Illustrator 16.0.0, SVG Export Plug-In . SVG Version: 6.00 Build 0)  -->
<!DOCTYPE svg PUBLIC "-//W3C//DTD SVG 1.1//EN" "http://www.w3.org/Graphics/SVG/1.1/DTD/svg11.dtd">
<svg version="1.1" id="Layer_1" xmlns="http://www.w3.org/2000/svg" xmlns:xlink="http://www.w3.org/1999/xlink" x="0px" y="0px"
	 width="16px" height="12px" viewBox="0 0 16 12" enable-background="new 0 0 16 12" xml:space="preserve">
<path id="email-2-icon_1_" fill="#FFFFFF" d="M0.457,0.667v11.16h0.014h15.034h0.039V0.667H0.457z M13.835,1.946L7.998,6.41
	L2.166,1.946H13.835z M1.738,3.229l3.125,2.393L1.738,8.75V3.229z M1.75,10.547l4.141-4.139l2.107,1.614l2.098-1.604l4.131,4.13
	H1.75L1.75,10.547z M14.264,8.775l-3.141-3.143l3.141-2.403V8.775z"/>
<path id="email-2-icon" fill="#5FB7CA" d="M0.457,0v11.16h0.014h15.034h0.039V0H0.457z M13.835,1.28L7.998,5.744L2.166,1.28H13.835z
	 M1.738,2.563l3.125,2.393L1.738,8.084V2.563z M1.75,9.881l4.141-4.14l2.107,1.614l2.098-1.605l4.131,4.13H1.75L1.75,9.881z
	 M14.264,8.107l-3.141-3.142l3.141-2.403V8.107z"/>
</svg>
