<?xml version="1.0" encoding="utf-8"?>
<!-- Generator: Adobe Illustrator 16.2.0, SVG Export Plug-In . SVG Version: 6.00 Build 0)  -->
<!DOCTYPE svg PUBLIC "-//W3C//DTD SVG 1.1//EN" "http://www.w3.org/Graphics/SVG/1.1/DTD/svg11.dtd">
<svg version="1.1" id="Layer_1" xmlns="http://www.w3.org/2000/svg" xmlns:xlink="http://www.w3.org/1999/xlink" x="0px" y="0px"
	 width="16px" height="16px" viewBox="0 0 16 16" enable-background="new 0 0 16 16" xml:space="preserve">
<g>
	<path fill="#FFFFFF" d="M4.952,8.196C4.837,8.5,4.717,8.805,4.587,9.143C4.341,8.827,2.876,4.928,2.232,3.291
		C2.1,2.953,1.96,2.619,1.832,2.279c-0.183-0.49-0.64-0.728-1.092-0.557C0.264,1.9,0.036,2.387,0.225,2.86
		c0.366,0.914,0.746,1.82,1.111,2.733c0.406,1.014,0.861,2.008,1.236,3.036c0.304,0.838,0.676,1.653,1.021,2.477
		c0.037,0.086,0.057,0.174,0.019,0.254c-0.201,0.416-0.34,0.865-0.595,1.257c-0.232,0.354-0.539,0.595-0.975,0.657
		c-0.284,0.041-0.565,0.011-0.848,0.018c-0.386,0.009-0.68,0.279-0.705,0.652c-0.026,0.359,0.219,0.666,0.584,0.738
		c0.333,0.065,0.668,0.06,1.005,0.045c0.949-0.037,1.702-0.43,2.206-1.25c0.488-0.797,0.753-1.692,1.131-2.541
		c0.278-0.625,0.521-1.269,0.775-1.903C6.467,8.35,6.742,7.67,7.011,6.987c0.242-0.616,0.454-1.245,0.721-1.851
		c0.335-0.764,0.66-1.532,0.958-2.31c0.144-0.37-0.039-0.77-0.38-0.944C7.917,1.683,7.583,1.77,7.307,2.105
		c-0.124,0.15-0.182,0.317-0.246,0.49C6.378,4.413,5.693,6.231,5.008,8.048C4.989,8.098,4.971,8.146,4.952,8.196L4.952,8.196z"/>
	<path fill="#FFFFFF" d="M13.805,12.734c-0.021,0.242-0.113,0.498-0.396,0.64c-0.251,0.126-0.509,0.14-0.757-0.021
		c-1.077-0.705-2.127-1.457-3.102-2.306c-0.152-0.132-0.287-0.284-0.42-0.438c-0.046-0.055-0.099-0.133-0.045-0.217
		c0.045-0.07,0.123-0.065,0.191-0.062c0.222,0.008,0.438,0.055,0.646,0.124c1.238,0.409,2.402,0.983,3.537,1.619
		C13.709,12.21,13.803,12.404,13.805,12.734z"/>
	<path fill="#FFFFFF" d="M13.052,3.291c0.355,0.013,0.632,0.223,0.732,0.543c0.1,0.311-0.015,0.688-0.296,0.865
		c-0.575,0.363-1.196,0.644-1.814,0.926c-0.689,0.315-1.383,0.63-2.134,0.786C9.377,6.444,9.158,6.519,9.08,6.35
		c-0.074-0.162,0.097-0.305,0.23-0.429c0.996-0.933,2.121-1.698,3.25-2.459C12.715,3.356,12.876,3.266,13.052,3.291z"/>
	<path fill="#FFFFFF" d="M14.372,9.104c-1.208-0.064-2.42-0.071-3.603-0.367c-0.195-0.047-0.502-0.057-0.494-0.304
		c0.008-0.216,0.31-0.226,0.496-0.273c1.176-0.301,2.377-0.436,3.582-0.548c0.133-0.013,0.265-0.029,0.396-0.04
		c0.438-0.034,0.797,0.28,0.819,0.714c0.025,0.445-0.305,0.809-0.746,0.816C14.672,9.105,14.521,9.104,14.372,9.104z"/>
</g>
</svg>
