<?xml version="1.0" encoding="utf-8"?>
<!-- Generator: Adobe Illustrator 16.0.0, SVG Export Plug-In . SVG Version: 6.00 Build 0)  -->
<!DOCTYPE svg PUBLIC "-//W3C//DTD SVG 1.1//EN" "http://www.w3.org/Graphics/SVG/1.1/DTD/svg11.dtd">
<svg version="1.1" id="Layer_1" xmlns="http://www.w3.org/2000/svg" xmlns:xlink="http://www.w3.org/1999/xlink" x="0px" y="0px"
	 width="36px" height="20px" viewBox="238 246 36 20" enable-background="new 238 246 36 20" xml:space="preserve">
<g id="user-14-icon">
	<g opacity="0.7">
		<path fill="#FFFFFF" d="M271.942,265.001h-6.188c0-6.734-3.366-3.533-3.366-9.434c0-2.13,1.395-3.286,3.186-3.286
			c2.646,0,4.486,2.526,1.981,7.25c-0.823,1.552,0.876,1.92,2.702,2.342C272.082,262.293,271.942,263.255,271.942,265.001z
			 M241.743,261.872c1.826-0.422,3.525-0.79,2.702-2.342c-2.505-4.724-0.664-7.25,1.981-7.25c1.791,0,3.185,1.156,3.185,3.286
			c0,5.901-3.366,2.7-3.366,9.434h-6.187C240.058,263.255,239.917,262.293,241.743,261.872z M261.892,261.064
			c-2.297-0.529-4.435-0.993-3.399-2.945c3.151-5.941,0.836-9.118-2.492-9.118c-3.394,0-5.652,3.299-2.492,9.118
			c1.066,1.964-1.152,2.428-3.399,2.945c-2.295,0.53-2.119,1.74-2.119,3.937h16.021
			C264.011,262.805,264.187,261.595,261.892,261.064z"/>
	</g>
	<g>
		<path fill="#969696" d="M271.942,264.001h-6.188c0-6.734-3.366-3.533-3.366-9.434c0-2.13,1.395-3.286,3.186-3.286
			c2.646,0,4.486,2.526,1.981,7.25c-0.823,1.552,0.876,1.92,2.702,2.342C272.082,261.293,271.942,262.255,271.942,264.001z
			 M241.743,260.872c1.826-0.422,3.525-0.79,2.702-2.342c-2.505-4.724-0.664-7.25,1.981-7.25c1.791,0,3.185,1.156,3.185,3.286
			c0,5.901-3.366,2.7-3.366,9.434h-6.187C240.058,262.255,239.917,261.293,241.743,260.872z M261.892,260.064
			c-2.297-0.529-4.435-0.993-3.399-2.945c3.151-5.941,0.836-9.118-2.492-9.118c-3.394,0-5.652,3.299-2.492,9.118
			c1.066,1.964-1.152,2.428-3.399,2.945c-2.295,0.53-2.119,1.74-2.119,3.937h16.021
			C264.011,261.805,264.187,260.595,261.892,260.064z"/>
	</g>
</g>
</svg>
