<?xml version="1.0" encoding="iso-8859-1"?>
<!-- Generator: Adobe Illustrator 16.0.0, SVG Export Plug-In . SVG Version: 6.00 Build 0)  -->
<!DOCTYPE svg PUBLIC "-//W3C//DTD SVG 1.1//EN" "http://www.w3.org/Graphics/SVG/1.1/DTD/svg11.dtd">
<svg version="1.1" id="Layer_1" xmlns="http://www.w3.org/2000/svg" xmlns:xlink="http://www.w3.org/1999/xlink" x="0px" y="0px"
	 width="16px" height="16px" viewBox="0 0 16 16" style="enable-background:new 0 0 16 16;" xml:space="preserve">
<g>
	<path style="fill-rule:evenodd;clip-rule:evenodd;fill:#3DA2B6;" d="M4.952,8.196C4.837,8.5,4.717,8.805,4.587,9.143
		C4.341,8.827,2.876,4.928,2.232,3.291C2.1,2.953,1.96,2.619,1.832,2.279c-0.183-0.49-0.64-0.728-1.092-0.557
		C0.264,1.9,0.036,2.387,0.225,2.86c0.366,0.914,0.746,1.82,1.111,2.733c0.406,1.014,0.861,2.008,1.236,3.036
		c0.304,0.838,0.676,1.653,1.021,2.476c0.037,0.087,0.057,0.174,0.019,0.254c-0.201,0.417-0.34,0.865-0.595,1.256
		c-0.232,0.356-0.539,0.595-0.975,0.658c-0.284,0.041-0.565,0.01-0.848,0.017c-0.386,0.009-0.68,0.28-0.705,0.653
		c-0.026,0.36,0.219,0.666,0.584,0.738c0.333,0.066,0.668,0.059,1.005,0.045c0.949-0.037,1.702-0.429,2.206-1.25
		c0.488-0.796,0.753-1.693,1.131-2.54c0.278-0.626,0.521-1.269,0.775-1.905C6.467,8.35,6.742,7.67,7.011,6.987
		c0.242-0.616,0.454-1.245,0.721-1.851c0.335-0.764,0.66-1.532,0.958-2.31C8.832,2.456,8.65,2.056,8.308,1.882
		C7.917,1.683,7.583,1.77,7.307,2.105c-0.124,0.15-0.182,0.317-0.246,0.49C6.378,4.413,5.693,6.231,5.008,8.048
		C4.989,8.098,4.971,8.146,4.952,8.196L4.952,8.196z"/>
	<path style="fill-rule:evenodd;clip-rule:evenodd;fill:#3DA2B6;" d="M13.804,12.735c-0.02,0.241-0.113,0.497-0.396,0.639
		c-0.251,0.126-0.508,0.139-0.755-0.021c-1.079-0.705-2.127-1.456-3.102-2.304c-0.153-0.132-0.288-0.286-0.42-0.44
		c-0.046-0.054-0.099-0.133-0.045-0.217c0.045-0.07,0.123-0.065,0.191-0.062c0.222,0.008,0.439,0.055,0.646,0.124
		c1.238,0.409,2.402,0.983,3.537,1.619C13.709,12.21,13.803,12.405,13.804,12.735z"/>
	<path style="fill-rule:evenodd;clip-rule:evenodd;fill:#3DA2B6;" d="M13.052,3.291c0.355,0.013,0.631,0.223,0.732,0.543
		c0.1,0.311-0.014,0.688-0.295,0.865c-0.576,0.363-1.197,0.644-1.815,0.926c-0.689,0.315-1.383,0.63-2.134,0.786
		C9.377,6.444,9.158,6.519,9.08,6.35C9.006,6.188,9.177,6.045,9.31,5.921c0.997-0.933,2.122-1.698,3.25-2.459
		C12.715,3.356,12.876,3.266,13.052,3.291z"/>
	<path style="fill-rule:evenodd;clip-rule:evenodd;fill:#3DA2B6;" d="M14.372,9.103c-1.208-0.065-2.42-0.072-3.603-0.366
		c-0.195-0.048-0.502-0.057-0.493-0.306c0.007-0.216,0.309-0.226,0.495-0.273c1.176-0.301,2.378-0.436,3.583-0.548
		c0.133-0.013,0.264-0.029,0.396-0.04c0.437-0.034,0.797,0.28,0.821,0.714c0.025,0.447-0.305,0.809-0.748,0.818
		C14.672,9.105,14.522,9.103,14.372,9.103z"/>
</g>
</svg>
