<?xml version="1.0" encoding="iso-8859-1"?>
<!-- Generator: Adobe Illustrator 16.1.0, SVG Export Plug-In . SVG Version: 6.00 Build 0)  -->
<!DOCTYPE svg PUBLIC "-//W3C//DTD SVG 1.1//EN" "http://www.w3.org/Graphics/SVG/1.1/DTD/svg11.dtd">
<svg version="1.1" id="Layer_1" xmlns="http://www.w3.org/2000/svg" xmlns:xlink="http://www.w3.org/1999/xlink" x="0px" y="0px"
	 width="24px" height="24px" viewBox="0 0 24 24" style="enable-background:new 0 0 24 24;" xml:space="preserve">
<g>
	<path style="fill:#3DA2B6;" d="M9.676,17.906l-1.113,1.105c-0.965,0.957-2.979,2.166-4.118,0.559
		c-0.378-0.533-0.718-1.071-0.718-1.721s0.254-1.261,0.718-1.721l4.098-4.065c0.85-0.842,2.447-2.082,3.611-0.927
		c0.535,0.531,1.397,0.527,1.928-0.007c0.53-0.534,0.527-1.396-0.007-1.927C12.095,7.237,9.17,7.6,6.622,10.128l-4.098,4.065
		C1.542,15.169,1,16.468,1,17.849s0.542,2.679,1.524,3.656c1.012,1.003,2.34,1.505,3.669,1.505c1.33,0,3.277-1.06,4.29-2.064
		l1.114-1.106c0.534-0.53,0.537-1.394,0.006-1.928C11.073,17.378,10.21,17.375,9.676,17.906z M21.476,2.672
		c-2.127-2.109-5.761-1.781-7.729,0.171l-1.387,1.377c-0.535,0.53-0.538,1.393-0.008,1.927c0.531,0.534,1.395,0.538,1.929,0.007
		l1.387-1.376c1.02-1.012,3.017-1.035,3.888-0.171c0.464,0.46,0.719,1.071,0.719,1.721s-0.255,1.261-0.719,1.721l-4.371,4.336
		c-1.999,1.983-2.938,1.052-3.338,0.656c-0.534-0.531-1.396-0.527-1.927,0.007c-0.531,0.535-0.528,1.397,0.007,1.927
		c0.918,0.912,1.965,1.363,3.063,1.363c1.344,0,2.764-0.677,4.114-2.018l4.372-4.336C22.458,9.007,23,7.709,23,6.328
		C23,4.947,22.458,3.648,21.476,2.672z"/>
</g>
</svg>
