<?xml version="1.0" encoding="utf-8"?>
<!-- Generator: Adobe Illustrator 16.2.0, SVG Export Plug-In . SVG Version: 6.00 Build 0)  -->
<!DOCTYPE svg PUBLIC "-//W3C//DTD SVG 1.1//EN" "http://www.w3.org/Graphics/SVG/1.1/DTD/svg11.dtd">
<svg version="1.1" id="Layer_1" xmlns="http://www.w3.org/2000/svg" xmlns:xlink="http://www.w3.org/1999/xlink" x="0px" y="0px"
	 width="148.523px" height="34.667px" viewBox="0 0 148.523 34.667" enable-background="new 0 0 148.523 34.667"
	 xml:space="preserve">
<g>
	<g>
		<g>
			
				<linearGradient id="SVGID_1_" gradientUnits="userSpaceOnUse" x1="249.6208" y1="-329.1787" x2="249.6208" y2="-297.6436" gradientTransform="matrix(1 0 0 -1 -242 -296.333)">
				<stop  offset="0" style="stop-color:#EC6E4D"/>
				<stop  offset="1" style="stop-color:#F7A35D"/>
			</linearGradient>
			<path fill="url(#SVGID_1_)" d="M8.6,20.791c-2.929-1.012-4.705-1.754-4.705-3.513c0-2.08,2.037-2.517,3.746-2.517
				c1.935,0,3.258,0.533,4.564,1.84c0.419,0.422,0.85,0.422,0.99,0.422c0.766,0,1.413-0.647,1.413-1.413
				c0-0.408-0.137-0.669-0.357-0.957l-0.013-0.019l-0.016-0.017c-1.585-1.779-3.8-2.682-6.581-2.682
				c-4.087,0-6.729,2.097-6.729,5.342c0,3.926,3.717,5.234,6.703,6.287c2.892,1.02,4.646,1.758,4.646,3.434
				c0,2.474-2.428,2.992-4.462,2.992c-2.438,0-3.995-0.629-5.375-2.174l-0.011-0.012l-0.012-0.012
				c-0.275-0.275-0.619-0.422-0.992-0.422C0.729,27.371,0,27.939,0,28.783c0,0.443,0.173,0.713,0.335,0.93
				c1.119,1.539,3.865,3.103,7.466,3.103c4.591,0,7.442-2.229,7.442-5.815C15.243,23.089,11.56,21.814,8.6,20.791z"/>
			
				<linearGradient id="SVGID_2_" gradientUnits="userSpaceOnUse" x1="266.365" y1="-329.1787" x2="266.365" y2="-297.6436" gradientTransform="matrix(1 0 0 -1 -242 -296.333)">
				<stop  offset="0" style="stop-color:#EC6E4D"/>
				<stop  offset="1" style="stop-color:#F7A35D"/>
			</linearGradient>
			<path fill="url(#SVGID_2_)" d="M30.971,27.927c-0.365,0-0.616,0.137-0.834,0.285l-0.016,0.008l-0.014,0.012
				c-0.964,0.74-2.285,1.758-4.73,1.758c-4.128,0-5.969-2.355-5.969-7.635c0-5.181,1.896-7.594,5.969-7.594
				c2.692,0,3.683,1.149,4.335,1.919c0.295,0.385,0.68,0.58,1.141,0.58c0.765,0,1.411-0.646,1.411-1.411
				c0-0.304-0.092-0.593-0.273-0.86l-0.055-0.074c-1.513-1.979-3.719-2.979-6.56-2.979c-7.856,0-9.029,6.528-9.029,10.419
				c0,3.906,1.173,10.459,9.029,10.459c3.513,0,5.56-1.641,6.433-2.34c0.37-0.295,0.573-0.699,0.573-1.135
				C32.383,28.572,31.736,27.927,30.971,27.927z"/>
			
				<linearGradient id="SVGID_3_" gradientUnits="userSpaceOnUse" x1="284.7937" y1="-329.1787" x2="284.7937" y2="-297.6452" gradientTransform="matrix(1 0 0 -1 -242 -296.333)">
				<stop  offset="0" style="stop-color:#EC6E4D"/>
				<stop  offset="1" style="stop-color:#F7A35D"/>
			</linearGradient>
			<path fill="url(#SVGID_3_)" d="M42.952,11.936c-2.582,0-4.273,0.924-5.334,1.878V3.746c0-0.809-0.683-1.49-1.491-1.49
				c-0.808,0-1.49,0.682-1.49,1.49v27.378c0,0.807,0.683,1.49,1.49,1.49c0.809,0,1.491-0.685,1.491-1.49V20.251
				c0-4.052,2.853-5.492,5.294-5.492c3.59,0,5.056,1.476,5.056,5.094v11.271c0,0.807,0.684,1.49,1.491,1.49
				c0.81,0,1.492-0.685,1.492-1.49V19.854C50.952,14.674,48.185,11.936,42.952,11.936z"/>
			
				<linearGradient id="SVGID_4_" gradientUnits="userSpaceOnUse" x1="303.7986" y1="-329.1787" x2="303.7986" y2="-297.6436" gradientTransform="matrix(1 0 0 -1 -242 -296.333)">
				<stop  offset="0" style="stop-color:#EC6E4D"/>
				<stop  offset="1" style="stop-color:#F7A35D"/>
			</linearGradient>
			<path fill="url(#SVGID_4_)" d="M62.117,11.936c-5.631,0-8.992,3.896-8.992,10.419c0,6.744,3.35,10.459,9.429,10.459
				c3.485,0,5.628-1.324,6.811-2.434c0.176-0.176,0.513-0.514,0.513-1.08c0-0.768-0.646-1.414-1.413-1.414
				c-0.415,0-0.693,0.189-0.844,0.291l-0.022,0.018l-0.021,0.018c-1.132,0.938-2.368,1.777-5.022,1.777
				c-4.047,0-6.14-2.154-6.383-6.58h12.454c0.941,0,1.598-0.514,1.753-1.375c0.095-0.559,0.095-1.147,0.095-1.625
				C70.472,18.421,69.869,11.936,62.117,11.936z M62.117,14.761c3.642,0,5.413,1.848,5.413,5.649c0,0.059-0.001,0.133-0.004,0.215
				H56.208C56.598,16.732,58.583,14.761,62.117,14.761z"/>
			
				<linearGradient id="SVGID_5_" gradientUnits="userSpaceOnUse" x1="322.3679" y1="-329.1787" x2="322.3679" y2="-297.6451" gradientTransform="matrix(1 0 0 -1 -242 -296.333)">
				<stop  offset="0" style="stop-color:#EC6E4D"/>
				<stop  offset="1" style="stop-color:#F7A35D"/>
			</linearGradient>
			<path fill="url(#SVGID_5_)" d="M87.669,2.256c-0.809,0-1.492,0.682-1.492,1.49v10.236c-1.133-1.023-2.929-2.047-5.57-2.047
				c-7.857,0-9.031,6.529-9.031,10.419c0,3.905,1.174,10.459,9.031,10.459c5.275,0,8.554-3.293,8.554-8.595V3.746
				C89.159,2.938,88.476,2.256,87.669,2.256z M80.605,29.99c-4.128,0-5.969-2.355-5.969-7.635c0-5.181,1.896-7.594,5.969-7.594
				c3.825,0,5.299,3.211,5.57,3.905v5.556C86.177,27.994,84.25,29.99,80.605,29.99z"/>
		</g>
	</g>
	<g>
		<defs>
			<polygon id="SVGID_6_" points="1,1 2,1 1,2 			"/>
		</defs>
		<defs>
			<polygon id="SVGID_7_" points="-1,-1 -2,-1 -1,-2 			"/>
		</defs>
		<clipPath id="SVGID_8_">
			<use xlink:href="#SVGID_6_"  overflow="visible"/>
		</clipPath>
		<clipPath id="SVGID_9_" clip-path="url(#SVGID_8_)">
			<use xlink:href="#SVGID_7_"  overflow="visible"/>
		</clipPath>
		<g opacity="0.4" clip-path="url(#SVGID_9_)">
			<g>
				<path d="M8.6,20.791c-2.929-1.012-4.705-1.754-4.705-3.513c0-2.08,2.037-2.517,3.746-2.517c1.935,0,3.258,0.533,4.564,1.84
					c0.419,0.422,0.85,0.422,0.99,0.422c0.766,0,1.413-0.647,1.413-1.413c0-0.408-0.137-0.669-0.357-0.957l-0.013-0.019
					l-0.016-0.017c-1.585-1.779-3.8-2.682-6.581-2.682c-4.087,0-6.729,2.097-6.729,5.342c0,3.926,3.717,5.234,6.703,6.287
					c2.892,1.02,4.646,1.758,4.646,3.434c0,2.474-2.428,2.992-4.462,2.992c-2.438,0-3.995-0.629-5.375-2.174l-0.011-0.012
					l-0.012-0.012c-0.275-0.275-0.619-0.422-0.992-0.422C0.729,27.371,0,27.939,0,28.783c0,0.443,0.173,0.713,0.335,0.93
					c1.119,1.539,3.865,3.103,7.466,3.103c4.591,0,7.442-2.229,7.442-5.815C15.243,23.089,11.56,21.814,8.6,20.791z"/>
				<path d="M30.971,27.927c-0.365,0-0.616,0.137-0.834,0.285l-0.016,0.008l-0.014,0.012c-0.964,0.74-2.285,1.758-4.73,1.758
					c-4.128,0-5.969-2.355-5.969-7.635c0-5.181,1.896-7.594,5.969-7.594c2.692,0,3.683,1.149,4.335,1.919
					c0.295,0.385,0.68,0.58,1.141,0.58c0.765,0,1.411-0.646,1.411-1.411c0-0.304-0.092-0.593-0.273-0.86l-0.055-0.074
					c-1.513-1.979-3.719-2.979-6.56-2.979c-7.856,0-9.029,6.528-9.029,10.419c0,3.906,1.173,10.459,9.029,10.459
					c3.513,0,5.56-1.641,6.433-2.34c0.37-0.295,0.573-0.699,0.573-1.135C32.383,28.572,31.736,27.927,30.971,27.927z"/>
				<path d="M42.952,11.936c-2.582,0-4.273,0.924-5.334,1.878V3.746c0-0.809-0.683-1.49-1.491-1.49c-0.808,0-1.49,0.682-1.49,1.49
					v27.378c0,0.807,0.683,1.49,1.49,1.49c0.809,0,1.491-0.685,1.491-1.49V20.251c0-4.052,2.853-5.492,5.294-5.492
					c3.59,0,5.056,1.476,5.056,5.094v11.271c0,0.807,0.684,1.49,1.491,1.49c0.81,0,1.492-0.685,1.492-1.49V19.854
					C50.952,14.674,48.185,11.936,42.952,11.936z"/>
				<path d="M62.117,11.936c-5.631,0-8.992,3.896-8.992,10.419c0,6.744,3.35,10.459,9.429,10.459c3.485,0,5.628-1.324,6.811-2.434
					c0.176-0.176,0.513-0.514,0.513-1.08c0-0.768-0.646-1.414-1.413-1.414c-0.415,0-0.693,0.189-0.844,0.291l-0.022,0.018
					l-0.021,0.018c-1.132,0.938-2.368,1.777-5.022,1.777c-4.047,0-6.14-2.154-6.383-6.58h12.454c0.941,0,1.598-0.514,1.753-1.375
					c0.095-0.559,0.095-1.147,0.095-1.625C70.472,18.421,69.869,11.936,62.117,11.936z M62.117,14.761
					c3.642,0,5.413,1.848,5.413,5.649c0,0.059-0.001,0.133-0.004,0.215H56.208C56.598,16.732,58.583,14.761,62.117,14.761z"/>
				<path d="M87.669,2.256c-0.809,0-1.492,0.682-1.492,1.49v10.236c-1.133-1.023-2.929-2.047-5.57-2.047
					c-7.857,0-9.031,6.529-9.031,10.419c0,3.905,1.174,10.459,9.031,10.459c5.275,0,8.554-3.293,8.554-8.595V3.746
					C89.159,2.938,88.476,2.256,87.669,2.256z M80.605,29.99c-4.128,0-5.969-2.355-5.969-7.635c0-5.181,1.896-7.594,5.969-7.594
					c3.825,0,5.299,3.211,5.57,3.905v5.556C86.177,27.994,84.25,29.99,80.605,29.99z"/>
			</g>
		</g>
	</g>
</g>
<g>
	<g>
		<g>
			<g>
				
					<linearGradient id="SVGID_10_" gradientUnits="userSpaceOnUse" x1="374.2566" y1="-328.9346" x2="374.2566" y2="-297.6953" gradientTransform="matrix(1 0 0 -1 -242 -296.333)">
					<stop  offset="0" style="stop-color:#30AADE"/>
					<stop  offset="1" style="stop-color:#8FDEFF"/>
				</linearGradient>
				<path fill="url(#SVGID_10_)" d="M145.247,9.033c-0.104-0.152-0.229-0.185-0.312-0.185c-0.179,0-0.309,0.142-0.326,0.161
					l-1.384,1.701c-0.014,0.016-0.297,0.397-0.081,0.777c1.026,1.823,1.57,3.914,1.57,6.045c0,6.867-5.589,12.458-12.456,12.458
					c-6.868,0-12.458-5.591-12.458-12.458c0-6.868,5.59-12.457,12.458-12.457c1.839,0,3.682,0.441,5.638,1.353
					c0.094,0.042,0.187,0.065,0.28,0.065c0.264,0,0.428-0.169,0.451-0.195l1.344-1.656c0.014-0.017,0.141-0.176,0.104-0.365
					c-0.014-0.082-0.065-0.195-0.22-0.283C137.537,2.691,134.91,2,132.258,2c-8.563,0-15.532,6.969-15.532,15.533
					c0,8.564,6.969,15.531,15.532,15.531s15.528-6.967,15.528-15.531C147.786,14.504,146.909,11.566,145.247,9.033z"/>
				
					<linearGradient id="SVGID_11_" gradientUnits="userSpaceOnUse" x1="377.6404" y1="-328.9351" x2="377.6404" y2="-297.6952" gradientTransform="matrix(1 0 0 -1 -242 -296.333)">
					<stop  offset="0" style="stop-color:#30AADE"/>
					<stop  offset="1" style="stop-color:#8FDEFF"/>
				</linearGradient>
				<path fill="url(#SVGID_11_)" d="M127.021,11.723c-0.237-0.219-0.643-0.206-0.864,0.029l-1.265,1.354
					c-0.115,0.124-0.173,0.28-0.165,0.438c0.004,0.16,0.074,0.315,0.195,0.432l7.011,6.091c0.112,0.104,0.263,0.164,0.416,0.164
					l0.037-0.002c0.164-0.011,0.321-0.09,0.429-0.215l13.594-15.818c0.104-0.125,0.154-0.283,0.14-0.445
					c-0.013-0.162-0.09-0.311-0.218-0.416l-1.422-1.191c-0.25-0.207-0.652-0.172-0.859,0.076l-11.922,13.832L127.021,11.723z"/>
			</g>
		</g>
		<g>
			<defs>
				<polygon id="SVGID_12_" points="1,1 2,1 1,2 				"/>
			</defs>
			<defs>
				<polygon id="SVGID_13_" points="-1,-1 -2,-1 -1,-2 				"/>
			</defs>
			<clipPath id="SVGID_14_">
				<use xlink:href="#SVGID_12_"  overflow="visible"/>
			</clipPath>
			<clipPath id="SVGID_15_" clip-path="url(#SVGID_14_)">
				<use xlink:href="#SVGID_13_"  overflow="visible"/>
			</clipPath>
			<g opacity="0.4" clip-path="url(#SVGID_15_)">
				<g>
					<path d="M145.247,9.033c-0.104-0.152-0.229-0.185-0.312-0.185c-0.179,0-0.309,0.142-0.326,0.161l-1.384,1.701
						c-0.014,0.016-0.297,0.397-0.081,0.777c1.026,1.823,1.57,3.914,1.57,6.045c0,6.867-5.589,12.458-12.456,12.458
						c-6.868,0-12.458-5.591-12.458-12.458c0-6.868,5.59-12.457,12.458-12.457c1.839,0,3.682,0.441,5.638,1.353
						c0.094,0.042,0.187,0.065,0.28,0.065c0.264,0,0.428-0.169,0.451-0.195l1.344-1.656c0.014-0.017,0.141-0.176,0.104-0.365
						c-0.014-0.082-0.065-0.195-0.22-0.283C137.537,2.691,134.91,2,132.258,2c-8.563,0-15.532,6.969-15.532,15.533
						c0,8.564,6.969,15.531,15.532,15.531s15.528-6.967,15.528-15.531C147.786,14.504,146.909,11.566,145.247,9.033z"/>
					<path d="M127.021,11.723c-0.237-0.219-0.643-0.206-0.864,0.029l-1.265,1.354c-0.115,0.124-0.173,0.28-0.165,0.438
						c0.004,0.16,0.074,0.315,0.195,0.432l7.011,6.091c0.112,0.104,0.263,0.164,0.416,0.164l0.037-0.002
						c0.164-0.011,0.321-0.09,0.429-0.215l13.594-15.818c0.104-0.125,0.154-0.283,0.14-0.445c-0.013-0.162-0.09-0.311-0.218-0.416
						l-1.422-1.191c-0.25-0.207-0.652-0.172-0.859,0.076l-11.922,13.832L127.021,11.723z"/>
				</g>
			</g>
		</g>
	</g>
	<g>
		<g>
			
				<linearGradient id="SVGID_16_" gradientUnits="userSpaceOnUse" x1="346.8806" y1="-328.8379" x2="346.8806" y2="-299.9564" gradientTransform="matrix(1 0 0 -1 -242 -296.333)">
				<stop  offset="0" style="stop-color:#30AADE"/>
				<stop  offset="1" style="stop-color:#8FDEFF"/>
			</linearGradient>
			<path fill="url(#SVGID_16_)" d="M105.12,32.814c-4.12,0-9.032-1.814-9.032-10.459c0-8.611,4.912-10.419,9.032-10.419
				c2.643,0,4.437,1.021,5.57,2.047V3.746c0-0.809,0.684-1.49,1.493-1.49c0.808,0,1.489,0.682,1.489,1.49V24.22
				C113.674,29.601,110.476,32.814,105.12,32.814z M105.12,14.761c-4.074,0-5.97,2.412-5.97,7.594c0,5.352,1.785,7.635,5.97,7.635
				c3.646,0,5.57-1.996,5.57-5.77v-5.555C110.389,17.906,108.924,14.761,105.12,14.761z"/>
		</g>
		<g>
			<defs>
				<polygon id="SVGID_17_" points="1,1 2,1 1,2 				"/>
			</defs>
			<defs>
				<polygon id="SVGID_18_" points="-1,-1 -2,-1 -1,-2 				"/>
			</defs>
			<clipPath id="SVGID_19_">
				<use xlink:href="#SVGID_17_"  overflow="visible"/>
			</clipPath>
			<clipPath id="SVGID_20_" clip-path="url(#SVGID_19_)">
				<use xlink:href="#SVGID_18_"  overflow="visible"/>
			</clipPath>
			<g opacity="0.4" clip-path="url(#SVGID_20_)">
				<path d="M105.12,32.814c-4.12,0-9.032-1.814-9.032-10.459c0-8.611,4.912-10.419,9.032-10.419c2.643,0,4.437,1.021,5.57,2.047
					V3.746c0-0.809,0.684-1.49,1.493-1.49c0.808,0,1.489,0.682,1.489,1.49V24.22C113.674,29.601,110.476,32.814,105.12,32.814z
					 M105.12,14.761c-4.074,0-5.97,2.412-5.97,7.594c0,5.352,1.785,7.635,5.97,7.635c3.646,0,5.57-1.996,5.57-5.77v-5.555
					C110.389,17.906,108.924,14.761,105.12,14.761z"/>
			</g>
		</g>
	</g>
	<g>
		<g>
			
				<linearGradient id="SVGID_21_" gradientUnits="userSpaceOnUse" x1="334.7419" y1="-326.7393" x2="334.7419" y2="-323.9072" gradientTransform="matrix(1 0 0 -1 -242 -296.333)">
				<stop  offset="0" style="stop-color:#30AADE"/>
				<stop  offset="1" style="stop-color:#8FDEFF"/>
			</linearGradient>
			<circle fill="url(#SVGID_21_)" cx="92.741" cy="30.406" r="1.416"/>
		</g>
		<g>
			<defs>
				<polygon id="SVGID_22_" points="1,1 2,1 1,2 				"/>
			</defs>
			<defs>
				<polygon id="SVGID_23_" points="-1,-1 -2,-1 -1,-2 				"/>
			</defs>
			<clipPath id="SVGID_24_">
				<use xlink:href="#SVGID_22_"  overflow="visible"/>
			</clipPath>
			<clipPath id="SVGID_25_" clip-path="url(#SVGID_24_)">
				<use xlink:href="#SVGID_23_"  overflow="visible"/>
			</clipPath>
			<g opacity="0.4" clip-path="url(#SVGID_25_)">
				<circle cx="92.741" cy="30.406" r="1.416"/>
			</g>
		</g>
	</g>
</g>
</svg>
