<?xml version="1.0" encoding="utf-8"?>
<!-- Generator: Adobe Illustrator 16.2.0, SVG Export Plug-In . SVG Version: 6.00 Build 0)  -->
<!DOCTYPE svg PUBLIC "-//W3C//DTD SVG 1.1//EN" "http://www.w3.org/Graphics/SVG/1.1/DTD/svg11.dtd">
<svg version="1.1" id="Layer_1" xmlns="http://www.w3.org/2000/svg" xmlns:xlink="http://www.w3.org/1999/xlink" x="0px" y="0px"
	 width="148.523px" height="34.667px" viewBox="0 0 148.523 34.667" enable-background="new 0 0 148.523 34.667"
	 xml:space="preserve">
<g>
	<g>
		<g>
			<path fill="#FFFFFF" d="M8.6,20.791c-2.93-1.012-4.705-1.754-4.705-3.513c0-2.08,2.037-2.517,3.746-2.517
				c1.935,0,3.258,0.533,4.563,1.84c0.419,0.422,0.851,0.422,0.99,0.422c0.766,0,1.413-0.647,1.413-1.413
				c0-0.408-0.137-0.669-0.357-0.957l-0.013-0.019l-0.016-0.017c-1.585-1.779-3.801-2.682-6.581-2.682
				c-4.087,0-6.729,2.097-6.729,5.342c0,3.926,3.717,5.234,6.703,6.287c2.892,1.02,4.646,1.758,4.646,3.434
				c0,2.475-2.429,2.992-4.463,2.992c-2.438,0-3.994-0.629-5.375-2.174l-0.011-0.012l-0.012-0.012
				c-0.275-0.275-0.619-0.422-0.992-0.422C0.729,27.371,0,27.939,0,28.783c0,0.443,0.173,0.713,0.335,0.93
				c1.119,1.539,3.865,3.104,7.466,3.104c4.592,0,7.442-2.229,7.442-5.814C15.243,23.089,11.56,21.814,8.6,20.791z"/>
			<path fill="#FFFFFF" d="M30.971,27.927c-0.365,0-0.616,0.137-0.834,0.285l-0.017,0.008l-0.014,0.012
				c-0.964,0.74-2.285,1.758-4.73,1.758c-4.128,0-5.969-2.355-5.969-7.635c0-5.181,1.896-7.594,5.969-7.594
				c2.692,0,3.684,1.149,4.335,1.919c0.295,0.385,0.681,0.58,1.142,0.58c0.765,0,1.411-0.646,1.411-1.411
				c0-0.304-0.093-0.593-0.273-0.86l-0.055-0.074c-1.514-1.979-3.72-2.979-6.561-2.979c-7.855,0-9.028,6.528-9.028,10.419
				c0,3.906,1.173,10.459,9.028,10.459c3.514,0,5.561-1.641,6.434-2.34c0.37-0.295,0.572-0.699,0.572-1.135
				C32.383,28.572,31.736,27.927,30.971,27.927z"/>
			<path fill="#FFFFFF" d="M42.952,11.936c-2.582,0-4.272,0.924-5.334,1.878V3.746c0-0.809-0.683-1.49-1.491-1.49
				c-0.808,0-1.489,0.682-1.489,1.49v27.378c0,0.807,0.683,1.49,1.489,1.49c0.81,0,1.491-0.686,1.491-1.49V20.251
				c0-4.052,2.854-5.493,5.294-5.493c3.59,0,5.056,1.476,5.056,5.094v11.271c0,0.807,0.685,1.49,1.491,1.49
				c0.811,0,1.492-0.686,1.492-1.49V19.854C50.952,14.674,48.185,11.936,42.952,11.936z"/>
			<path fill="#FFFFFF" d="M62.117,11.936c-5.631,0-8.992,3.896-8.992,10.419c0,6.744,3.351,10.459,9.43,10.459
				c3.484,0,5.628-1.324,6.811-2.434c0.176-0.176,0.513-0.514,0.513-1.08c0-0.768-0.646-1.414-1.413-1.414
				c-0.415,0-0.692,0.189-0.844,0.291l-0.021,0.018l-0.021,0.018c-1.132,0.938-2.368,1.777-5.021,1.777
				c-4.048,0-6.141-2.154-6.384-6.58h12.454c0.941,0,1.599-0.514,1.753-1.375c0.096-0.559,0.096-1.146,0.096-1.625
				C70.472,18.421,69.869,11.936,62.117,11.936z M62.117,14.761c3.642,0,5.413,1.848,5.413,5.649c0,0.059-0.001,0.133-0.004,0.215
				H56.208C56.598,16.732,58.583,14.761,62.117,14.761z"/>
			<path fill="#FFFFFF" d="M87.669,2.256c-0.809,0-1.492,0.682-1.492,1.49v10.236c-1.133-1.023-2.929-2.047-5.569-2.047
				c-7.857,0-9.031,6.529-9.031,10.419c0,3.905,1.174,10.459,9.031,10.459c5.274,0,8.554-3.293,8.554-8.595V3.746
				C89.159,2.938,88.476,2.256,87.669,2.256z M80.605,29.99c-4.128,0-5.969-2.355-5.969-7.635c0-5.181,1.896-7.594,5.969-7.594
				c3.825,0,5.299,3.211,5.569,3.905v5.557C86.177,27.994,84.25,29.99,80.605,29.99z"/>
		</g>
	</g>
</g>
<g>
	<g>
		<g>
			<g>
				<path fill="#FFFFFF" d="M145.247,9.033c-0.104-0.152-0.229-0.185-0.312-0.185c-0.18,0-0.31,0.142-0.326,0.161l-1.384,1.701
					c-0.015,0.016-0.297,0.397-0.081,0.777c1.025,1.823,1.569,3.914,1.569,6.045c0,6.867-5.589,12.458-12.456,12.458
					S119.8,24.399,119.8,17.532c0-6.868,5.591-12.457,12.458-12.457c1.84,0,3.683,0.441,5.639,1.353
					c0.094,0.042,0.187,0.065,0.279,0.065c0.265,0,0.429-0.169,0.451-0.195l1.345-1.656c0.014-0.017,0.141-0.176,0.104-0.365
					c-0.014-0.082-0.065-0.195-0.22-0.283C137.537,2.691,134.91,2,132.258,2c-8.562,0-15.531,6.969-15.531,15.533
					c0,8.564,6.969,15.531,15.531,15.531c8.563,0,15.528-6.967,15.528-15.531C147.786,14.504,146.909,11.566,145.247,9.033z"/>
				<path fill="#FFFFFF" d="M127.021,11.723c-0.237-0.219-0.644-0.206-0.864,0.029l-1.265,1.354
					c-0.115,0.124-0.173,0.28-0.165,0.438c0.004,0.16,0.073,0.315,0.194,0.432l7.012,6.091c0.111,0.104,0.263,0.164,0.416,0.164
					l0.037-0.002c0.163-0.011,0.32-0.09,0.429-0.215l13.594-15.818c0.104-0.125,0.154-0.283,0.14-0.445
					c-0.013-0.162-0.09-0.311-0.218-0.416l-1.422-1.191c-0.25-0.207-0.652-0.172-0.859,0.076l-11.922,13.832L127.021,11.723z"/>
			</g>
		</g>
	</g>
	<g>
		<g>
			<path fill="#FFFFFF" d="M105.12,32.814c-4.12,0-9.032-1.814-9.032-10.459c0-8.611,4.912-10.419,9.032-10.419
				c2.644,0,4.438,1.021,5.57,2.047V3.746c0-0.809,0.684-1.49,1.493-1.49c0.808,0,1.488,0.682,1.488,1.49V24.22
				C113.674,29.601,110.476,32.814,105.12,32.814z M105.12,14.761c-4.074,0-5.97,2.412-5.97,7.594c0,5.352,1.785,7.635,5.97,7.635
				c3.646,0,5.57-1.996,5.57-5.77v-5.555C110.389,17.906,108.924,14.761,105.12,14.761z"/>
		</g>
	</g>
	<g>
		<g>
			<circle fill="#FFFFFF" cx="92.741" cy="30.406" r="1.416"/>
		</g>
	</g>
</g>
</svg>
