<?xml version="1.0" encoding="utf-8"?>
<!-- Generator: Adobe Illustrator 16.0.0, SVG Export Plug-In . SVG Version: 6.00 Build 0)  -->
<!DOCTYPE svg PUBLIC "-//W3C//DTD SVG 1.1//EN" "http://www.w3.org/Graphics/SVG/1.1/DTD/svg11.dtd">
<svg version="1.1" id="Layer_1" xmlns="http://www.w3.org/2000/svg" xmlns:xlink="http://www.w3.org/1999/xlink" x="0px" y="0px"
	 width="20px" height="20px" viewBox="246 246 20 20" enable-background="new 246 246 20 20" xml:space="preserve">
<g id="user-icon">
	<g opacity="0.69">
		<path fill="#FFFFFF" d="M261.884,261.057c-2.295-0.529-4.428-0.99-3.394-2.939c3.145-5.932,0.831-9.104-2.49-9.104
			c-3.387,0-5.644,3.294-2.489,9.104c1.064,1.961-1.149,2.422-3.392,2.939c-2.292,0.529-2.116,1.736-2.116,3.93h15.994
			C263.997,262.793,264.175,261.586,261.884,261.057z"/>
	</g>
	<g>
		<path fill="#969696" d="M261.884,260.057c-2.295-0.529-4.428-0.99-3.394-2.939c3.145-5.932,0.831-9.104-2.49-9.104
			c-3.387,0-5.644,3.294-2.489,9.104c1.064,1.961-1.149,2.422-3.392,2.939c-2.292,0.529-2.116,1.736-2.116,3.93h15.994
			C263.997,261.793,264.175,260.586,261.884,260.057z"/>
	</g>
</g>
</svg>
