<svg xmlns="http://www.w3.org/2000/svg" xmlns:xlink="http://www.w3.org/1999/xlink" version="1.1" id="Layer_1" x="0px" y="0px" width="100px" height="100px" viewBox="0 0 100 100" enable-background="new 0 0 100 100" xml:space="preserve">
<path fill="#9e9e9e" d="M67.312,15.352c-6.842,0-13.039,3.193-17.312,8.657c-4.272-5.463-10.47-8.657-17.312-8.657C21.414,15.352,10,24.505,10,42  c0,18.193,19.553,31.938,37.88,43.392C48.528,85.797,49.265,86,50,86s1.472-0.203,2.12-0.608C70.447,73.938,90,60.193,90,42  C90,24.505,78.586,15.352,67.312,15.352z M50,77.28C37.752,69.579,18,56.417,18,42c0-12.813,7.614-18.648,14.688-18.648  c5.976,0,11.06,3.788,13.598,10.134C46.894,35.004,48.364,36,50,36s3.106-0.996,3.714-2.515c2.538-6.346,7.622-10.134,13.598-10.134  C74.386,23.352,82,29.187,82,42C82,56.417,62.248,69.579,50,77.28z"/>
</svg>