<svg xmlns="http://www.w3.org/2000/svg" xmlns:xlink="http://www.w3.org/1999/xlink" version="1.1" id="Layer_1" x="0px" y="0px" width="100px" height="100px" viewBox="0 0 100 100" enable-background="new 0 0 100 100" xml:space="preserve">
<g>
	<path fill="#9e9e9e" d="M87.667,17.833H28c-2.209,0-4,1.791-4,4v8H12.333c-2.209,0-4,1.791-4,4V70c0,3.534,1.356,6.678,3.819,8.851   c2.164,1.91,5.027,2.962,8.062,2.962c0.098,0,0.194-0.011,0.292-0.013c0.109,0.009,0.216,0.033,0.328,0.033h59   c0.117,0,0.229-0.024,0.344-0.034c3.111-0.074,6.07-1.28,8.161-3.36c2.178-2.166,3.328-5.084,3.328-8.438V21.833   C91.667,19.625,89.876,17.833,87.667,17.833z M24,70c0,3.537-2.898,3.812-3.786,3.812c-0.648,0-3.881-0.184-3.881-3.812V37.833H24   V70z M83.667,70c0,1.195-0.326,2.126-0.97,2.767c-0.67,0.665-1.694,1.046-2.816,1.046c-0.016,0-0.031,0-0.047,0   c-0.07,0-0.135,0.017-0.204,0.021H31.449C31.801,72.676,32,71.4,32,70V33.922c0.001-0.03,0.001-0.06,0.001-0.089   s0-0.06-0.001-0.089v-7.91h51.667V70z"/>
	<path fill="#9e9e9e" d="M41.5,39.5H73c2.209,0,4-1.791,4-4s-1.791-4-4-4H41.5c-2.209,0-4,1.791-4,4S39.291,39.5,41.5,39.5z"/>
	<path fill="#9e9e9e" d="M41.5,53.5H73c2.209,0,4-1.791,4-4s-1.791-4-4-4H41.5c-2.209,0-4,1.791-4,4S39.291,53.5,41.5,53.5z"/>
	<path fill="#9e9e9e" d="M41.5,67.5H73c2.209,0,4-1.791,4-4s-1.791-4-4-4H41.5c-2.209,0-4,1.791-4,4S39.291,67.5,41.5,67.5z"/>
</g>
</svg>