<svg xmlns="http://www.w3.org/2000/svg" xmlns:xlink="http://www.w3.org/1999/xlink" version="1.1" id="Layer_1" x="0px" y="0px" width="100px" height="100px" viewBox="0 0 100 100" enable-background="new 0 0 100 100" xml:space="preserve">
<g>
	<path fill="#9e9e9e" d="M80.316,31.994H66.568V20c0-4.418-3.581-8-8-8h-7.15c-2.932,0-5.629,1.604-7.029,4.18l-8.911,16.398   C34.558,32.209,33.555,32,32.502,32H20c-4.418,0-8,3.582-8,8v34.028c0,4.418,3.582,8,8,8h12.502c3.552,0,6.559-2.316,7.604-5.52   l12.518,4.957c0.938,0.372,1.937,0.562,2.945,0.562h24.748c4.418,0,8-3.582,8-8V39.994C88.316,35.576,84.734,31.994,80.316,31.994z    M20,74.028V40h12.434c-0.002,0.082-0.015,0.162-0.015,0.243v27.785c0,0.372,0.034,0.738,0.083,1.1v4.9H20z M80.316,74.028H55.568   l-15.066-5.967V40.089L51.418,20h7.15v19.994h21.748V74.028z"/>
	<circle cx="26.402" cy="67.243" r="4"/>
</g>
</svg>