<svg xmlns="http://www.w3.org/2000/svg" xmlns:xlink="http://www.w3.org/1999/xlink" version="1.1" id="Layer_1" x="0px" y="0px" width="100px" height="100px" viewBox="0 0 100 100" enable-background="new 0 0 100 100" xml:space="preserve">
<path fill="#9e9e9e" d="M62.639,53.046C69.164,48.866,73.5,41.557,73.5,33.25c0-12.958-10.542-23.5-23.5-23.5s-23.5,10.542-23.5,23.5  c0,8.315,4.345,15.629,10.879,19.808C26.785,58.401,16.5,68.853,16.5,78c0,10.9,23.253,12.077,33.25,12.077S83,88.9,83,78  C83,68.681,73.066,58.337,62.639,53.046z M50,17.75c8.547,0,15.5,6.953,15.5,15.5s-6.953,15.5-15.5,15.5s-15.5-6.953-15.5-15.5  S41.453,17.75,50,17.75z M49.75,82.077c-15.301,0-23.774-2.777-25.242-4.391C24.919,69.448,41.329,57.5,50,57.5  c8.501,0,24.589,11.948,24.992,20.187C73.525,79.3,65.052,82.077,49.75,82.077z"/>
</svg>