<?xml version="1.0" encoding="iso-8859-1"?>
<!-- Generator: Adobe Illustrator 16.0.0, SVG Export Plug-In . SVG Version: 6.00 Build 0)  -->
<!DOCTYPE svg PUBLIC "-//W3C//DTD SVG 1.1//EN" "http://www.w3.org/Graphics/SVG/1.1/DTD/svg11.dtd">
<svg version="1.1" xmlns="http://www.w3.org/2000/svg" xmlns:xlink="http://www.w3.org/1999/xlink" x="0px" y="0px" width="60px"
	 height="60px" viewBox="0 0 60 60" style="enable-background:new 0 0 60 60;" xml:space="preserve">
<g id="Background">
</g>
<g id="Objects">
	<g>
		<g>
			<path style="fill:#F6FBFC;" d="M22.489,53.426C10.529,50.032,4.305,40.297,7.317,28.099C9.918,17.568,18.676,8.443,29.344,6.178
				c13.719-2.914,27.228,8.005,26.904,21.891C55.92,42.161,43.017,56.184,28.369,53.426c-1.891-0.356-2.697,2.535-0.797,2.893
				c16.1,3.032,29.369-10.618,31.459-25.835C61.197,14.712,47.722,2.409,32.393,2.82C19.119,3.176,8.343,14.438,4.646,26.5
				C0.383,40.413,8.098,52.46,21.692,56.318C23.557,56.848,24.348,53.953,22.489,53.426L22.489,53.426z"/>
		</g>
	</g>
	<g>
		<g>
			<path style="fill:#F6FBFC;" d="M33.06,17.469c-3.661,5.552-8.316,10.287-12.766,15.196c-0.718,0.792-0.495,2.249,0.662,2.507
				c7.023,1.569,14.235,1.033,21.297,0c1.909-0.279,1.095-3.169-0.797-2.893c-6.501,0.951-13.24,1.443-19.703,0
				c0.221,0.835,0.441,1.671,0.662,2.507c4.623-5.101,9.432-10.037,13.234-15.804C36.719,17.362,34.119,15.861,33.06,17.469
				L33.06,17.469z"/>
		</g>
	</g>
	<g>
		<g>
			<path style="fill:#F6FBFC;" d="M34.908,27.827c-1.447,3.645-1.551,7.526-1.554,11.399c-0.001,1.935,2.999,1.935,3,0
				c0.002-3.626,0.091-7.186,1.446-10.601C38.516,26.824,35.613,26.051,34.908,27.827L34.908,27.827z"/>
		</g>
	</g>
</g>
</svg>
